<?xml version="1.0" encoding="utf-8"?>
<!-- Generator: Adobe Illustrator 16.0.0, SVG Export Plug-In . SVG Version: 6.00 Build 0)  -->
<!DOCTYPE svg PUBLIC "-//W3C//DTD SVG 1.1//EN" "http://www.w3.org/Graphics/SVG/1.1/DTD/svg11.dtd">
<svg version="1.1" id="Layer_1" xmlns="http://www.w3.org/2000/svg" xmlns:xlink="http://www.w3.org/1999/xlink" x="0px" y="0px"
	 width="866.859px" height="275.395px" viewBox="0 0 866.859 275.395" enable-background="new 0 0 866.859 275.395"
	 xml:space="preserve">
<line fill="none" stroke="#FFFFFF" stroke-width="4" stroke-miterlimit="10" stroke-dasharray="12" x1="363" y1="142.394" x2="194" y2="142.394"/>
<line fill="none" stroke="#FFFFFF" stroke-width="4" stroke-miterlimit="10" stroke-dasharray="12" x1="688" y1="142.394" x2="519" y2="142.394"/>
<circle fill="#FFFFFF" cx="112.816" cy="138.039" r="95.038"/>
<circle fill="#FFFFFF" cx="434.388" cy="138.039" r="95.038"/>
<circle fill="#FFFFFF" cx="755.96" cy="138.039" r="95.039"/>
<g>
	<rect x="42.855" y="85.394" fill="none" width="142.695" height="65.523"/>
	<text transform="matrix(1 0 0 1 78.9761 99.4529)" fill="#333333" font-family="'Museo-300'" font-size="15">Create an </text>
	<text transform="matrix(1 0 0 1 69.1211 119.4529)" fill="#333333" font-family="'Museo-300'" font-size="15">account and </text>
	<text transform="matrix(1 0 0 1 87.6455 138.4529)" fill="#333333" font-family="'Museo-300'" font-size="15">click on</text>
</g>
<g>
	<rect x="686.421" y="118.226" fill="none" width="139.078" height="111.627"/>
	<text transform="matrix(1 0 0 1 713.8159 132.2849)" fill="#333333" font-family="'Museo-300'" font-size="15">Copy code to </text>
	<text transform="matrix(1 0 0 1 700.937 151.2849)" fill="#333333" font-family="'Museo-300'" font-size="15">your site, share </text>
	<text transform="matrix(1 0 0 1 702.73 170.2849)" fill="#333333" font-family="'Museo-300'" font-size="15">your flowchart,</text>
	<text transform="matrix(1 0 0 1 709.5913 189.2849)" fill="#333333" font-family="'Museo-300'" font-size="15">or  print it out.</text>
</g>
<g>
	<rect x="363.042" y="159.838" fill="none" width="142.695" height="28.402"/>
	<text transform="matrix(1 0 0 1 404.5698 173.8972)" fill="#333333" font-family="'Museo-300'" font-size="15">answers.</text>
</g>
<g>
	<rect x="363.042" y="92.841" fill="none" width="142.695" height="17.889"/>
	<text transform="matrix(1 0 0 1 411.9351 106.9011)" fill="#333333" font-family="'Museo-300'" font-size="15">Select </text>
</g>
<g>
	<rect x="365" y="118.394" fill="#FFFF00" width="63" height="32"/>
	<rect x="373.827" y="130.736" fill="none" width="48.405" height="20.803"/>
	<text transform="matrix(1 0 0 1 385.5688 139.574)" fill="#4D4D4D" font-family="'PermanentMarker'" font-size="14.6921">YES</text>
</g>
<g>
	<rect x="439" y="118.394" fill="#FFFF00" width="63" height="33"/>
	<rect x="446.746" y="131.068" fill="none" width="48.404" height="20.803"/>
	<text transform="matrix(1 0 0 1 460.4526 139.906)" fill="#4D4D4D" font-family="'PermanentMarker'" font-size="14.6921">NO</text>
</g>
<g>
	<rect x="58" y="146.394" fill="#FF7BAC" width="111" height="31"/>
	<rect x="14.804" y="158.593" fill="none" width="197.107" height="20.804"/>
	<text transform="matrix(1 0 0 1 63.8579 167.4314)" fill="#4D4D4D" font-family="'PermanentMarker'" font-size="14.6921">Build a Chart</text>
</g>
<path fill="#FF931E" d="M765.052,89.17c-1.316,0-2.516,0.505-3.42,1.328l-9.734-4.965c0.037-0.252,0.064-0.51,0.064-0.775
	c0-0.148-0.01-0.295-0.021-0.44l9.826-5.01c0.887,0.75,2.031,1.203,3.287,1.203c2.811,0,5.092-2.278,5.092-5.092
	c0-2.812-2.281-5.093-5.092-5.093c-2.814,0-5.094,2.281-5.094,5.093c0,0.155,0.01,0.309,0.023,0.459l-9.816,5.005
	c-0.887-0.758-2.037-1.218-3.297-1.218c-2.812,0-5.094,2.28-5.094,5.092c0,2.812,2.279,5.093,5.094,5.093
	c1.133,0,2.178-0.375,3.021-1.002l10.082,5.14c-0.004,0.092-0.016,0.181-0.016,0.271c0,2.812,2.279,5.094,5.092,5.094
	c2.814,0,5.092-2.28,5.092-5.094C770.146,91.45,767.865,89.17,765.052,89.17z"/>
</svg>
