<?xml version="1.0" encoding="utf-8"?>
<!-- Generator: Adobe Illustrator 16.0.0, SVG Export Plug-In . SVG Version: 6.00 Build 0)  -->
<!DOCTYPE svg PUBLIC "-//W3C//DTD SVG 1.1//EN" "http://www.w3.org/Graphics/SVG/1.1/DTD/svg11.dtd">
<svg version="1.1" id="Layer_1" xmlns="http://www.w3.org/2000/svg" xmlns:xlink="http://www.w3.org/1999/xlink" x="0px" y="0px"
	 width="866.859px" height="275.395px" viewBox="0 0 866.859 275.395" enable-background="new 0 0 866.859 275.395"
	 xml:space="preserve">
<circle fill="#FFFFFF" cx="538.357" cy="138.039" r="81.406"/>
<g>
	<g>
		<path fill="#333333" d="M494.614,159.195h-0.897v-0.855h3.893c2.924,0,4.868,1.78,4.868,4.842c0,3.091-1.944,4.856-4.868,4.856
			h-2.153c-0.593,0-0.842-0.249-0.842-0.842V159.195z M495.884,167.181h1.627c2.388,0,3.959-1.407,3.959-4
			c0-2.58-1.586-3.986-3.959-3.986h-1.93v7.683C495.58,167.086,495.692,167.181,495.884,167.181z"/>
		<path fill="#333333" d="M504.298,162.216c0-0.192-0.111-0.304-0.304-0.304h-0.579v-0.813h0.966c0.579,0,0.842,0.234,0.842,0.786
			v0.469c0,0.291-0.029,0.524-0.029,0.524h0.029c0.329-1.048,1.103-1.849,2.192-1.849c0.193,0,0.373,0.042,0.373,0.042v0.924
			c0,0-0.165-0.027-0.346-0.027c-0.979,0-1.71,0.772-2.013,1.794c-0.139,0.441-0.194,0.91-0.194,1.352v2.925h-0.938V162.216
			L504.298,162.216z"/>
		<path fill="#333333" d="M512.438,163.761h0.385v-0.083c0-1.449-0.524-1.959-1.792-1.959c-0.345,0-1.352,0.097-1.352,0.606v0.441
			h-0.897v-0.661c0-0.966,1.658-1.173,2.263-1.173c2.193,0,2.72,1.173,2.72,2.662v3.324c0,0.207,0.109,0.304,0.303,0.304h0.58v0.814
			h-0.953c-0.593,0-0.827-0.263-0.827-0.828c0-0.304,0.015-0.511,0.015-0.511h-0.027c0.015,0-0.565,1.504-2.305,1.504
			c-1.158,0-2.358-0.676-2.358-2.056C508.189,163.844,511.238,163.761,512.438,163.761z M510.699,167.402
			c1.324,0,2.124-1.379,2.124-2.579v-0.317h-0.399c-1.09,0-3.269,0.027-3.269,1.587C509.155,166.74,509.665,167.402,510.699,167.402
			z"/>
		<path fill="#333333" d="M518.521,160.933c1.865,0,2.307,1.187,2.307,1.187h0.024c0,0,0-0.125,0-0.263
			c0-0.496,0.222-0.759,0.788-0.759h0.963v0.813h-0.563c-0.194,0-0.305,0.097-0.305,0.304v5.657c0,2.207-1.627,3.062-3.337,3.062
			c-0.785,0-1.585-0.207-2.263-0.552l0.36-0.786c0,0,0.854,0.482,1.876,0.482c1.351,0,2.427-0.635,2.427-2.179v-0.607
			c0-0.263,0.015-0.496,0.015-0.496h-0.027c-0.414,0.758-1.104,1.199-2.18,1.199c-1.863,0-3.091-1.477-3.091-3.56
			C515.515,162.355,516.66,160.933,518.521,160.933z M520.811,164.436c0-2.027-0.966-2.648-2.191-2.648
			c-1.353,0-2.141,0.979-2.141,2.636c0,1.654,0.899,2.731,2.264,2.731C519.845,167.155,520.811,166.478,520.811,164.436z"/>
		<path fill="#333333" d="M531.474,163.761h0.385v-0.083c0-1.449-0.523-1.959-1.79-1.959c-0.347,0-1.352,0.097-1.352,0.606v0.441
			h-0.897v-0.661c0-0.966,1.656-1.173,2.262-1.173c2.192,0,2.719,1.173,2.719,2.662v3.324c0,0.207,0.109,0.304,0.303,0.304h0.58
			v0.814h-0.951c-0.595,0-0.829-0.263-0.829-0.828c0-0.304,0.015-0.511,0.015-0.511h-0.027c0.015,0-0.563,1.504-2.303,1.504
			c-1.16,0-2.36-0.676-2.36-2.056C527.225,163.844,530.274,163.761,531.474,163.761z M529.735,167.402
			c1.324,0,2.124-1.379,2.124-2.579v-0.317h-0.399c-1.09,0-3.269,0.027-3.269,1.587C528.191,166.74,528.701,167.402,529.735,167.402
			z"/>
		<path fill="#333333" d="M535.171,162.216c0-0.192-0.112-0.304-0.305-0.304h-0.578v-0.813h0.966c0.578,0,0.841,0.248,0.841,0.772
			v0.317c0,0.276-0.028,0.497-0.028,0.497h0.028c0.247-0.635,1.13-1.752,2.759-1.752c1.725,0,2.332,0.979,2.332,2.689v3.297
			c0,0.207,0.111,0.304,0.303,0.304h0.58v0.814h-0.98c-0.593,0-0.842-0.249-0.842-0.842v-3.325c0-1.089-0.166-2.055-1.502-2.055
			c-1.188,0-2.208,0.813-2.524,1.958c-0.083,0.29-0.112,0.607-0.112,0.938v3.325h-0.937V162.216L535.171,162.216z"/>
		<path fill="#333333" d="M546.054,160.933c1.683,0,2.263,1.296,2.263,1.296h0.027c0,0-0.027-0.234-0.027-0.524v-2.247
			c0-0.194-0.109-0.304-0.305-0.304h-0.578v-0.814h0.98c0.593,0,0.842,0.248,0.842,0.841v7.739c0,0.207,0.109,0.304,0.303,0.304
			h0.58v0.814h-0.966c-0.578,0-0.827-0.263-0.827-0.773c0-0.262,0.027-0.441,0.027-0.441h-0.027c0,0-0.565,1.38-2.388,1.38
			c-1.861,0-3.02-1.489-3.02-3.642C542.937,162.367,544.235,160.933,546.054,160.933z M548.344,164.561
			c0-1.407-0.717-2.787-2.207-2.787c-1.228,0-2.232,1.034-2.232,2.787c0,1.711,0.896,2.8,2.19,2.8
			C547.254,167.361,548.344,166.534,548.344,164.561z"/>
		<path fill="#333333" d="M557.917,160.933c1.685,0,2.265,1.296,2.265,1.296h0.025c0,0-0.025-0.234-0.025-0.524v-2.247
			c0-0.194-0.111-0.304-0.305-0.304h-0.578v-0.814h0.979c0.593,0,0.842,0.248,0.842,0.841v7.739c0,0.207,0.109,0.304,0.305,0.304
			h0.578v0.814h-0.966c-0.578,0-0.827-0.263-0.827-0.773c0-0.262,0.027-0.441,0.027-0.441h-0.027c0,0-0.565,1.38-2.388,1.38
			c-1.861,0-3.02-1.489-3.02-3.642C554.8,162.367,556.097,160.933,557.917,160.933z M560.208,164.561
			c0-1.407-0.718-2.787-2.207-2.787c-1.226,0-2.232,1.034-2.232,2.787c0,1.711,0.896,2.8,2.19,2.8
			C559.117,167.361,560.208,166.534,560.208,164.561z"/>
		<path fill="#333333" d="M563.532,162.216c0-0.192-0.11-0.304-0.301-0.304h-0.58v-0.813h0.964c0.58,0,0.842,0.234,0.842,0.786
			v0.469c0,0.291-0.025,0.524-0.025,0.524h0.025c0.331-1.048,1.104-1.849,2.194-1.849c0.192,0,0.371,0.042,0.371,0.042v0.924
			c0,0-0.164-0.027-0.342-0.027c-0.98,0-1.712,0.772-2.015,1.794c-0.139,0.441-0.193,0.91-0.193,1.352v2.925h-0.938v-5.822H563.532z
			"/>
		<path fill="#333333" d="M571.258,160.933c2.026,0,3.668,1.545,3.668,3.6c0,2.098-1.642,3.67-3.655,3.67
			c-2.025,0-3.667-1.572-3.667-3.67C567.602,162.478,569.244,160.933,571.258,160.933z M571.271,167.361
			c1.478,0,2.689-1.214,2.689-2.828c0-1.572-1.214-2.745-2.689-2.745c-1.488,0-2.703,1.173-2.703,2.745
			C568.568,166.147,569.783,167.361,571.271,167.361z"/>
		<path fill="#333333" d="M576.677,162.216c0-0.192-0.109-0.304-0.302-0.304h-0.581v-0.813h0.954c0.593,0,0.827,0.248,0.827,0.731
			c0,0.275-0.015,0.469-0.015,0.469h0.026c0,0,0.554-1.365,2.386-1.365c1.863,0,3.023,1.49,3.023,3.641
			c0,2.194-1.312,3.629-3.106,3.629c-1.695,0-2.275-1.311-2.275-1.311h-0.027c0,0,0.027,0.248,0.027,0.606v3.298h-0.939v-8.581
			H576.677z M579.797,167.376c1.227,0,2.233-1.035,2.233-2.802c0-1.696-0.897-2.786-2.192-2.786c-1.158,0-2.249,0.828-2.249,2.801
			C577.589,165.982,578.348,167.376,579.797,167.376z"/>
		<path fill="#333333" d="M492.098,174.313c0-0.193-0.112-0.304-0.305-0.304h-0.578v-0.814h0.978c0.595,0,0.842,0.249,0.842,0.842
			v2.511c0,0.317-0.027,0.565-0.027,0.565h0.027c0,0,0.58-1.324,2.36-1.324c1.863,0,3.022,1.49,3.022,3.642
			c0,2.193-1.311,3.628-3.132,3.628c-1.656,0-2.278-1.338-2.278-1.338h-0.024c0,0,0.024,0.234,0.024,0.565v0.607H492.1v-8.58
			H492.098z M495.215,182.231c1.227,0,2.233-1.035,2.233-2.801c0-1.696-0.909-2.786-2.192-2.786c-1.158,0-2.249,0.827-2.249,2.801
			C493.007,180.838,493.725,182.231,495.215,182.231z"/>
		<path fill="#333333" d="M500.167,177.072c0-0.193-0.11-0.304-0.303-0.304h-0.58v-0.813h0.982c0.593,0,0.841,0.247,0.841,0.813
			v3.353c0,1.09,0.179,2.055,1.518,2.055c1.57,0,2.551-1.393,2.551-2.896v-3.324h0.939v5.82c0,0.207,0.109,0.304,0.302,0.304h0.581
			v0.814h-0.951c-0.581,0-0.842-0.248-0.842-0.772v-0.317c0-0.275,0.027-0.496,0.027-0.496h-0.027
			c-0.275,0.675-1.188,1.751-2.705,1.751c-1.641,0-2.331-0.883-2.331-2.689v-3.297H500.167z"/>
		<path fill="#333333" d="M508.581,177.072c0-0.193-0.109-0.304-0.303-0.304h-0.58v-0.813h0.98c0.593,0,0.841,0.247,0.841,0.842
			v4.979c0,0.207,0.11,0.304,0.305,0.304h0.579v0.814h-0.979c-0.595,0-0.844-0.248-0.844-0.841V177.072z M508.554,173.195h0.909
			v1.187h-0.909V173.195z"/>
		<path fill="#333333" d="M511.961,174.313c0-0.193-0.11-0.304-0.303-0.304h-0.581v-0.814h0.98c0.595,0,0.842,0.249,0.842,0.842
			v7.738c0,0.207,0.109,0.304,0.303,0.304h0.58v0.814h-0.98c-0.593,0-0.841-0.248-0.841-0.841V174.313z"/>
		<path fill="#333333" d="M517.851,175.789c1.683,0,2.264,1.297,2.264,1.297h0.026c0,0-0.026-0.234-0.026-0.524v-2.248
			c0-0.193-0.11-0.304-0.303-0.304h-0.578v-0.814h0.978c0.593,0,0.842,0.249,0.842,0.842v7.738c0,0.207,0.109,0.304,0.305,0.304
			h0.578v0.814h-0.966c-0.578,0-0.827-0.262-0.827-0.772c0-0.263,0.027-0.441,0.027-0.441h-0.027c0,0-0.565,1.379-2.388,1.379
			c-1.86,0-3.02-1.489-3.02-3.642C514.734,177.223,516.032,175.789,517.851,175.789z M520.141,179.417
			c0-1.407-0.717-2.786-2.207-2.786c-1.227,0-2.232,1.034-2.232,2.786c0,1.711,0.896,2.8,2.19,2.8
			C519.051,182.217,520.141,181.39,520.141,179.417z"/>
		<path fill="#333333" d="M523.534,177.072c0-0.193-0.109-0.304-0.303-0.304h-0.58v-0.813h0.98c0.593,0,0.842,0.247,0.842,0.842
			v4.979c0,0.207,0.111,0.304,0.305,0.304h0.578v0.814h-0.979c-0.595,0-0.844-0.248-0.844-0.841V177.072L523.534,177.072z
			 M523.507,173.195h0.909v1.187h-0.909V173.195z"/>
		<path fill="#333333" d="M526.929,177.072c0-0.193-0.112-0.304-0.305-0.304h-0.579v-0.813h0.964c0.581,0,0.842,0.247,0.842,0.771
			v0.317c0,0.276-0.027,0.497-0.027,0.497h0.027c0.249-0.635,1.132-1.752,2.761-1.752c1.725,0,2.331,0.979,2.331,2.69v3.296
			c0,0.207,0.11,0.304,0.303,0.304h0.58v0.814h-0.979c-0.593,0-0.842-0.248-0.842-0.841v-3.326c0-1.089-0.166-2.055-1.505-2.055
			c-1.186,0-2.207,0.813-2.524,1.959c-0.083,0.29-0.109,0.607-0.109,0.938v3.325h-0.939v-5.821H526.929z"/>
		<path fill="#333333" d="M537.702,175.789c1.863,0,2.305,1.187,2.305,1.187h0.027c0,0,0-0.124,0-0.262
			c0-0.497,0.22-0.759,0.785-0.759h0.966v0.813h-0.565c-0.193,0-0.303,0.097-0.303,0.304v5.656c0,2.208-1.629,3.062-3.339,3.062
			c-0.786,0-1.586-0.207-2.264-0.551l0.361-0.787c0,0,0.855,0.483,1.877,0.483c1.35,0,2.428-0.636,2.428-2.18v-0.607
			c0-0.262,0.014-0.496,0.014-0.496h-0.028c-0.413,0.759-1.103,1.2-2.179,1.2c-1.863,0-3.09-1.477-3.09-3.56
			S535.838,175.789,537.702,175.789z M539.992,179.293c0-2.028-0.966-2.648-2.192-2.648c-1.352,0-2.139,0.979-2.139,2.635
			c0,1.655,0.897,2.731,2.261,2.731C539.026,182.01,539.992,181.334,539.992,179.293z"/>
		<path fill="#333333" d="M547.011,174.313c0-0.193-0.109-0.304-0.303-0.304h-0.58v-0.814h0.98c0.593,0,0.842,0.249,0.842,0.842
			v2.511c0,0.317-0.027,0.565-0.027,0.565h0.027c0,0,0.58-1.324,2.358-1.324c1.865,0,3.023,1.49,3.023,3.642
			c0,2.193-1.312,3.628-3.132,3.628c-1.655,0-2.275-1.338-2.275-1.338h-0.028c0,0,0.028,0.234,0.028,0.565v0.607h-0.912v-8.58
			H547.011z M550.13,182.231c1.228,0,2.234-1.035,2.234-2.801c0-1.696-0.91-2.786-2.192-2.786c-1.159,0-2.249,0.827-2.249,2.801
			C547.923,180.838,548.64,182.231,550.13,182.231z"/>
		<path fill="#333333" d="M554.972,174.313c0-0.193-0.109-0.304-0.303-0.304h-0.58v-0.814h0.98c0.593,0,0.841,0.249,0.841,0.842
			v7.738c0,0.207,0.11,0.304,0.303,0.304h0.581v0.814h-0.98c-0.593,0-0.842-0.248-0.842-0.841V174.313z"/>
		<path fill="#333333" d="M561.375,175.789c2.026,0,3.668,1.545,3.668,3.6c0,2.098-1.642,3.67-3.656,3.67
			c-2.026,0-3.668-1.572-3.668-3.67C557.718,177.334,559.36,175.789,561.375,175.789z M561.386,182.217
			c1.477,0,2.69-1.213,2.69-2.828c0-1.571-1.214-2.744-2.69-2.744c-1.49,0-2.702,1.173-2.702,2.744
			C558.684,181.004,559.896,182.217,561.386,182.217z"/>
		<path fill="#333333" d="M569.801,175.789c0.787,0,2.471,0.331,2.471,1.476v0.621h-0.884v-0.4c0-0.579-1.007-0.854-1.587-0.854
			c-1.488,0-2.688,1.117-2.688,2.8c0,1.711,1.256,2.773,2.718,2.773c1.421,0,2.235-0.979,2.235-0.979l0.441,0.703
			c0,0-0.94,1.131-2.719,1.131c-2.07,0-3.644-1.476-3.644-3.628C566.145,177.306,567.733,175.789,569.801,175.789z"/>
		<path fill="#333333" d="M573.994,174.313c0-0.193-0.109-0.304-0.303-0.304h-0.58v-0.814h0.98c0.595,0,0.842,0.207,0.842,0.8v4.608
			h0.719c0.261,0,0.593-0.083,0.785-0.331l1.78-2.317h1.146l-2.002,2.538c-0.344,0.428-0.524,0.496-0.524,0.496v0.028
			c0,0,0.207,0.096,0.427,0.511l1.258,2.247c0.123,0.235,0.262,0.304,0.635,0.304h0.371v0.814h-0.647
			c-0.689,0-0.883-0.11-1.199-0.689l-1.381-2.483c-0.151-0.275-0.482-0.304-0.731-0.304h-0.634v3.477h-0.939v-8.58H573.994z"/>
		<path fill="#333333" d="M580.642,181.196c0,0,0.775,1.049,2.142,1.049c0.772,0,1.463-0.372,1.463-1.104
			c0-1.518-3.892-1.241-3.892-3.477c0-1.255,1.077-1.876,2.47-1.876c0.703,0,2.11,0.275,2.11,1.255v0.594h-0.883v-0.331
			c0-0.51-0.744-0.704-1.202-0.704c-0.964,0-1.542,0.332-1.542,1.007c0,1.559,3.89,1.2,3.89,3.504c0,1.16-1.049,1.945-2.429,1.945
			c-1.808,0-2.663-1.214-2.663-1.214L580.642,181.196z"/>
		<path fill="#333333" d="M490.172,191.927c0-0.192-0.109-0.304-0.303-0.304h-0.58v-0.813h0.982c0.593,0,0.842,0.248,0.842,0.842
			v4.979c0,0.207,0.109,0.304,0.3,0.304h0.583v0.814h-0.982c-0.593,0-0.842-0.249-0.842-0.842V191.927z M490.146,188.051h0.909
			v1.188h-0.909V188.051z"/>
		<path fill="#333333" d="M493.565,191.927c0-0.192-0.109-0.304-0.303-0.304h-0.58v-0.813h0.966c0.58,0,0.842,0.248,0.842,0.772
			v0.317c0,0.276-0.027,0.497-0.027,0.497h0.027c0.248-0.636,1.132-1.752,2.761-1.752c1.724,0,2.331,0.979,2.331,2.689v3.297
			c0,0.207,0.11,0.304,0.303,0.304h0.58v0.814h-0.98c-0.592,0-0.841-0.249-0.841-0.842v-3.325c0-1.089-0.166-2.055-1.505-2.055
			c-1.186,0-2.207,0.813-2.524,1.958c-0.083,0.29-0.109,0.607-0.109,0.938v3.326h-0.939V191.927L493.565,191.927z"/>
		<path fill="#333333" d="M502.036,191.596h-0.91v-0.786h0.925v-1.918h0.924v1.918h1.737v0.786h-1.737v3.531
			c0,1.628,1.034,1.835,1.559,1.835c0.193,0,0.317-0.027,0.317-0.027v0.841c0,0-0.164,0.028-0.4,0.028
			c-0.8,0-2.412-0.263-2.412-2.579v-3.629H502.036z"/>
		<path fill="#333333" d="M509.445,190.645c2.027,0,3.669,1.545,3.669,3.6c0,2.098-1.642,3.669-3.656,3.669
			c-2.027,0-3.669-1.571-3.669-3.669C505.789,192.19,507.43,190.645,509.445,190.645z M509.458,197.073
			c1.478,0,2.69-1.214,2.69-2.828c0-1.572-1.215-2.745-2.69-2.745c-1.488,0-2.703,1.173-2.703,2.745
			C506.754,195.859,507.967,197.073,509.458,197.073z"/>
		<path fill="#333333" d="M518.699,191.596h-0.908v-0.786h0.925v-1.918h0.925v1.918h1.736v0.786h-1.736v3.531
			c0,1.628,1.034,1.835,1.559,1.835c0.192,0,0.316-0.027,0.316-0.027v0.841c0,0-0.166,0.028-0.399,0.028
			c-0.801,0-2.415-0.263-2.415-2.579v-3.629H518.699z"/>
		<path fill="#333333" d="M523.101,189.169c0-0.193-0.11-0.303-0.305-0.303h-0.578v-0.815h0.978c0.595,0,0.842,0.249,0.842,0.815
			v2.938c0,0.317-0.024,0.565-0.024,0.565h0.024c0.264-0.662,1.188-1.724,2.746-1.724c1.725,0,2.332,0.979,2.332,2.689v3.297
			c0,0.207,0.111,0.304,0.302,0.304h0.581v0.814h-0.98c-0.593,0-0.842-0.249-0.842-0.842v-3.325c0-1.089-0.166-2.055-1.517-2.055
			c-1.174,0-2.193,0.813-2.51,1.973c-0.083,0.275-0.112,0.593-0.112,0.924v3.325h-0.937V189.169z"/>
		<path fill="#333333" d="M534.259,190.645c1.919,0,2.912,1.476,2.912,3.199c0,0.166-0.027,0.47-0.027,0.47h-5.326
			c0.029,1.752,1.258,2.759,2.69,2.759c1.271,0,2.083-0.855,2.083-0.855l0.455,0.704c0,0-1.005,0.992-2.58,0.992
			c-2.056,0-3.627-1.488-3.627-3.628C530.839,192.01,532.398,190.645,534.259,190.645z M536.206,193.569
			c-0.056-1.435-0.939-2.138-1.959-2.138c-1.146,0-2.153,0.745-2.388,2.138H536.206z"/>
		<path fill="#333333" d="M545.805,190.645c0.786,0,2.471,0.33,2.471,1.476v0.62h-0.883v-0.399c0-0.58-1.007-0.855-1.588-0.855
			c-1.49,0-2.689,1.117-2.689,2.8c0,1.711,1.256,2.773,2.719,2.773c1.42,0,2.234-0.979,2.234-0.979l0.441,0.704
			c0,0-0.939,1.13-2.72,1.13c-2.068,0-3.641-1.476-3.641-3.628C542.15,192.162,543.737,190.645,545.805,190.645z"/>
		<path fill="#333333" d="M553.683,193.472h0.386v-0.083c0-1.448-0.524-1.958-1.793-1.958c-0.347,0-1.354,0.097-1.354,0.606v0.441
			h-0.896v-0.661c0-0.966,1.656-1.173,2.262-1.173c2.194,0,2.719,1.173,2.719,2.662v3.324c0,0.207,0.11,0.304,0.303,0.304h0.58
			v0.814h-0.953c-0.593,0-0.827-0.263-0.827-0.828c0-0.304,0.017-0.511,0.017-0.511h-0.029c0.015,0-0.565,1.503-2.302,1.503
			c-1.161,0-2.361-0.675-2.361-2.055C549.434,193.555,552.483,193.472,553.683,193.472z M551.944,197.114
			c1.325,0,2.125-1.379,2.125-2.579v-0.317h-0.4c-1.088,0-3.269,0.027-3.269,1.587C550.4,196.452,550.91,197.114,551.944,197.114z"
			/>
		<path fill="#333333" d="M557.378,191.927c0-0.192-0.109-0.304-0.303-0.304h-0.58v-0.813h0.966c0.58,0,0.841,0.248,0.841,0.772
			v0.317c0,0.276-0.024,0.497-0.024,0.497h0.024c0.249-0.636,1.132-1.752,2.761-1.752c1.725,0,2.332,0.979,2.332,2.689v3.297
			c0,0.207,0.109,0.304,0.303,0.304h0.58v0.814h-0.98c-0.593,0-0.841-0.249-0.841-0.842v-3.325c0-1.089-0.166-2.055-1.505-2.055
			c-1.186,0-2.208,0.813-2.524,1.958c-0.083,0.29-0.11,0.607-0.11,0.938v3.326h-0.938V191.927L557.378,191.927z"/>
		<path fill="#333333" d="M565.2,191.941c-0.095-0.248-0.233-0.317-0.482-0.317h-0.122v-0.813h0.373
			c0.663,0,0.868,0.138,1.104,0.759l1.668,4.332c0.122,0.345,0.234,0.813,0.234,0.813h0.027c0,0,0.109-0.469,0.236-0.813
			l1.668-4.332c0.234-0.621,0.441-0.759,1.088-0.759h0.358v0.813h-0.122c-0.249,0-0.399,0.069-0.482,0.317l-2.264,5.809h-1.021
			L565.2,191.941z"/>
		<path fill="#333333" d="M576.278,193.472h0.386v-0.083c0-1.448-0.522-1.958-1.793-1.958c-0.344,0-1.352,0.097-1.352,0.606v0.441
			h-0.897v-0.661c0-0.966,1.656-1.173,2.264-1.173c2.192,0,2.719,1.173,2.719,2.662v3.324c0,0.207,0.11,0.304,0.303,0.304h0.58
			v0.814h-0.951c-0.593,0-0.829-0.263-0.829-0.828c0-0.304,0.015-0.511,0.015-0.511h-0.026c0.014,0-0.566,1.503-2.305,1.503
			c-1.159,0-2.359-0.675-2.359-2.055C572.029,193.555,575.078,193.472,576.278,193.472z M574.541,197.114
			c1.325,0,2.125-1.379,2.125-2.579v-0.317h-0.4c-1.088,0-3.269,0.027-3.269,1.587C572.995,196.452,573.504,197.114,574.541,197.114
			z"/>
		<path fill="#333333" d="M579.712,196.052c0,0,0.774,1.048,2.141,1.048c0.773,0,1.463-0.372,1.463-1.104
			c0-1.517-3.893-1.241-3.893-3.477c0-1.255,1.078-1.875,2.471-1.875c0.703,0,2.11,0.275,2.11,1.255v0.594h-0.883v-0.332
			c0-0.51-0.744-0.703-1.202-0.703c-0.964,0-1.544,0.331-1.544,1.007c0,1.559,3.89,1.2,3.89,3.504c0,1.159-1.047,1.944-2.427,1.944
			c-1.808,0-2.663-1.213-2.663-1.213L579.712,196.052z"/>
		<path fill="#333333" d="M585.796,196.646h1.062v1.104h-1.062V196.646z"/>
	</g>
</g>
<g>
	<path fill="#6196FF" d="M532.697,82.342c0,0,2.081,2.377,5.318,2.377c2.259,0,4.159-1.574,4.159-3.832
		c0-2.348-2.079-3.744-4.516-3.744h-1.484l-0.624-1.575l4.367-5.497c0.626-0.891,1.219-1.367,1.219-1.367v-0.059
		c0,0-0.624,0.089-1.782,0.089h-4.042c-0.416,0-0.654,0.207-0.654,0.653v1.338h-2.732v-2.645c0-1.337,0.475-1.902,1.812-1.902
		h11.053v1.872l-5.527,6.656c2.733,0.296,5.944,2.109,5.944,6.15c0,3.506-2.823,6.655-7.191,6.655c-4.365,0-6.921-2.941-6.921-2.941
		L532.697,82.342z"/>
</g>
<g>
	<g>
		<g>
			<path fill="#424141" d="M559.967,111.757h-4.513c-0.389,0-0.706-0.316-0.706-0.707s0.317-0.707,0.706-0.707h4.513
				c0.39,0,0.704,0.316,0.704,0.707S560.357,111.757,559.967,111.757z"/>
		</g>
		<g>
			<path fill="#424141" d="M566.595,113.876c-0.39,0-0.707-0.316-0.707-0.707v-1.413h-1.411c-0.39,0-0.705-0.316-0.705-0.707
				s0.315-0.707,0.705-0.707h2.118c0.392,0,0.706,0.316,0.706,0.707v2.119C567.301,113.56,566.987,113.876,566.595,113.876z"/>
		</g>
		<g>
			<path fill="#424141" d="M566.595,142.151c-0.39,0-0.707-0.316-0.707-0.706v-4.712c0-0.39,0.317-0.707,0.707-0.707
				c0.392,0,0.706,0.315,0.706,0.707v4.712C567.301,141.835,566.987,142.151,566.595,142.151z M566.595,132.726
				c-0.39,0-0.707-0.316-0.707-0.707v-4.713c0-0.39,0.317-0.707,0.707-0.707c0.392,0,0.706,0.317,0.706,0.707v4.713
				C567.301,132.409,566.987,132.726,566.595,132.726z M566.595,123.301c-0.39,0-0.707-0.316-0.707-0.707v-4.713
				c0-0.39,0.317-0.707,0.707-0.707c0.392,0,0.706,0.316,0.706,0.707v4.713C567.301,122.985,566.987,123.301,566.595,123.301z"/>
		</g>
		<g>
			<path fill="#424141" d="M566.595,148.983h-2.118c-0.39,0-0.705-0.316-0.705-0.707s0.315-0.707,0.705-0.707h1.411v-1.413
				c0-0.39,0.317-0.706,0.707-0.706c0.392,0,0.706,0.316,0.706,0.706v2.119C567.301,148.665,566.987,148.983,566.595,148.983z"/>
		</g>
		<g>
			<path fill="#424141" d="M560.458,148.983h-4.017c-0.39,0-0.707-0.316-0.707-0.707s0.317-0.707,0.707-0.707h4.017
				c0.392,0,0.706,0.316,0.706,0.707C561.165,148.665,560.85,148.983,560.458,148.983z M552.423,148.983h-4.02
				c-0.389,0-0.706-0.316-0.706-0.707s0.317-0.707,0.706-0.707h4.02c0.39,0,0.704,0.316,0.704,0.707
				C553.127,148.665,552.813,148.983,552.423,148.983z M544.385,148.983h-4.019c-0.39,0-0.706-0.316-0.706-0.707
				s0.316-0.707,0.706-0.707h4.019c0.39,0,0.707,0.316,0.707,0.707C545.092,148.665,544.775,148.983,544.385,148.983z
				 M536.348,148.983h-4.019c-0.39,0-0.706-0.316-0.706-0.707s0.316-0.707,0.706-0.707h4.019c0.388,0,0.707,0.316,0.707,0.707
				C537.055,148.665,536.738,148.983,536.348,148.983z M528.313,148.983h-4.019c-0.39,0-0.707-0.316-0.707-0.707
				s0.317-0.707,0.707-0.707h4.019c0.39,0,0.705,0.316,0.705,0.707C529.018,148.665,528.703,148.983,528.313,148.983z
				 M520.276,148.983h-4.019c-0.39,0-0.707-0.316-0.707-0.707s0.317-0.707,0.707-0.707h4.019c0.39,0,0.705,0.316,0.705,0.707
				C520.981,148.665,520.666,148.983,520.276,148.983z"/>
		</g>
		<g>
			<path fill="#424141" d="M512.239,148.983h-2.118c-0.39,0-0.707-0.316-0.707-0.707v-2.119c0-0.39,0.317-0.706,0.707-0.706
				s0.707,0.316,0.707,0.706v1.413h1.411c0.39,0,0.707,0.316,0.707,0.707C512.946,148.665,512.628,148.983,512.239,148.983z"/>
		</g>
		<g>
			<path fill="#424141" d="M510.121,142.151c-0.39,0-0.707-0.315-0.707-0.706v-4.712c0-0.391,0.317-0.707,0.707-0.707
				s0.707,0.316,0.707,0.707v4.712C510.828,141.835,510.51,142.151,510.121,142.151z M510.121,132.726
				c-0.39,0-0.707-0.316-0.707-0.707v-4.713c0-0.39,0.317-0.707,0.707-0.707s0.707,0.317,0.707,0.707v4.713
				C510.828,132.409,510.51,132.726,510.121,132.726z M510.121,123.301c-0.39,0-0.707-0.316-0.707-0.707v-4.713
				c0-0.39,0.317-0.707,0.707-0.707s0.707,0.316,0.707,0.707v4.713C510.828,122.985,510.51,123.301,510.121,123.301z"/>
		</g>
		<g>
			<path fill="#424141" d="M510.121,113.876c-0.39,0-0.707-0.316-0.707-0.707v-2.119c0-0.391,0.317-0.707,0.707-0.707h2.118
				c0.39,0,0.707,0.316,0.707,0.707c0,0.39-0.317,0.707-0.707,0.707h-1.411v1.413C510.828,113.56,510.51,113.876,510.121,113.876z"
				/>
		</g>
	</g>
	<path fill="#424141" d="M551.617,111.757h-4.019c-0.39,0-0.707-0.316-0.707-0.707s0.317-0.707,0.707-0.707h4.019
		c0.39,0,0.707,0.316,0.707,0.707S552.006,111.757,551.617,111.757z"/>
	<path fill="#424141" d="M520.276,111.757h-4.019c-0.39,0-0.707-0.316-0.707-0.707s0.317-0.707,0.707-0.707h4.019
		c0.39,0,0.705,0.316,0.705,0.707S520.666,111.757,520.276,111.757z"/>
	<path d="M528.365,111.757h-4.019c-0.39,0-0.706-0.316-0.706-0.707s0.316-0.707,0.706-0.707h4.019c0.39,0,0.705,0.316,0.705,0.707
		S528.754,111.757,528.365,111.757z"/>
	<g>
		<circle fill="#ED1E79" cx="534.413" cy="119.084" r="18.394"/>
		<g>
			<path fill="#FFFFFF" d="M527.574,115.197c0,0.935-0.564,1.401-1.691,1.401c-1.13,0-1.693-0.466-1.693-1.401v-0.852h0.7v0.891
				c0,0.242,0.083,0.427,0.251,0.561c0.166,0.133,0.415,0.2,0.74,0.2c0.327,0,0.574-0.066,0.741-0.2
				c0.166-0.134,0.249-0.315,0.249-0.545s-0.024-0.415-0.074-0.551s-0.153-0.282-0.305-0.436l-1.762-1.722
				c-0.207-0.207-0.351-0.409-0.427-0.605c-0.077-0.198-0.114-0.445-0.114-0.746c0-0.447,0.139-0.792,0.417-1.037
				c0.275-0.244,0.693-0.365,1.258-0.365c1.073,0,1.61,0.467,1.61,1.402v0.851h-0.701v-0.89c0-0.24-0.078-0.428-0.233-0.562
				c-0.158-0.132-0.395-0.199-0.707-0.199c-0.313,0-0.55,0.066-0.707,0.199c-0.155,0.134-0.234,0.318-0.234,0.551
				c0,0.233,0.023,0.418,0.068,0.55c0.048,0.134,0.151,0.273,0.312,0.421l1.793,1.722c0.192,0.214,0.325,0.418,0.399,0.617
				C527.536,114.647,527.574,114.896,527.574,115.197z"/>
			<path fill="#FFFFFF" d="M531.98,109.939v0.6h-1.304v5.908h-0.699v-5.908h-1.303v-0.6H531.98z"/>
			<path fill="#FFFFFF" d="M533.751,109.939h1.051l1.472,6.508h-0.7l-0.34-1.502h-1.913l-0.34,1.502h-0.701L533.751,109.939z
				 M534.272,110.72l-0.821,3.625h1.642L534.272,110.72z"/>
			<path fill="#FFFFFF" d="M538.375,116.447h-0.7v-6.508h1.513c0.52,0,0.914,0.124,1.186,0.37c0.271,0.248,0.406,0.591,0.406,1.031
				v1.402c0,0.681-0.295,1.115-0.881,1.302l1.23,2.404h-0.771l-1.171-2.302h-0.812V116.447z M540.079,112.742v-1.402
				c0-0.253-0.076-0.451-0.229-0.591c-0.155-0.14-0.375-0.21-0.661-0.21h-0.811v3.004h0.811
				C539.781,113.544,540.079,113.277,540.079,112.742z"/>
			<path fill="#FFFFFF" d="M545.134,109.939v0.6h-1.302v5.908h-0.701v-5.908h-1.301v-0.6H545.134z"/>
			<path fill="#FFFFFF" d="M526.543,127.428h-0.703v-6.508h0.703v2.904h1.971v-2.904h0.7v6.508h-0.7v-3.004h-1.971V127.428z"/>
			<path fill="#FFFFFF" d="M534.17,127.428h-2.951v-6.508h2.852v0.601h-2.151v2.303h1.751v0.6h-1.751v2.404h2.251V127.428z"/>
			<path fill="#FFFFFF" d="M536.375,127.428h-0.703v-6.508h1.514c0.52,0,0.916,0.125,1.186,0.37
				c0.271,0.248,0.406,0.592,0.406,1.032v1.401c0,0.682-0.293,1.116-0.881,1.303l1.23,2.403h-0.771l-1.171-2.303h-0.811V127.428z
				 M538.077,123.724v-1.401c0-0.254-0.076-0.451-0.229-0.592c-0.155-0.14-0.375-0.209-0.661-0.209h-0.812v3.004h0.812
				C537.779,124.526,538.077,124.258,538.077,123.724z"/>
			<path fill="#FFFFFF" d="M543.482,127.428h-2.953v-6.508h2.854v0.601h-2.151v2.303h1.752v0.6h-1.752v2.404h2.251V127.428z"/>
		</g>
	</g>
	<g>
		<g>
			<path fill="#424141" d="M559.155,144.939l-6.19-6.19c-0.191-0.19-0.461-0.272-0.726-0.231c-0.266,0.045-0.489,0.215-0.609,0.456
				l-1.776,3.665l-2.452-7.123c-0.008-0.029-0.017-0.053-0.028-0.079l-1.983-5.773l12.978,4.465l-3.662,1.776
				c-0.244,0.116-0.412,0.344-0.456,0.608c-0.048,0.265,0.044,0.534,0.229,0.725l6.194,6.19L559.155,144.939z"/>
			<path fill="#424141" d="M559.741,146.7c-0.078,0.08-0.17,0.141-0.269,0.178C559.571,146.836,559.663,146.774,559.741,146.7z"/>
		</g>
	</g>
</g>
<rect x="493.52" y="93.848" fill="#6196FF" width="89.135" height="1.061"/>
<circle fill="#FFFFFF" cx="750.232" cy="138.039" r="81.406"/>
<g>
	<g>
		<path fill="#333333" d="M735.429,159.383c0,0,0.979,1.187,2.51,1.187c1.063,0,1.92-0.69,1.92-1.725c0-2.4-4.788-1.918-4.788-4.925
			c0-1.352,1.173-2.483,2.966-2.483c0.938,0,2.622,0.4,2.622,1.67v0.69h-0.91v-0.456c0-0.579-0.8-1.008-1.697-1.008
			c-1.256,0-1.985,0.731-1.985,1.56c0,2.249,4.787,1.696,4.787,4.896c0,1.449-1.119,2.677-2.94,2.677
			c-1.985,0-3.076-1.379-3.076-1.379L735.429,159.383z"/>
		<path fill="#333333" d="M746.271,157.024h0.388v-0.083c0-1.448-0.524-1.959-1.793-1.959c-0.347,0-1.354,0.097-1.354,0.606v0.441
			h-0.896v-0.662c0-0.966,1.654-1.172,2.262-1.172c2.194,0,2.719,1.172,2.719,2.662v3.324c0,0.208,0.109,0.304,0.303,0.304h0.578
			v0.813h-0.949c-0.593,0-0.827-0.262-0.827-0.827c0-0.303,0.013-0.511,0.013-0.511h-0.027c0.015,0-0.565,1.504-2.303,1.504
			c-1.16,0-2.36-0.676-2.36-2.055C742.022,157.106,745.071,157.024,746.271,157.024z M744.534,160.666
			c1.325,0,2.125-1.379,2.125-2.579v-0.318h-0.4c-1.088,0-3.271,0.028-3.271,1.587C742.988,160.004,743.5,160.666,744.534,160.666z"
			/>
		<path fill="#333333" d="M749.402,155.493c-0.095-0.249-0.233-0.317-0.482-0.317h-0.122v-0.814h0.373
			c0.663,0,0.868,0.138,1.104,0.759l1.668,4.331c0.125,0.346,0.234,0.814,0.234,0.814h0.027c0,0,0.109-0.469,0.236-0.814
			l1.668-4.331c0.234-0.621,0.441-0.759,1.088-0.759h0.361v0.814h-0.125c-0.248,0-0.399,0.068-0.482,0.317l-2.264,5.807h-1.02
			L749.402,155.493z"/>
		<path fill="#333333" d="M759.584,154.196c1.917,0,2.91,1.476,2.91,3.2c0,0.166-0.027,0.47-0.027,0.47h-5.326
			c0.029,1.751,1.256,2.758,2.69,2.758c1.271,0,2.083-0.854,2.083-0.854l0.456,0.703c0,0-1.008,0.993-2.581,0.993
			c-2.056,0-3.627-1.49-3.627-3.628C756.163,155.561,757.721,154.196,759.584,154.196z M761.529,157.121
			c-0.056-1.436-0.938-2.139-1.959-2.139c-1.146,0-2.15,0.744-2.387,2.139H761.529z"/>
		<path fill="#333333" d="M765.28,160.17l-1.005,2.469h-0.787l0.787-2.469H765.28z"/>
		<path fill="#333333" d="M738.277,167.312h-0.897v-0.854h5.546c0.596,0,0.844,0.248,0.844,0.841v0.966h-0.912v-0.648
			c0-0.207-0.109-0.304-0.3-0.304h-3.312v3.531h3.642v0.855h-3.642v3.297c0,0.208,0.11,0.304,0.303,0.304h3.409
			c0.193,0,0.301-0.096,0.301-0.304v-0.648h0.899v0.966c0,0.594-0.249,0.842-0.841,0.842h-4.195c-0.595,0-0.842-0.248-0.842-0.842
			v-8.001H738.277z"/>
		<path fill="#333333" d="M748.196,169.052c1.684,0,2.264,1.296,2.264,1.296h0.026c0,0-0.026-0.234-0.026-0.524v-2.248
			c0-0.193-0.11-0.304-0.305-0.304h-0.578v-0.813h0.978c0.596,0,0.842,0.248,0.842,0.841v7.739c0,0.207,0.112,0.304,0.305,0.304
			h0.578v0.813h-0.964c-0.578,0-0.826-0.263-0.826-0.772c0-0.262,0.026-0.441,0.026-0.441h-0.026c0,0-0.566,1.38-2.388,1.38
			c-1.861,0-3.021-1.49-3.021-3.642C745.08,170.486,746.375,169.052,748.196,169.052z M750.486,172.68
			c0-1.407-0.717-2.787-2.207-2.787c-1.227,0-2.234,1.034-2.234,2.787c0,1.71,0.897,2.8,2.193,2.8
			C749.396,175.48,750.486,174.652,750.486,172.68z"/>
		<path fill="#333333" d="M753.879,170.335c0-0.193-0.11-0.304-0.303-0.304h-0.58v-0.814h0.979c0.593,0,0.842,0.249,0.842,0.842
			v4.98c0,0.207,0.109,0.304,0.303,0.304h0.58v0.813h-0.98c-0.593,0-0.841-0.248-0.841-0.842V170.335z M753.852,166.459h0.91v1.187
			h-0.91V166.459z"/>
		<path fill="#333333" d="M757.355,170.004h-0.908v-0.787h0.925V167.3h0.922v1.917h1.739v0.787h-1.739v3.531
			c0,1.628,1.036,1.834,1.561,1.834c0.192,0,0.317-0.026,0.317-0.026v0.841c0,0-0.166,0.028-0.4,0.028
			c-0.8,0-2.414-0.262-2.414-2.58v-3.628H757.355z"/>
		<path fill="#333333" d="M762.805,175.025l-1.007,2.47h-0.785l0.785-2.47H762.805z"/>
		<path fill="#333333" d="M728.393,182.168h-0.896v-0.854h4.098c1.725,0,2.993,1.131,2.993,2.925c0,1.807-1.269,2.965-2.993,2.965
			h-2.236v3.808h-0.966V182.168L728.393,182.168z M731.471,186.349c1.282,0,2.124-0.786,2.124-2.11c0-1.312-0.842-2.069-2.112-2.069
			h-2.124v4.18H731.471z"/>
		<path fill="#333333" d="M736.105,185.191c0-0.194-0.109-0.304-0.303-0.304h-0.58v-0.814h0.966c0.578,0,0.842,0.235,0.842,0.786
			v0.47c0,0.289-0.027,0.524-0.027,0.524h0.027c0.331-1.049,1.103-1.849,2.192-1.849c0.192,0,0.373,0.041,0.373,0.041v0.925
			c0,0-0.166-0.028-0.344-0.028c-0.98,0-1.712,0.772-2.015,1.794c-0.139,0.441-0.192,0.91-0.192,1.352v2.924h-0.939V185.191z"/>
		<path fill="#333333" d="M741.168,185.191c0-0.194-0.11-0.304-0.305-0.304h-0.578v-0.814h0.978c0.596,0,0.842,0.248,0.842,0.841
			v4.98c0,0.207,0.112,0.304,0.305,0.304h0.578v0.813h-0.979c-0.592,0-0.841-0.247-0.841-0.841V185.191z M741.139,181.314h0.912
			v1.187h-0.912V181.314z"/>
		<path fill="#333333" d="M744.561,185.191c0-0.194-0.11-0.304-0.303-0.304h-0.58v-0.814h0.966c0.578,0,0.842,0.248,0.842,0.772
			v0.317c0,0.275-0.027,0.496-0.027,0.496h0.027c0.248-0.634,1.131-1.751,2.758-1.751c1.725,0,2.332,0.979,2.332,2.689v3.297
			c0,0.207,0.109,0.304,0.305,0.304h0.578v0.813h-0.98c-0.593,0-0.842-0.247-0.842-0.841v-3.325c0-1.09-0.163-2.055-1.502-2.055
			c-1.188,0-2.207,0.813-2.524,1.959c-0.083,0.289-0.11,0.607-0.11,0.938v3.324h-0.938V185.191L744.561,185.191z"/>
		<path fill="#333333" d="M753.032,184.859h-0.91v-0.786h0.925v-1.917h0.924v1.917h1.739v0.786h-1.739v3.532
			c0,1.628,1.034,1.834,1.559,1.834c0.192,0,0.317-0.027,0.317-0.027v0.842c0,0-0.166,0.027-0.4,0.027
			c-0.8,0-2.414-0.262-2.414-2.58V184.859L753.032,184.859z"/>
		<path fill="#333333" d="M764.329,183.908c2.027,0,3.669,1.545,3.669,3.6c0,2.097-1.642,3.67-3.656,3.67
			c-2.027,0-3.668-1.573-3.668-3.67C760.673,185.453,762.314,183.908,764.329,183.908z M764.341,190.336
			c1.478,0,2.69-1.213,2.69-2.828c0-1.572-1.213-2.744-2.69-2.744c-1.488,0-2.703,1.172-2.703,2.744
			C761.638,189.123,762.853,190.336,764.341,190.336z"/>
		<path fill="#333333" d="M769.749,185.191c0-0.194-0.11-0.304-0.303-0.304h-0.58v-0.814h0.966c0.58,0,0.841,0.235,0.841,0.786v0.47
			c0,0.289-0.026,0.524-0.026,0.524h0.026c0.332-1.049,1.105-1.849,2.195-1.849c0.192,0,0.371,0.041,0.371,0.041v0.925
			c0,0-0.164-0.028-0.345-0.028c-0.979,0-1.709,0.772-2.014,1.794c-0.137,0.441-0.193,0.91-0.193,1.352v2.924h-0.938V185.191z"/>
		<path fill="#333333" d="M732.319,203.951c0,0,0.978,1.186,2.51,1.186c1.063,0,1.919-0.689,1.919-1.724
			c0-2.401-4.787-1.918-4.787-4.926c0-1.352,1.171-2.482,2.965-2.482c0.939,0,2.622,0.399,2.622,1.669v0.69h-0.909v-0.456
			c0-0.579-0.803-1.007-1.698-1.007c-1.256,0-1.987,0.731-1.987,1.56c0,2.248,4.79,1.696,4.79,4.896
			c0,1.449-1.119,2.677-2.941,2.677c-1.987,0-3.075-1.379-3.075-1.379L732.319,203.951z"/>
		<path fill="#333333" d="M739.519,197.287c0-0.192-0.11-0.303-0.303-0.303h-0.581v-0.814h0.98c0.593,0,0.842,0.249,0.842,0.814
			v2.939c0,0.317-0.027,0.565-0.027,0.565h0.027c0.261-0.662,1.186-1.724,2.744-1.724c1.724,0,2.331,0.979,2.331,2.688v3.298
			c0,0.207,0.11,0.304,0.305,0.304h0.578v0.813h-0.978c-0.595,0-0.842-0.248-0.842-0.842v-3.324c0-1.09-0.166-2.055-1.52-2.055
			c-1.171,0-2.192,0.813-2.51,1.972c-0.083,0.275-0.109,0.594-0.109,0.925v3.324h-0.938V197.287L739.519,197.287z"/>
		<path fill="#333333" d="M751.506,201.592h0.388v-0.083c0-1.448-0.524-1.959-1.795-1.959c-0.345,0-1.35,0.098-1.35,0.607v0.441
			h-0.899v-0.662c0-0.966,1.658-1.172,2.263-1.172c2.193,0,2.72,1.172,2.72,2.662v3.324c0,0.207,0.109,0.304,0.303,0.304h0.58v0.813
			h-0.951c-0.593,0-0.827-0.263-0.827-0.827c0-0.304,0.013-0.511,0.013-0.511h-0.027c0.015,0-0.565,1.503-2.305,1.503
			c-1.158,0-2.358-0.675-2.358-2.055C747.257,201.674,750.306,201.592,751.506,201.592z M749.769,205.233
			c1.324,0,2.125-1.379,2.125-2.579v-0.318h-0.4c-1.09,0-3.271,0.028-3.271,1.587C748.223,204.571,748.733,205.233,749.769,205.233z
			"/>
		<path fill="#333333" d="M755.204,200.047c0-0.193-0.11-0.304-0.303-0.304h-0.58v-0.814h0.966c0.578,0,0.841,0.235,0.841,0.787
			v0.469c0,0.289-0.026,0.524-0.026,0.524h0.026c0.332-1.049,1.103-1.849,2.193-1.849c0.192,0,0.373,0.042,0.373,0.042v0.924
			c0,0-0.166-0.027-0.345-0.027c-0.979,0-1.712,0.771-2.014,1.793c-0.14,0.441-0.193,0.91-0.193,1.352v2.925h-0.938V200.047z"/>
		<path fill="#333333" d="M762.694,198.764c1.919,0,2.911,1.476,2.911,3.199c0,0.166-0.026,0.47-0.026,0.47h-5.326
			c0.026,1.751,1.256,2.759,2.689,2.759c1.269,0,2.083-0.855,2.083-0.855l0.456,0.704c0,0-1.007,0.992-2.58,0.992
			c-2.056,0-3.627-1.49-3.627-3.628C759.274,200.129,760.833,198.764,762.694,198.764z M764.64,201.688
			c-0.057-1.436-0.939-2.139-1.959-2.139c-1.146,0-2.153,0.745-2.388,2.139H764.64z"/>
		<path fill="#333333" d="M767.232,204.763h1.063v1.104h-1.063V204.763z"/>
	</g>
</g>
<g>
	<path fill="#6196FF" d="M742.194,79.698l9.447-13.519h3.388v12.865h3.269V81.6h-3.269v5.555h-2.972V81.6h-9.865v-1.902H742.194z
		 M752.086,71.824c0-0.951,0.12-2.14,0.12-2.14h-0.061c0,0-0.534,1.01-1.069,1.753l-4.576,6.298
		c-0.534,0.743-1.098,1.338-1.098,1.338v0.059c0,0,0.862-0.089,1.782-0.089h4.901V71.824z"/>
</g>
<rect x="705.747" y="93.848" fill="#6196FF" width="89.136" height="1.061"/>
<path fill="#20FFA8" d="M759.876,127.308c-1.396,0-2.669,0.537-3.629,1.409l-10.329-5.268c0.039-0.268,0.068-0.541,0.068-0.822
	c0-0.159-0.011-0.313-0.022-0.469l10.427-5.316c0.94,0.796,2.155,1.278,3.488,1.278c2.982,0,5.402-2.419,5.402-5.404
	c0-2.983-2.42-5.404-5.402-5.404c-2.987,0-5.405,2.42-5.405,5.404c0,0.165,0.01,0.328,0.024,0.487l-10.416,5.312
	c-0.941-0.805-2.162-1.293-3.499-1.293c-2.984,0-5.405,2.419-5.405,5.404c0,2.984,2.419,5.403,5.405,5.403
	c1.202,0,2.312-0.398,3.207-1.063l10.698,5.454c-0.005,0.098-0.017,0.192-0.017,0.289c0,2.983,2.418,5.404,5.402,5.404
	c2.987,0,5.403-2.42,5.403-5.404C765.282,129.728,762.862,127.308,759.876,127.308z"/>
<circle fill="#FFFFFF" cx="326.483" cy="138.039" r="81.406"/>
<g>
	<g>
		<path fill="#333333" d="M306.248,111.7c1.379,0,3.628,0.594,3.628,2.056v0.8h-0.911v-0.538c0-0.911-1.572-1.407-2.69-1.407
			c-2.152,0-3.807,1.683-3.807,4.028c0,2.318,1.641,4.18,3.849,4.18c2,0,3.172-1.366,3.172-1.366l0.552,0.704
			c0,0-1.338,1.572-3.738,1.572c-2.841,0-4.842-2.262-4.842-5.09C301.461,113.839,303.516,111.7,306.248,111.7z"/>
		<path fill="#333333" d="M311.697,112.983c0-0.193-0.11-0.303-0.303-0.303h-0.58v-0.814h0.98c0.593,0,0.841,0.249,0.841,0.841
			v7.739c0,0.208,0.11,0.304,0.304,0.304h0.58v0.814h-0.98c-0.593,0-0.841-0.249-0.841-0.841V112.983z"/>
		<path fill="#333333" d="M315.159,115.742c0-0.193-0.11-0.304-0.304-0.304h-0.579v-0.813h0.979c0.594,0,0.842,0.248,0.842,0.842
			v4.979c0,0.208,0.11,0.304,0.304,0.304h0.579v0.814H316c-0.593,0-0.841-0.249-0.841-0.841V115.742z M315.132,111.866h0.91v1.187
			h-0.91V111.866z"/>
		<path fill="#333333" d="M321.56,114.46c0.787,0,2.47,0.331,2.47,1.476v0.621h-0.883v-0.4c0-0.579-1.007-0.855-1.587-0.855
			c-1.489,0-2.689,1.117-2.689,2.8c0,1.71,1.255,2.773,2.718,2.773c1.42,0,2.234-0.979,2.234-0.979l0.441,0.704
			c0,0-0.938,1.131-2.717,1.131c-2.069,0-3.642-1.476-3.642-3.628C317.903,115.977,319.491,114.46,321.56,114.46z"/>
		<path fill="#333333" d="M325.752,112.983c0-0.193-0.11-0.303-0.304-0.303h-0.579v-0.814h0.979c0.593,0,0.842,0.207,0.842,0.8
			v4.608h0.717c0.262,0,0.593-0.083,0.787-0.332l1.779-2.317h1.145l-2,2.538c-0.344,0.428-0.524,0.496-0.524,0.496v0.028
			c0,0,0.207,0.096,0.428,0.51l1.255,2.249c0.125,0.235,0.262,0.304,0.635,0.304h0.372v0.814h-0.648c-0.689,0-0.883-0.111-1.2-0.69
			l-1.38-2.483c-0.152-0.276-0.482-0.304-0.731-0.304h-0.634v3.477h-0.938V112.983z"/>
		<path fill="#333333" d="M339.423,114.46c2.027,0,3.669,1.545,3.669,3.6c0,2.097-1.642,3.669-3.656,3.669
			c-2.028,0-3.669-1.572-3.669-3.669C335.767,116.005,337.408,114.46,339.423,114.46z M339.436,120.887
			c1.476,0,2.69-1.213,2.69-2.828c0-1.572-1.214-2.745-2.69-2.745c-1.49,0-2.704,1.173-2.704,2.745
			C336.733,119.674,337.947,120.887,339.436,120.887z"/>
		<path fill="#333333" d="M344.844,115.742c0-0.193-0.11-0.304-0.304-0.304h-0.58v-0.813h0.965c0.58,0,0.842,0.248,0.842,0.772
			v0.317c0,0.275-0.028,0.496-0.028,0.496h0.028c0.249-0.634,1.131-1.751,2.759-1.751c1.725,0,2.332,0.979,2.332,2.69v3.296
			c0,0.208,0.11,0.304,0.303,0.304h0.58v0.814h-0.979c-0.593,0-0.841-0.249-0.841-0.841v-3.326c0-1.089-0.166-2.055-1.504-2.055
			c-1.186,0-2.207,0.813-2.524,1.958c-0.083,0.29-0.11,0.607-0.11,0.938v3.325h-0.938V115.742z"/>
	</g>
</g>
<g>
	<rect x="281.293" y="133.11" fill="#FFF93F" width="91.258" height="49.874"/>
	<g>
		<path fill="#424141" d="M298.966,152.229c-0.341-0.258-0.62-0.581-0.837-0.969c-0.218-0.388-0.388-0.798-0.511-1.233
			c-0.123-0.433-0.206-0.884-0.247-1.347c-0.041-0.465-0.055-0.908-0.044-1.33c0.106-0.316,0.235-0.608,0.388-0.872
			c0.153-0.265,0.322-0.518,0.51-0.758c0.188-0.241,0.384-0.469,0.59-0.687c0.205-0.218,0.407-0.438,0.607-0.661
			c0.07,0,0.135,0.019,0.194,0.054c0.047-0.13,0.117-0.241,0.211-0.335c0.094-0.093,0.194-0.178,0.3-0.256
			c0.106-0.075,0.211-0.152,0.317-0.229c0.106-0.076,0.194-0.167,0.264-0.272c0.293-0.07,0.556-0.17,0.785-0.299
			c0.229-0.13,0.449-0.27,0.661-0.422c0.211-0.153,0.428-0.293,0.651-0.423c0.223-0.13,0.482-0.229,0.774-0.3
			c0.106-0.116,0.238-0.218,0.397-0.298c0.158-0.082,0.317-0.159,0.476-0.23c0.158-0.07,0.311-0.146,0.458-0.229
			c0.146-0.082,0.267-0.194,0.361-0.334c0.07,0.094,0.169,0.125,0.299,0.097c0.129-0.029,0.247-0.062,0.353-0.097
			c0.07-0.013,0.129,0,0.176,0.034c0.047,0.035,0.09,0.073,0.133,0.115c0.042,0.041,0.077,0.067,0.106,0.079
			c0.029,0.012,0.062-0.023,0.097-0.106c0.094,0.013,0.12,0.054,0.08,0.123c-0.042,0.07-0.068,0.118-0.08,0.142
			c0.117-0.023,0.214-0.002,0.291,0.062c0.076,0.064,0.196,0.109,0.361,0.133c0.059,0.06,0.076,0.105,0.053,0.141
			c-0.023,0.036-0.042,0.095-0.053,0.177c0.422,0.13,0.692,0.331,0.811,0.608c0.117,0.275,0.129,0.562,0.035,0.862
			c-0.095,0.299-0.268,0.575-0.52,0.827c-0.253,0.253-0.532,0.42-0.837,0.502c-0.364,0.095-0.702,0.188-1.013,0.283
			c-0.311,0.094-0.611,0.198-0.899,0.316c-0.288,0.117-0.558,0.257-0.811,0.414c-0.253,0.158-0.474,0.344-0.661,0.556
			c-0.329,0.094-0.625,0.223-0.89,0.386c-0.264,0.165-0.51,0.348-0.739,0.548c-0.229,0.198-0.449,0.408-0.661,0.625
			c-0.211,0.217-0.422,0.432-0.635,0.644c0,0.198-0.035,0.351-0.105,0.458c-0.072,0.105-0.148,0.211-0.23,0.316
			c0.023,0.223,0.074,0.414,0.15,0.573c0.077,0.158,0.155,0.32,0.238,0.485c0.939,0.281,1.934,0.454,2.986,0.52
			c1.05,0.064,2.094,0.103,3.127,0.114c0.106,0.142,0.227,0.273,0.361,0.396c0.135,0.124,0.257,0.25,0.37,0.38
			c0.111,0.13,0.199,0.278,0.264,0.448c0.065,0.171,0.08,0.373,0.044,0.608c-0.199,0.199-0.417,0.391-0.651,0.573
			c-0.235,0.183-0.47,0.36-0.705,0.537c-0.106,0.011-0.232,0.011-0.378,0c-0.148-0.012-0.3-0.019-0.459-0.019
			c-0.159,0-0.317,0.009-0.475,0.026s-0.309,0.057-0.449,0.115c-0.739-0.023-1.497-0.115-2.273-0.273
			c-0.775-0.157-1.492-0.349-2.148-0.572c-0.13-0.153-0.265-0.296-0.405-0.432C299.39,152.385,299.201,152.289,298.966,152.229z"/>
		<path fill="#424141" d="M308.621,153.163c-0.035,0.013-0.06,0-0.07-0.035c-0.012-0.034-0.015-0.069-0.008-0.105
			c0.005-0.035,0.023-0.064,0.053-0.088c0.028-0.023,0.066-0.023,0.114,0c-0.153-0.188-0.249-0.357-0.291-0.51
			c-0.042-0.153-0.12-0.341-0.238-0.564c0.035-0.035,0.06-0.085,0.07-0.149c0.012-0.064,0.027-0.126,0.044-0.185
			c0.018-0.059,0.042-0.103,0.071-0.133c0.028-0.028,0.067-0.02,0.114,0.026c-0.023-0.129-0.023-0.234,0-0.316s0.05-0.159,0.08-0.23
			c0.029-0.069,0.05-0.141,0.062-0.21c0.012-0.07-0.006-0.153-0.053-0.247c0.223-0.306,0.37-0.636,0.44-0.994
			c0.07-0.359,0.111-0.686,0.123-0.979c0.106-0.105,0.196-0.246,0.273-0.422c0.076-0.176,0.133-0.357,0.167-0.546
			c0.035-0.188,0.053-0.373,0.053-0.556c0-0.182-0.023-0.325-0.07-0.433c0.012-0.046,0.038-0.072,0.08-0.079
			c0.042-0.006,0.09-0.002,0.15,0.009c0.082-0.469,0.138-0.992,0.167-1.568c0.029-0.575,0.088-1.13,0.176-1.664
			c0.088-0.535,0.231-1.005,0.432-1.41c0.2-0.406,0.517-0.666,0.951-0.784c0.082,0.294,0.191,0.553,0.326,0.774
			c0.135,0.223,0.282,0.44,0.44,0.651c0.158,0.212,0.319,0.423,0.485,0.636c0.165,0.21,0.317,0.446,0.458,0.703
			c-0.011,0.271-0.038,0.583-0.079,0.935c-0.042,0.353-0.095,0.711-0.158,1.075c-0.064,0.363-0.129,0.716-0.194,1.057
			c-0.064,0.34-0.126,0.628-0.185,0.862c0.012,0.061,0.053,0.097,0.123,0.115c0.07,0.018,0.082,0.086,0.035,0.202
			c0.341-0.081,0.696-0.161,1.066-0.237c0.37-0.077,0.733-0.152,1.092-0.229c0.357-0.076,0.71-0.168,1.057-0.272
			c0.345-0.106,0.671-0.235,0.977-0.388c0.07-0.563,0.158-1.121,0.264-1.673c0.106-0.552,0.117-1.11,0.035-1.674
			c0.07-0.059,0.129-0.13,0.176-0.211c0.047-0.081,0.117-0.136,0.211-0.158c-0.07-0.27-0.1-0.556-0.088-0.854
			c0.011-0.3,0.062-0.578,0.149-0.838c0.088-0.258,0.221-0.484,0.397-0.679c0.176-0.192,0.393-0.319,0.651-0.378
			c0.153,0.223,0.288,0.464,0.405,0.723c0.117,0.259,0.234,0.52,0.352,0.784c0.117,0.264,0.243,0.513,0.379,0.749
			c0.135,0.235,0.309,0.436,0.52,0.598c0.035,0.413,0.065,0.831,0.088,1.261c0.023,0.429,0.042,0.872,0.053,1.329
			c-0.106,0.528-0.226,1.041-0.361,1.542c-0.135,0.499-0.232,1.03-0.291,1.594c-0.094,0.105-0.171,0.232-0.229,0.378
			c-0.06,0.148-0.115,0.295-0.168,0.44c-0.053,0.148-0.114,0.292-0.185,0.433s-0.158,0.259-0.264,0.353
			c0.047,0.164,0.055,0.319,0.026,0.467c-0.029,0.147,0.008,0.32,0.115,0.52c0.023,0.364-0.021,0.666-0.133,0.907
			s-0.264,0.447-0.458,0.617c-0.194,0.171-0.417,0.306-0.669,0.405c-0.252,0.099-0.502,0.19-0.749,0.272
			c-0.118-0.069-0.226-0.144-0.326-0.221c-0.099-0.077-0.221-0.133-0.36-0.168l0.088-0.158c-0.235-0.233-0.438-0.484-0.608-0.749
			c-0.171-0.264-0.25-0.566-0.238-0.907c0-0.012,0.012-0.091,0.035-0.237c0.023-0.146,0.05-0.303,0.08-0.468
			c0.028-0.164,0.059-0.319,0.088-0.466c0.029-0.146,0.045-0.227,0.045-0.238c-0.329,0.035-0.669,0.111-1.022,0.229
			c-0.353,0.117-0.696,0.249-1.031,0.397c-0.334,0.146-0.646,0.298-0.934,0.458c-0.288,0.158-0.52,0.291-0.696,0.396
			c0,0.035-0.029,0.135-0.088,0.3c-0.059,0.163-0.129,0.337-0.211,0.52c-0.083,0.183-0.174,0.344-0.272,0.484
			c-0.1,0.142-0.203,0.206-0.309,0.194c0.023,0.06,0.047,0.103,0.07,0.133c0.023,0.03,0.023,0.086,0,0.168
			c-0.199,0.06-0.378,0.135-0.537,0.229c-0.159,0.094-0.321,0.173-0.485,0.237c-0.165,0.064-0.344,0.093-0.537,0.088
			c-0.194-0.007-0.426-0.08-0.696-0.221c0-0.082-0.035-0.154-0.106-0.221c-0.07-0.064-0.145-0.119-0.221-0.168
			c-0.076-0.047-0.145-0.088-0.203-0.122C308.649,153.233,308.621,153.198,308.621,153.163z"/>
		<path fill="#424141" d="M320.441,152.089l0.229-0.177l0.019-0.369c0.292-0.718,0.596-1.403,0.907-2.062
			c0.311-0.658,0.637-1.333,0.977-2.025c0.106-0.224,0.214-0.446,0.326-0.67c0.112-0.223,0.221-0.452,0.326-0.687
			c-0.012-0.047-0.018-0.097-0.018-0.149s0.011-0.115,0.035-0.185c0.164-0.234,0.296-0.445,0.397-0.635
			c0.099-0.188,0.196-0.381,0.291-0.582c0.105-0.234,0.221-0.469,0.343-0.705c0.124-0.233,0.279-0.463,0.467-0.686l0.123-0.176
			l0.194,0.018c0.047-0.023,0.096-0.045,0.149-0.062s0.12-0.027,0.203-0.027l0.317,0.055c0.388-0.177,0.731-0.433,1.031-0.768
			c0.299-0.333,0.602-0.735,0.907-1.206l0.211-0.299l0.282,0.176c0.059,0.035,0.153,0.07,0.282,0.106
			c0.129,0.034,0.264,0.076,0.405,0.122c0.246,0.061,0.487,0.127,0.723,0.203c0.234,0.077,0.417,0.18,0.546,0.31l0.088,0.158
			c0.024,0.129,0.044,0.245,0.062,0.352s0.039,0.211,0.062,0.317c0.046,0.246,0.088,0.49,0.123,0.731
			c0.035,0.241,0.058,0.509,0.07,0.801c0.059,0.236,0.115,0.474,0.167,0.713c0.054,0.241,0.103,0.479,0.15,0.714
			c0.059,0.34,0.123,0.666,0.194,0.978c0.07,0.311,0.164,0.607,0.282,0.889c0.117,0,0.188,0.007,0.211,0.018
			c0.142-0.058,0.306-0.093,0.494-0.105l0.229-0.019l0.07,0.211c0.023,0.035,0.053,0.07,0.088,0.107
			c0.035,0.035,0.077,0.069,0.123,0.105c0.188,0.012,0.326,0.05,0.414,0.115c0.088,0.063,0.162,0.125,0.221,0.185
			c0.024,0.022,0.054,0.049,0.088,0.079c0.035,0.029,0.064,0.05,0.088,0.062l0.318,0.123l-0.176,0.334
			c-0.129,0.246-0.326,0.487-0.59,0.723s-0.561,0.429-0.889,0.582c0.023,0.083,0.039,0.157,0.045,0.229
			c0.005,0.07,0.02,0.152,0.044,0.247c0.046,0.235,0.085,0.478,0.114,0.73c0.029,0.253,0.026,0.514-0.008,0.784
			c-0.118,0.306-0.256,0.578-0.414,0.819c-0.158,0.241-0.347,0.459-0.563,0.651c-0.218,0.193-0.461,0.353-0.731,0.476
			c-0.271,0.123-0.554,0.19-0.846,0.202c-0.164-0.034-0.286-0.075-0.361-0.122c-0.076-0.047-0.145-0.095-0.202-0.143
			c-0.095-0.069-0.171-0.115-0.23-0.141l-0.229-0.105l0.07-0.265c0.035-0.093,0.032-0.176-0.008-0.246
			c-0.042-0.069-0.126-0.164-0.256-0.282c-0.046-0.035-0.088-0.073-0.123-0.115c-0.035-0.041-0.077-0.085-0.124-0.133l-0.352-0.404
			l0.582-0.158c0.352-0.094,0.587-0.214,0.705-0.361c0.117-0.146,0.165-0.407,0.141-0.783c-0.294-0.06-0.535-0.067-0.723-0.027
			c-0.188,0.042-0.375,0.086-0.563,0.133c-0.271,0.07-0.536,0.133-0.793,0.185c-0.259,0.053-0.541,0.079-0.846,0.079
			c-0.199,0-0.411-0.018-0.634-0.053l-0.194-0.019l-0.053-0.193c0-0.024-0.015-0.05-0.044-0.08c-0.03-0.028-0.057-0.055-0.08-0.08
			c-0.06-0.069-0.129-0.163-0.211-0.281c-0.083-0.117-0.1-0.265-0.053-0.44c-0.083-0.13-0.129-0.265-0.141-0.405
			c-0.047,0.095-0.086,0.185-0.115,0.272s-0.056,0.174-0.079,0.256l-0.07,0.229l-0.23,0.035c-0.023,0.022-0.044,0.059-0.062,0.105
			c-0.018,0.047-0.021,0.083-0.008,0.106l0.07,0.194l-0.176,0.158c-0.023,0.034-0.053,0.064-0.088,0.088
			c-0.035,0.023-0.064,0.047-0.088,0.069c-0.023,0.13-0.056,0.253-0.097,0.371c-0.041,0.117-0.086,0.235-0.132,0.353
			c-0.06,0.188-0.115,0.37-0.168,0.546c-0.053,0.177-0.079,0.353-0.079,0.528l-0.07,0.229c-0.06,0.094-0.132,0.165-0.221,0.211
			c-0.088,0.047-0.174,0.089-0.256,0.124c-0.118,0.046-0.199,0.094-0.246,0.141l-0.053,0.229l-0.264,0.036
			c-0.153,0.035-0.262,0.058-0.326,0.069c-0.064,0.012-0.138,0.019-0.221,0.019l-0.229-0.019c-0.141-0.142-0.255-0.249-0.343-0.326
			c-0.088-0.076-0.191-0.143-0.309-0.203l-0.106-0.141c-0.047-0.093-0.076-0.178-0.088-0.256c-0.011-0.075-0.028-0.154-0.053-0.237
			c-0.023-0.152-0.059-0.258-0.106-0.317L320.441,152.089z M326.06,147.509c-0.164,0.236-0.324,0.481-0.475,0.739
			c0.082-0.011,0.161-0.018,0.237-0.018c0.077,0,0.155-0.005,0.238-0.019c0.411-0.022,0.793-0.053,1.146-0.088
			c0.352-0.035,0.733-0.094,1.145-0.176c-0.095-0.435-0.198-0.878-0.309-1.33s-0.232-0.906-0.361-1.365l-0.088,0.176
			c-0.294,0.317-0.575,0.658-0.846,1.021c-0.271,0.365-0.493,0.711-0.669,1.04L326.06,147.509z"/>
		<path fill="#424141" d="M334.059,152.248c-0.06,0.012-0.111-0.032-0.158-0.133c-0.047-0.1-0.1-0.196-0.158-0.291h0.194
			c-0.083-0.258-0.103-0.495-0.061-0.713c0.041-0.218,0.09-0.429,0.149-0.635c0.059-0.204,0.108-0.405,0.15-0.599
			s0.02-0.396-0.062-0.607c0.058,0.035,0.103,0.021,0.132-0.045c0.029-0.064,0.054-0.146,0.07-0.246
			c0.019-0.1,0.024-0.205,0.019-0.317c-0.006-0.111-0.015-0.202-0.027-0.272c0.153-0.364,0.273-0.739,0.361-1.127
			s0.168-0.772,0.238-1.153s0.15-0.751,0.238-1.109c0.088-0.359,0.203-0.696,0.344-1.014c0.164-0.024,0.337-0.002,0.52,0.061
			c0.181,0.065,0.303,0.145,0.361,0.237c0.364-0.281,0.687-0.621,0.969-1.021c0.282-0.398,0.567-0.789,0.854-1.171
			c0.288-0.381,0.613-0.719,0.977-1.014c0.364-0.293,0.816-0.469,1.356-0.528c0.282,0.199,0.599,0.414,0.951,0.643
			c0.353,0.23,0.64,0.514,0.863,0.854c0.094,0.06,0.185,0.122,0.273,0.185c0.088,0.064,0.178,0.127,0.272,0.185v0.265
			c0.165,0.153,0.303,0.332,0.414,0.536c0.111,0.207,0.211,0.423,0.299,0.652c0.088,0.229,0.173,0.461,0.256,0.696
			c0.082,0.235,0.176,0.452,0.282,0.65c-0.023,0.071-0.033,0.133-0.027,0.186c0.006,0.053,0.018,0.106,0.035,0.158
			s0.032,0.111,0.044,0.176c0.012,0.065,0.018,0.145,0.018,0.238c-0.046,0.623-0.25,1.124-0.608,1.506
			c-0.359,0.381-0.793,0.692-1.304,0.934c-0.511,0.24-1.055,0.446-1.63,0.616c-0.575,0.171-1.098,0.355-1.568,0.555
			c0,0.047,0.027,0.07,0.08,0.07c0.053,0,0.067,0.035,0.044,0.105c0.353,0.212,0.625,0.383,0.819,0.512s0.375,0.237,0.546,0.325
			c0.17,0.088,0.357,0.161,0.564,0.221c0.205,0.059,0.49,0.13,0.854,0.211c0.364,0.083,0.648,0.149,0.854,0.202
			c0.205,0.054,0.39,0.096,0.555,0.124c0.164,0.029,0.34,0.057,0.528,0.079c0.188,0.024,0.44,0.053,0.757,0.088
			c0.13,0.13,0.235,0.282,0.317,0.458c0.082,0.177,0.142,0.353,0.176,0.529c0.035,0.176,0.044,0.344,0.027,0.502
			c-0.018,0.158-0.068,0.285-0.15,0.379c0.011,0.046,0.044,0.068,0.097,0.062c0.053-0.005,0.108-0.002,0.167,0.009
			c-0.083,0.059-0.153,0.129-0.211,0.211c-0.06,0.083-0.117,0.164-0.176,0.246c-0.06,0.082-0.126,0.158-0.203,0.229
			c-0.076,0.07-0.174,0.112-0.291,0.124c-0.422,0.164-0.963,0.17-1.62,0.019c-0.658-0.153-1.497-0.423-2.519-0.812
			c-0.505-0.188-0.916-0.357-1.233-0.51c-0.317-0.153-0.594-0.303-0.828-0.449c-0.235-0.146-0.452-0.306-0.651-0.476
			c-0.2-0.17-0.429-0.373-0.687-0.608c-0.035,0.012-0.057,0.035-0.062,0.07c-0.006,0.034-0.026,0.06-0.062,0.069
			c-0.059,0.471-0.149,0.853-0.272,1.146c-0.123,0.294-0.302,0.594-0.537,0.898c-0.188-0.034-0.314-0.018-0.379,0.054
			c-0.064,0.069-0.144,0.135-0.237,0.194c-0.118,0.023-0.206,0.02-0.264-0.009c-0.06-0.03-0.111-0.062-0.158-0.097
			c-0.046-0.035-0.1-0.07-0.158-0.106c-0.06-0.035-0.153-0.047-0.283-0.035c-0.035-0.105-0.07-0.207-0.106-0.309
			c-0.035-0.1-0.129-0.144-0.282-0.133c0.035-0.105,0.046-0.196,0.035-0.272c-0.012-0.075-0.03-0.146-0.054-0.21
			c-0.023-0.065-0.044-0.133-0.061-0.203C334.017,152.42,334.023,152.343,334.059,152.248z M339.943,144.196
			c-0.153,0.223-0.324,0.426-0.51,0.608c-0.188,0.183-0.374,0.371-0.555,0.563c-0.183,0.194-0.344,0.405-0.485,0.635
			c-0.142,0.229-0.241,0.502-0.3,0.819c0.494-0.058,1.01-0.196,1.55-0.414c0.541-0.217,1.051-0.425,1.533-0.625
			c-0.06-0.434-0.211-0.783-0.458-1.048S340.212,144.292,339.943,144.196z"/>
		<path fill="#424141" d="M345.069,143.826c-0.012-0.093-0.033-0.178-0.062-0.256c-0.029-0.075-0.062-0.16-0.096-0.256
			c-0.06-0.141-0.111-0.292-0.158-0.458c-0.047-0.165-0.07-0.357-0.07-0.581c0.023-0.117,0.053-0.203,0.088-0.256
			c0.035-0.053,0.07-0.097,0.106-0.133l0.07-0.317h0.264c0.094,0.012,0.191,0.018,0.291,0.018c0.1,0,0.197,0,0.292,0
			c0.445,0,0.903-0.018,1.374-0.053c0.469-0.035,0.951-0.076,1.444-0.123c0.541-0.069,1.122-0.122,1.745-0.157
			c0.059-0.13,0.096-0.212,0.115-0.247c0.018-0.034,0.038-0.075,0.062-0.122l0.194-0.106c0.27-0.012,0.458,0.021,0.563,0.096
			c0.106,0.077,0.188,0.15,0.246,0.221c0.306-0.022,0.617-0.055,0.935-0.096c0.317-0.042,0.645-0.085,0.986-0.133
			c0.469-0.059,0.945-0.117,1.427-0.177c0.482-0.058,0.951-0.088,1.41-0.088c0.199,0,0.387,0.007,0.563,0.019
			s0.346,0.029,0.51,0.053l0.211,0.158c0.047,0.083,0.106,0.158,0.176,0.229c0.07,0.071,0.153,0.143,0.246,0.212
			c0.176,0.141,0.349,0.316,0.52,0.528c0.17,0.211,0.232,0.523,0.185,0.934l-0.088,0.176c-0.047,0.047-0.106,0.095-0.176,0.143
			l-0.176,0.229h-0.194c-0.118,0-0.206,0.009-0.264,0.026c-0.06,0.019-0.129,0.044-0.211,0.079c-0.047,0.024-0.1,0.045-0.158,0.062
			c-0.059,0.019-0.123,0.038-0.194,0.062c-0.13-0.012-0.229-0.019-0.3-0.019c-0.07,0-0.153,0-0.246,0
			c-0.352,0-0.734,0.023-1.145,0.07c-0.412,0.047-0.811,0.1-1.198,0.158c-0.283,0.034-0.553,0.067-0.811,0.097
			c-0.259,0.029-0.493,0.056-0.705,0.08c-0.118,0.306-0.223,0.574-0.317,0.81c-0.095,0.235-0.194,0.471-0.3,0.705
			c-0.105,0.235-0.206,0.474-0.299,0.713c-0.094,0.24-0.183,0.509-0.264,0.801c-0.142,0.212-0.259,0.415-0.353,0.608
			c-0.094,0.194-0.171,0.414-0.229,0.661c-0.176,0.199-0.303,0.417-0.379,0.652c-0.076,0.234-0.145,0.434-0.203,0.598l-0.07,0.264
			c-0.083,0.083-0.132,0.147-0.149,0.194c-0.018,0.048-0.05,0.101-0.097,0.158c-0.035,0.153-0.083,0.3-0.141,0.44
			c-0.024,0.06-0.047,0.121-0.071,0.185c-0.023,0.065-0.029,0.115-0.018,0.15c-0.024,0.129-0.06,0.229-0.106,0.299
			c0,0.07-0.007,0.142-0.018,0.211c-0.012,0.07-0.023,0.141-0.036,0.211c-0.023,0.083-0.041,0.156-0.053,0.222
			c-0.011,0.063-0.006,0.126,0.018,0.184c0.035,0.047,0.07,0.095,0.106,0.142c0.035,0.046,0.064,0.106,0.088,0.176
			c0.023,0.024,0.053,0.042,0.088,0.053c0.035,0.013,0.064,0.03,0.088,0.054c0.093,0.083,0.181,0.13,0.264,0.142l0.176,0.211
			c0.07,0.422,0.005,0.752-0.194,0.986c-0.211,0.27-0.563,0.405-1.057,0.405l-0.246-0.018c-0.083-0.083-0.129-0.135-0.141-0.158
			c-0.106-0.047-0.194-0.086-0.265-0.114c-0.07-0.03-0.134-0.085-0.193-0.168c-0.023-0.023-0.054-0.038-0.088-0.044
			c-0.035-0.006-0.064-0.021-0.088-0.045c-0.118-0.035-0.211-0.077-0.282-0.123l-0.194-0.107c0.012-0.115,0.018-0.198,0.018-0.245
			c-0.094-0.13-0.168-0.27-0.221-0.423c-0.053-0.152-0.097-0.311-0.133-0.475c-0.035-0.13-0.068-0.247-0.096-0.353
			c-0.03-0.106-0.074-0.2-0.133-0.282c-0.024-0.821,0.053-1.513,0.229-2.071c0.176-0.556,0.371-1.101,0.582-1.629
			c0.116-0.282,0.229-0.569,0.334-0.863c0.106-0.293,0.2-0.593,0.282-0.898l0.194-0.194c0.082-0.069,0.135-0.111,0.158-0.122
			c0-0.153,0.028-0.303,0.088-0.45c0.059-0.146,0.124-0.295,0.194-0.448c0.047-0.094,0.09-0.188,0.133-0.282
			c0.042-0.093,0.067-0.176,0.079-0.247c-0.082,0-0.156,0.004-0.221,0.009c-0.064,0.007-0.132,0.016-0.203,0.027
			c-0.153,0.035-0.299,0.053-0.44,0.053c-0.106,0-0.182-0.006-0.229-0.018c-0.094,0.046-0.182,0.073-0.264,0.079
			c-0.083,0.007-0.164,0.009-0.246,0.009h-0.211h-0.211c-0.141,0-0.253,0.018-0.334,0.053c-0.165,0-0.271,0-0.318,0
			c-0.046,0-0.099,0-0.158,0h-0.211h-0.211c-0.094,0-0.2-0.009-0.317-0.027c-0.118-0.018-0.241-0.061-0.371-0.132l-0.124-0.142
			c-0.07-0.129-0.135-0.199-0.194-0.21l-0.194-0.054L345.069,143.826L345.069,143.826z"/>
		<path fill="#424141" d="M289.039,165.186c-0.493-0.199-0.901-0.482-1.224-0.846c-0.323-0.364-0.583-0.793-0.784-1.286
			c0.118-0.317,0.305-0.584,0.563-0.801c0.258-0.218,0.548-0.402,0.872-0.556c0.323-0.152,0.667-0.276,1.03-0.37
			c0.364-0.094,0.716-0.176,1.057-0.247c0.07,0.024,0.106,0.024,0.106,0c0-0.022,0.029-0.011,0.088,0.035
			c0.422-0.129,0.909-0.256,1.462-0.378c0.552-0.123,1.139-0.168,1.762-0.133c0.082-0.047,0.182-0.073,0.299-0.079
			c0.116-0.006,0.241-0.009,0.37-0.009c0.13,0,0.252-0.002,0.371-0.009c0.117-0.006,0.217-0.026,0.299-0.062
			c0.07,0.083,0.176,0.133,0.317,0.149c0.141,0.018,0.288,0.079,0.44,0.186c0.047,0.011,0.047-0.01,0-0.062s-0.041-0.09,0.018-0.114
			c0.153,0,0.288,0.034,0.406,0.106c0.116,0.07,0.226,0.148,0.325,0.237c0.1,0.088,0.194,0.167,0.282,0.238
			c0.088,0.069,0.185,0.105,0.291,0.105c0.106,0.129,0.231,0.25,0.378,0.36c0.147,0.112,0.288,0.226,0.422,0.344
			c0.135,0.118,0.247,0.247,0.335,0.388c0.088,0.142,0.132,0.3,0.132,0.476c-0.012,0.069,0.012,0.111,0.07,0.123
			c0.058,0.012,0.099,0.046,0.123,0.106c0.012,0.436-0.056,0.811-0.203,1.126c-0.147,0.317-0.332,0.608-0.555,0.873
			c-0.223,0.264-0.462,0.514-0.713,0.749c-0.253,0.235-0.485,0.487-0.697,0.758c0.142,0.176,0.303,0.338,0.485,0.484
			c0.181,0.147,0.367,0.291,0.555,0.433c0.188,0.141,0.367,0.29,0.537,0.448c0.169,0.159,0.314,0.338,0.432,0.537
			c0.036,0.07,0.112,0.118,0.229,0.141c0.035,0.142,0.084,0.286,0.149,0.433s0.126,0.288,0.185,0.423
			c0.058,0.135,0.093,0.255,0.106,0.36c0.012,0.105-0.018,0.193-0.088,0.265c0.082,0.046,0.129,0.12,0.141,0.221
			c0.011,0.099,0.011,0.179,0,0.237c-0.259,0.316-0.436,0.539-0.529,0.669c-0.094,0.13-0.164,0.223-0.211,0.283
			c-0.046,0.059-0.094,0.11-0.141,0.157c-0.047,0.047-0.153,0.141-0.317,0.283c-0.623,0.375-1.271,0.713-1.946,1.014
			c-0.676,0.298-1.378,0.501-2.106,0.606c-0.059,0.083-0.144,0.15-0.255,0.203s-0.238,0.097-0.379,0.133s-0.291,0.064-0.449,0.088
			c-0.158,0.023-0.302,0.047-0.432,0.069c-0.06-0.022-0.091-0.061-0.097-0.113c-0.006-0.053-0.038-0.092-0.096-0.115
			c-0.012,0.141-0.073,0.215-0.185,0.221c-0.111,0.005-0.25-0.021-0.414-0.08c-0.165-0.059-0.334-0.141-0.51-0.245
			c-0.176-0.105-0.329-0.205-0.458-0.3c-0.06,0.105-0.133,0.218-0.221,0.335c-0.088,0.116-0.18,0.199-0.272,0.245
			c-0.165-0.022-0.286-0.041-0.361-0.053c-0.077-0.011-0.15,0.018-0.221,0.088c-0.095-0.046-0.165-0.096-0.211-0.148
			c-0.047-0.055-0.094-0.107-0.141-0.159c-0.047-0.053-0.1-0.1-0.158-0.141c-0.059-0.041-0.147-0.08-0.265-0.115
			c0.024-0.058,0.006-0.149-0.053-0.272c-0.06-0.123-0.141-0.195-0.246-0.221c0.059-0.093,0.035-0.215-0.07-0.36
			c-0.106-0.146-0.188-0.314-0.246-0.502c0.011-0.082,0.02-0.168,0.026-0.256c0.005-0.088,0.018-0.17,0.035-0.246
			c0.018-0.077,0.044-0.144,0.08-0.202c0.036-0.06,0.094-0.101,0.176-0.124c-0.012-0.153-0.06-0.299-0.141-0.44
			c0.105-0.081,0.176-0.185,0.211-0.309s0.066-0.25,0.097-0.379c0.028-0.13,0.067-0.255,0.115-0.379
			c0.046-0.123,0.123-0.226,0.229-0.309c-0.023-0.035-0.046-0.065-0.07-0.088c-0.023-0.023-0.035-0.065-0.035-0.123
			c0.176-0.294,0.299-0.543,0.371-0.749c0.07-0.206,0.126-0.405,0.168-0.599c0.041-0.194,0.085-0.403,0.132-0.626
			c0.047-0.223,0.141-0.504,0.282-0.846c-0.012-0.21,0.012-0.398,0.07-0.562c0.058-0.164,0.12-0.326,0.185-0.484
			c0.064-0.159,0.114-0.327,0.149-0.503c0.035-0.176,0.029-0.38-0.018-0.616c-0.199,0.023-0.344,0.094-0.432,0.211
			c-0.088,0.118-0.144,0.275-0.167,0.476c-0.106,0.095-0.241,0.138-0.405,0.133C289.315,165.119,289.168,165.139,289.039,165.186z
			 M295.558,163.071c-0.729-0.023-1.444,0.041-2.148,0.194c-0.705,0.152-1.298,0.375-1.779,0.67
			c0.234,0.199,0.478,0.375,0.731,0.528c0.252,0.152,0.442,0.358,0.573,0.616c0.563-0.223,1.056-0.509,1.48-0.854
			C294.835,163.881,295.217,163.495,295.558,163.071z M296.791,168.586c-0.447-0.246-0.854-0.394-1.225-0.44
			s-0.723-0.044-1.057,0.009c-0.334,0.053-0.655,0.126-0.961,0.221c-0.305,0.094-0.611,0.164-0.916,0.211
			c-0.153,0.399-0.311,0.841-0.475,1.321c-0.165,0.481-0.324,0.95-0.476,1.409c0.422-0.059,0.811-0.146,1.163-0.264
			c0.353-0.117,0.693-0.25,1.022-0.397c0.329-0.146,0.651-0.293,0.969-0.44c0.317-0.146,0.645-0.285,0.987-0.413
			c0.035-0.143,0.111-0.253,0.229-0.335c0.117-0.082,0.234-0.161,0.352-0.237c0.117-0.076,0.217-0.161,0.299-0.256
			C296.785,168.881,296.814,168.751,296.791,168.586z"/>
		<path fill="#424141" d="M300.878,164.973c-0.023-0.152-0.053-0.245-0.088-0.282c0.082-0.211,0.143-0.42,0.185-0.624
			c0.041-0.206,0.073-0.402,0.097-0.591c0.023-0.164,0.05-0.317,0.079-0.458c0.029-0.142,0.067-0.276,0.115-0.405
			c0.199-0.047,0.349-0.133,0.449-0.256c0.1-0.124,0.178-0.231,0.238-0.326c0.211-0.011,0.349,0.018,0.414,0.089
			c0.064,0.069,0.138,0.188,0.221,0.352c0.059,0.13,0.141,0.268,0.246,0.414c0.106,0.147,0.264,0.262,0.476,0.344
			c0.035,0.13,0.076,0.253,0.123,0.37c0.047,0.118,0.1,0.241,0.158,0.371c0.106,0.245,0.205,0.501,0.299,0.766
			c0.093,0.265,0.147,0.514,0.158,0.749c-0.141,0.271-0.249,0.582-0.325,0.934c-0.077,0.353-0.124,0.708-0.142,1.065
			c-0.018,0.358-0.008,0.703,0.026,1.03c0.035,0.329,0.094,0.605,0.176,0.828l0.106,0.282l0.388-0.035
			c0.422-0.106,0.804-0.226,1.145-0.36c0.341-0.135,0.658-0.296,0.951-0.485c0.293-0.188,0.575-0.402,0.846-0.643
			c0.27-0.241,0.552-0.525,0.846-0.854c0.282-0.329,0.534-0.701,0.757-1.119c0.223-0.416,0.408-0.848,0.555-1.294
			c0.146-0.446,0.261-0.893,0.344-1.339c0.082-0.446,0.135-0.863,0.158-1.251c0.223-0.106,0.346-0.276,0.371-0.511l-0.054-0.229
			c-0.035-0.058-0.049-0.114-0.044-0.168c0.006-0.053,0.021-0.103,0.044-0.148c0.094-0.27,0.293-0.47,0.599-0.6
			c0.211,0.142,0.408,0.295,0.59,0.458c0.181,0.165,0.349,0.33,0.502,0.494c0.023,0.317,0.07,0.59,0.141,0.819
			c0.071,0.229,0.146,0.448,0.229,0.661c0.081,0.2,0.155,0.394,0.221,0.581c0.064,0.188,0.107,0.418,0.132,0.688
			c-0.118,0.352-0.203,0.684-0.256,0.994c-0.053,0.312-0.103,0.639-0.15,0.978l-0.035,0.194c-0.211,0.364-0.42,0.738-0.625,1.118
			c-0.206,0.383-0.373,0.713-0.502,0.996c-0.07,0.069-0.132,0.152-0.185,0.246c-0.053,0.094-0.103,0.188-0.149,0.282
			c-0.023,0.034-0.057,0.095-0.097,0.177c-0.041,0.082-0.079,0.141-0.114,0.176l-0.422-0.158l-0.106,0.546l-0.283,0.07l-0.211,0.246
			c-0.27,0.47-0.555,0.863-0.854,1.18c-0.299,0.317-0.634,0.6-1.004,0.846c-0.369,0.248-0.788,0.479-1.251,0.696
			c-0.465,0.218-0.996,0.449-1.594,0.696c-0.236-0.035-0.438-0.055-0.608-0.062c-0.171-0.006-0.338-0.015-0.502-0.026
			c-0.165,0-0.324-0.005-0.476-0.019c-0.153-0.012-0.328-0.028-0.528-0.053c-0.046-0.105-0.111-0.182-0.194-0.229
			c-0.083-0.046-0.158-0.07-0.229-0.07c-0.235-0.116-0.411-0.281-0.528-0.493c-0.118-0.21-0.241-0.445-0.37-0.704
			c-0.06-0.142-0.121-0.282-0.185-0.422c-0.064-0.142-0.144-0.276-0.237-0.405l0.353-0.107l-0.458-0.528
			c-0.035-0.035-0.074-0.069-0.115-0.105c-0.042-0.035-0.08-0.076-0.115-0.123v-0.334c-0.047-0.963-0.068-1.853-0.061-2.669
			c0.005-0.815,0.114-1.536,0.325-2.159L300.878,164.973z"/>
		<path fill="#424141" d="M311.73,173.905c-0.165-0.105-0.298-0.24-0.397-0.405c-0.1-0.165-0.182-0.341-0.246-0.528
			c-0.065-0.188-0.117-0.384-0.158-0.59c-0.042-0.205-0.085-0.402-0.133-0.59c0-0.164,0.035-0.285,0.106-0.361
			c0.07-0.075,0.147-0.149,0.229-0.221c0.282-0.012,0.534-0.034,0.757-0.069c0.223-0.035,0.44-0.07,0.652-0.106
			c0.211-0.036,0.422-0.066,0.634-0.097c0.211-0.028,0.44-0.045,0.687-0.045c0.176-0.363,0.341-0.713,0.494-1.048
			c0.153-0.334,0.299-0.654,0.44-0.96c0.07-0.294,0.161-0.567,0.272-0.82c0.112-0.251,0.221-0.493,0.326-0.722
			c0.104-0.229,0.199-0.458,0.282-0.688c0.082-0.229,0.135-0.472,0.158-0.73c0.141-0.41,0.267-0.789,0.379-1.137
			c0.111-0.346,0.196-0.76,0.255-1.241c-0.447,0.07-0.804,0.138-1.075,0.203c-0.271,0.064-0.465,0.126-0.582,0.185
			c-0.235-0.012-0.42-0.059-0.555-0.142c-0.135-0.081-0.244-0.181-0.326-0.299c-0.082-0.117-0.153-0.253-0.211-0.405
			c-0.06-0.153-0.129-0.312-0.211-0.476c0.047-0.105,0.059-0.262,0.036-0.468c-0.023-0.204-0.095-0.354-0.211-0.448
			c0.094-0.023,0.165-0.103,0.211-0.237c0.046-0.135,0.053-0.238,0.018-0.31c0.199-0.058,0.41-0.096,0.634-0.114
			c0.223-0.018,0.442-0.035,0.661-0.053c0.217-0.018,0.425-0.042,0.625-0.071c0.2-0.027,0.371-0.09,0.511-0.184
			c0.61-0.023,1.248-0.047,1.911-0.07s1.278-0.053,1.841-0.088c0.211,0.069,0.456,0.105,0.731,0.105c0.276,0,0.552,0.02,0.828,0.054
			c0.276,0.035,0.522,0.111,0.739,0.229c0.218,0.117,0.368,0.323,0.449,0.615c0.176,0.024,0.309,0.071,0.397,0.143
			c0.088,0.07,0.144,0.155,0.168,0.255c0.023,0.101,0.032,0.211,0.026,0.335c-0.006,0.123-0.008,0.244-0.008,0.36
			c-0.188,0.141-0.426,0.256-0.713,0.344c-0.288,0.088-0.602,0.159-0.942,0.212c-0.341,0.053-0.696,0.088-1.065,0.105
			c-0.369,0.019-0.731,0.033-1.083,0.045c-0.06,0.387-0.162,0.842-0.309,1.365c-0.148,0.523-0.297,1.033-0.449,1.533
			c-0.153,0.499-0.286,0.944-0.396,1.339c-0.112,0.394-0.162,0.649-0.15,0.766c-0.118,0.271-0.214,0.5-0.291,0.687
			c-0.077,0.188-0.147,0.364-0.211,0.528c-0.064,0.165-0.129,0.326-0.194,0.485c-0.064,0.157-0.144,0.337-0.238,0.537h1.199
			c0.023,0.129,0.076,0.218,0.158,0.264c0.082,0.047,0.17,0.088,0.264,0.124c0.093,0.034,0.178,0.078,0.256,0.132
			c0.077,0.054,0.114,0.139,0.114,0.255c0.223,0.061,0.364,0.148,0.423,0.265c0.058,0.118,0.073,0.244,0.044,0.379
			c-0.03,0.135-0.088,0.273-0.176,0.414c-0.088,0.142-0.174,0.264-0.256,0.371c-0.106-0.024-0.206,0.003-0.299,0.079
			c-0.095,0.076-0.183,0.161-0.264,0.255c-0.341-0.046-0.676-0.053-1.004-0.018c-0.329,0.035-0.635,0.064-0.916,0.089
			c-0.06,0.011-0.083,0.044-0.07,0.096c0.011,0.053,0,0.092-0.035,0.115c-0.364-0.117-0.737-0.165-1.119-0.142
			c-0.382,0.023-0.769,0.079-1.163,0.168c-0.394,0.088-0.796,0.182-1.207,0.282C312.569,173.838,312.153,173.893,311.73,173.905z"/>
		<path fill="#424141" d="M321.736,173.043c-0.046-0.047-0.088-0.103-0.123-0.168c-0.036-0.064-0.065-0.149-0.088-0.256
			c-0.165-0.199-0.293-0.428-0.387-0.686c-0.095-0.259-0.158-0.525-0.194-0.802c-0.035-0.276-0.042-0.555-0.019-0.837
			c0.023-0.283,0.065-0.547,0.123-0.793c0.035-0.117,0.065-0.241,0.088-0.371c0.059-0.223,0.117-0.442,0.176-0.661
			c0.059-0.216,0.147-0.396,0.264-0.536c-0.046-0.13-0.041-0.27,0.019-0.422c0.058-0.153,0.116-0.294,0.176-0.423
			c0.023-0.035,0.042-0.066,0.053-0.097c0.012-0.029,0.023-0.055,0.035-0.08c0.141-0.41,0.279-0.807,0.414-1.189
			c0.134-0.38,0.266-0.749,0.396-1.102c0.234-0.645,0.46-1.279,0.678-1.902c0.218-0.622,0.414-1.286,0.59-1.99
			c0.093-0.07,0.176-0.116,0.246-0.142c0.023-0.011,0.053-0.022,0.088-0.035c0.036-0.011,0.077-0.018,0.124-0.018
			c0.246,0.13,0.537,0.25,0.872,0.36c0.334,0.112,0.619,0.168,0.854,0.168l0.299,0.265c0.153,0.176,0.285,0.36,0.397,0.555
			c0.111,0.194,0.144,0.443,0.097,0.749c-0.07,0.106-0.129,0.171-0.176,0.194c-0.07,0.271-0.147,0.508-0.229,0.713
			c-0.082,0.206-0.164,0.402-0.246,0.59c-0.094,0.212-0.182,0.423-0.264,0.636c-0.083,0.21-0.153,0.469-0.211,0.773
			c-0.07,0.083-0.115,0.153-0.132,0.212c-0.019,0.059-0.039,0.118-0.062,0.176c-0.023,0.069-0.053,0.145-0.088,0.221
			c-0.035,0.077-0.088,0.145-0.158,0.202c-0.046,0.365-0.118,0.661-0.211,0.891c-0.094,0.229-0.188,0.454-0.282,0.678
			c-0.164,0.411-0.317,0.818-0.458,1.225c-0.142,0.405-0.223,0.865-0.247,1.382c0.142-0.035,0.27-0.053,0.388-0.053
			c0.153,0,0.299,0.023,0.44,0.069c0.422-0.211,0.884-0.34,1.382-0.387s0.996-0.076,1.489-0.089c0.411,0,0.793-0.018,1.145-0.053
			c0.117,0.083,0.194,0.127,0.229,0.133c0.036,0.006,0.094,0.009,0.176,0.009c0.035,0,0.07,0,0.106,0
			c0.036,0,0.081,0.007,0.141,0.019c0.165,0.164,0.323,0.278,0.476,0.344c0.153,0.064,0.317,0.125,0.493,0.185
			c0.153,0.059,0.302,0.121,0.449,0.185s0.291,0.148,0.432,0.256l0.158,0.898c0.093,0.129,0.135,0.218,0.124,0.264
			c0,0.095-0.024,0.177-0.07,0.247l0.035,0.229c-0.223,0.047-0.371,0.097-0.44,0.149c-0.07,0.053-0.148,0.121-0.229,0.203
			c-0.13,0.012-0.253,0.018-0.371,0.018c-0.236,0-0.476,0.035-0.723,0.107c-0.353-0.13-0.739-0.195-1.163-0.195
			c-0.165,0-0.333,0.006-0.502,0.019c-0.171,0.012-0.337,0.029-0.502,0.053c-0.176,0.023-0.353,0.045-0.528,0.062
			c-0.176,0.018-0.353,0.026-0.529,0.026c-0.141,0.023-0.24,0.042-0.299,0.054c-0.06,0.011-0.118,0.029-0.176,0.053
			c-0.399,0.129-0.831,0.259-1.295,0.388c-0.464,0.129-0.93,0.193-1.4,0.193c-0.692,0-1.251-0.176-1.673-0.528
			c-0.047-0.105-0.083-0.177-0.106-0.211C321.783,173.131,321.759,173.09,321.736,173.043z"/>
		<path fill="#424141" d="M333.873,173.888c-0.34-0.083-0.602-0.221-0.784-0.413c-0.183-0.195-0.317-0.423-0.405-0.688
			s-0.147-0.555-0.176-0.872c-0.03-0.317-0.062-0.645-0.097-0.987c0.046-0.152,0.108-0.281,0.185-0.388
			c0.076-0.105,0.108-0.251,0.096-0.439c0.129-0.376,0.246-0.739,0.352-1.092c0.106-0.353,0.176-0.717,0.211-1.092
			c0.07-0.106,0.141-0.177,0.211-0.212c0.093-0.669,0.106-1.356,0.035-2.06c-0.071-0.705-0.188-1.356-0.352-1.957
			c0.011-0.129,0.028-0.226,0.053-0.29c0.023-0.065,0.023-0.12,0-0.168c-0.023-0.105,0.012-0.158,0.106-0.158
			c0.093,0,0.188,0,0.282,0c0-0.21-0.039-0.42-0.115-0.625c-0.076-0.204-0.149-0.442-0.221-0.713
			c0.094-0.212,0.159-0.417,0.194-0.616c0.035-0.199,0.1-0.381,0.194-0.547c0.376,0.117,0.746,0.252,1.11,0.405
			c0.364,0.152,0.723,0.303,1.075,0.449s0.698,0.288,1.039,0.423c0.34,0.135,0.674,0.243,1.003,0.325
			c0.505,0.363,1.024,0.726,1.559,1.084c0.534,0.358,1.022,0.751,1.462,1.179c0.44,0.43,0.807,0.92,1.102,1.471
			c0.292,0.554,0.463,1.205,0.51,1.957c-0.023,0.069-0.042,0.129-0.054,0.176c-0.011,0.047-0.023,0.095-0.035,0.141
			c-0.012,0.047-0.018,0.1-0.018,0.158c0,0.06,0,0.142,0,0.246c-0.422,0.74-0.957,1.363-1.603,1.867
			c-0.646,0.506-1.351,0.951-2.114,1.34c-0.765,0.387-1.559,0.742-2.388,1.065C335.468,173.18,334.66,173.525,333.873,173.888z
			 M335.6,163.9c-0.106,0-0.183,0.023-0.229,0.07c0.142,0.528,0.246,1.027,0.317,1.497c0.07,0.47,0.108,0.94,0.115,1.408
			c0.005,0.471-0.021,0.951-0.08,1.444c-0.06,0.494-0.141,1.028-0.247,1.604c0.153-0.012,0.288-0.041,0.405-0.088
			c0.117-0.047,0.238-0.1,0.361-0.157c0.123-0.06,0.252-0.112,0.387-0.159c0.134-0.047,0.291-0.076,0.467-0.088
			c0.046-0.093,0.108-0.168,0.185-0.221c0.076-0.053,0.143-0.107,0.203-0.168c0.293-0.116,0.587-0.24,0.881-0.37
			c0.293-0.129,0.563-0.275,0.811-0.44c0.246-0.164,0.469-0.352,0.67-0.563c0.2-0.21,0.364-0.463,0.493-0.758
			c-0.094-0.176-0.208-0.325-0.344-0.448c-0.135-0.123-0.276-0.247-0.422-0.37c-0.147-0.123-0.288-0.253-0.422-0.388
			s-0.244-0.291-0.326-0.467c-0.188-0.023-0.352-0.073-0.493-0.149c-0.141-0.077-0.275-0.153-0.405-0.229
			c-0.129-0.076-0.267-0.15-0.414-0.221c-0.148-0.07-0.321-0.111-0.52-0.123c-0.306-0.165-0.582-0.278-0.828-0.344
			C335.917,164.108,335.729,164.018,335.6,163.9z"/>
		<path fill="#424141" d="M343.581,173.095c-0.095-0.093-0.162-0.205-0.203-0.335c-0.042-0.128-0.138-0.233-0.291-0.316
			c-0.023-0.177-0.056-0.379-0.096-0.607c-0.042-0.23-0.083-0.464-0.123-0.705c-0.042-0.241-0.07-0.481-0.088-0.723
			s-0.008-0.46,0.026-0.661c0.024-0.106,0.062-0.204,0.115-0.299c0.053-0.094,0.105-0.186,0.158-0.273s0.093-0.179,0.123-0.272
			c0.029-0.094,0.032-0.188,0.009-0.282c0.07-0.011,0.114-0.05,0.133-0.115c0.018-0.063,0.073-0.085,0.167-0.061
			c0.082-0.258,0.17-0.499,0.265-0.723c0.093-0.224,0.194-0.44,0.299-0.651c0.105-0.212,0.214-0.426,0.326-0.644
			s0.214-0.46,0.309-0.73c-0.199-0.188-0.344-0.391-0.432-0.608c-0.088-0.218-0.156-0.438-0.203-0.661
			c-0.047-0.223-0.083-0.449-0.106-0.678c-0.023-0.23-0.07-0.461-0.141-0.696c0.141-0.212,0.311-0.385,0.51-0.521
			c0.199-0.135,0.42-0.245,0.661-0.334c0.24-0.088,0.501-0.158,0.784-0.211c0.283-0.053,0.582-0.115,0.899-0.185
			c0.563-0.176,1.069-0.313,1.515-0.414c0.446-0.1,0.881-0.182,1.304-0.246c0.422-0.065,0.863-0.123,1.321-0.176
			s0.987-0.133,1.585-0.238c0.011,0.035,0.032,0.054,0.061,0.054s0.067,0,0.115,0c0.035,0.082,0.1,0.122,0.194,0.122
			c0-0.034-0.003-0.066-0.008-0.097c-0.006-0.028-0.008-0.055-0.008-0.079c0.023,0,0.055,0.006,0.096,0.019
			c0.042,0.011,0.076,0.022,0.106,0.035c0.028,0.011,0.055,0.008,0.08-0.01c0.023-0.018,0.029-0.055,0.018-0.113
			c0.142,0.245,0.323,0.448,0.547,0.607c0.223,0.158,0.469,0.297,0.739,0.414c0.012,0.105,0.015,0.183,0.009,0.229
			c-0.006,0.047-0.015,0.092-0.026,0.133c-0.012,0.042-0.018,0.088-0.018,0.141c0,0.054,0.011,0.127,0.035,0.221
			c-0.188,0.317-0.402,0.564-0.643,0.74c-0.241,0.176-0.497,0.311-0.766,0.405c-0.271,0.095-0.555,0.165-0.854,0.212
			c-0.299,0.046-0.605,0.096-0.916,0.148c-0.311,0.054-0.625,0.127-0.942,0.221c-0.317,0.095-0.628,0.236-0.934,0.423
			c-0.094-0.035-0.179-0.05-0.256-0.044c-0.076,0.006-0.156,0.021-0.237,0.044c-0.083,0.023-0.174,0.047-0.273,0.069
			c-0.1,0.024-0.221,0.024-0.361,0c-0.094,0.083-0.202,0.143-0.326,0.177c-0.123,0.035-0.249,0.07-0.379,0.106
			c0.059,0.13,0.085,0.259,0.08,0.388c-0.007,0.128,0.008,0.24,0.044,0.334c0.493,0.046,1.039,0.044,1.638-0.009
			c0.6-0.053,1.186-0.09,1.761-0.115c0.012,0.061,0.006,0.101-0.018,0.124s-0.035,0.064-0.035,0.123
			c0.106,0.069,0.205,0.157,0.299,0.264c0.093,0.106,0.191,0.21,0.291,0.31s0.203,0.182,0.309,0.245
			c0.106,0.065,0.229,0.092,0.37,0.08c0.059,0.118,0.1,0.241,0.124,0.371c0.023,0.129,0.005,0.264-0.053,0.405
			c-0.236,0.152-0.465,0.309-0.687,0.466c-0.223,0.159-0.456,0.303-0.696,0.433c-0.241,0.129-0.502,0.235-0.784,0.316
			c-0.282,0.083-0.588,0.118-0.916,0.107c-0.06,0-0.109,0-0.15,0c-0.041,0-0.091-0.024-0.149-0.07
			c-0.118,0.059-0.273,0.079-0.467,0.061c-0.194-0.018-0.355,0.004-0.484,0.062c-0.165-0.059-0.356-0.088-0.573-0.088
			c-0.218,0-0.409-0.029-0.573-0.089c-0.211,0.306-0.412,0.625-0.598,0.961c-0.188,0.334-0.353,0.689-0.494,1.065
			c0.482,0.069,0.881,0.1,1.199,0.088c0.317-0.013,0.616-0.035,0.898-0.07s0.573-0.069,0.873-0.105
			c0.299-0.036,0.666-0.047,1.101-0.035c0.293-0.142,0.631-0.237,1.013-0.292c0.381-0.053,0.736-0.132,1.065-0.237
			c0.117,0.036,0.218,0.104,0.299,0.203c0.082,0.1,0.161,0.199,0.238,0.299c0.076,0.101,0.155,0.185,0.237,0.256
			c0.082,0.07,0.188,0.095,0.318,0.07c0.058,0.06,0.096,0.13,0.114,0.211c0.019,0.083,0.035,0.158,0.053,0.229
			c0.018,0.07,0.044,0.127,0.08,0.167c0.035,0.042,0.1,0.057,0.194,0.045c-0.223,0.459-0.474,0.812-0.749,1.057
			c-0.276,0.247-0.588,0.438-0.934,0.573c-0.347,0.135-0.734,0.236-1.163,0.3c-0.428,0.064-0.907,0.144-1.436,0.237
			c-0.13,0.023-0.238,0.021-0.326-0.009c-0.088-0.028-0.179-0.045-0.272-0.045c-0.329,0.061-0.719,0.117-1.171,0.177
			c-0.452,0.059-0.907,0.082-1.366,0.07c-0.458-0.012-0.898-0.07-1.321-0.176C344.219,173.555,343.862,173.366,343.581,173.095z"/>
		<path fill="#424141" d="M354.221,172.178c-0.06,0.013-0.111-0.031-0.158-0.133c-0.046-0.1-0.1-0.195-0.158-0.29h0.194
			c-0.083-0.258-0.103-0.495-0.062-0.713s0.09-0.429,0.149-0.635c0.059-0.204,0.108-0.405,0.15-0.599
			c0.042-0.194,0.02-0.396-0.062-0.608c0.059,0.036,0.104,0.021,0.133-0.044c0.029-0.065,0.053-0.146,0.07-0.247
			c0.019-0.1,0.024-0.204,0.019-0.316c-0.006-0.111-0.015-0.202-0.027-0.273c0.153-0.363,0.273-0.739,0.361-1.126
			c0.088-0.388,0.168-0.773,0.238-1.154c0.07-0.38,0.15-0.751,0.238-1.11c0.088-0.357,0.203-0.695,0.344-1.013
			c0.164-0.023,0.337-0.002,0.52,0.062c0.181,0.064,0.303,0.145,0.361,0.237c0.364-0.281,0.687-0.621,0.969-1.021
			c0.282-0.399,0.567-0.79,0.854-1.171c0.288-0.382,0.613-0.721,0.977-1.014s0.816-0.469,1.356-0.528
			c0.282,0.199,0.599,0.413,0.951,0.643c0.353,0.229,0.64,0.514,0.863,0.854c0.094,0.06,0.185,0.12,0.273,0.185
			c0.088,0.064,0.178,0.127,0.272,0.185v0.265c0.165,0.152,0.303,0.331,0.414,0.536c0.111,0.207,0.211,0.423,0.299,0.652
			c0.088,0.229,0.173,0.461,0.256,0.696c0.082,0.235,0.176,0.452,0.282,0.65c-0.023,0.07-0.033,0.133-0.027,0.185
			c0.005,0.054,0.018,0.106,0.035,0.159c0.017,0.052,0.032,0.111,0.044,0.176c0.012,0.064,0.018,0.144,0.018,0.237
			c-0.046,0.623-0.25,1.125-0.608,1.506c-0.359,0.382-0.793,0.693-1.304,0.935c-0.511,0.24-1.055,0.446-1.63,0.615
			c-0.575,0.171-1.098,0.356-1.568,0.556c0,0.047,0.026,0.07,0.08,0.07s0.067,0.034,0.044,0.105
			c0.352,0.212,0.625,0.383,0.819,0.512c0.194,0.128,0.375,0.236,0.546,0.325c0.17,0.088,0.357,0.161,0.564,0.221
			c0.205,0.059,0.49,0.129,0.854,0.211c0.364,0.083,0.648,0.149,0.854,0.202c0.205,0.053,0.39,0.095,0.555,0.123
			c0.164,0.03,0.34,0.057,0.528,0.08c0.188,0.022,0.44,0.053,0.757,0.088c0.13,0.13,0.235,0.282,0.317,0.458
			c0.082,0.177,0.141,0.353,0.176,0.528c0.035,0.177,0.044,0.345,0.027,0.503c-0.018,0.157-0.068,0.285-0.15,0.378
			c0.011,0.047,0.044,0.068,0.096,0.062c0.054-0.005,0.108-0.002,0.168,0.01c-0.083,0.059-0.153,0.129-0.211,0.21
			c-0.06,0.083-0.118,0.165-0.176,0.247c-0.06,0.081-0.126,0.158-0.203,0.229c-0.076,0.07-0.174,0.112-0.291,0.123
			c-0.422,0.165-0.963,0.17-1.62,0.018c-0.658-0.152-1.498-0.421-2.519-0.81c-0.505-0.188-0.916-0.357-1.233-0.51
			c-0.317-0.154-0.593-0.303-0.828-0.45c-0.235-0.146-0.452-0.306-0.651-0.475c-0.2-0.17-0.429-0.373-0.687-0.608
			c-0.035,0.012-0.057,0.035-0.062,0.069c-0.006,0.035-0.027,0.061-0.062,0.07c-0.059,0.471-0.149,0.853-0.272,1.146
			c-0.123,0.294-0.303,0.593-0.537,0.898c-0.188-0.035-0.314-0.018-0.379,0.053c-0.064,0.07-0.144,0.135-0.237,0.195
			c-0.118,0.022-0.206,0.02-0.264-0.009c-0.06-0.03-0.111-0.062-0.158-0.098c-0.046-0.034-0.1-0.069-0.158-0.105
			c-0.06-0.035-0.153-0.047-0.283-0.035c-0.035-0.105-0.07-0.207-0.106-0.309c-0.035-0.1-0.13-0.144-0.283-0.133
			c0.036-0.105,0.047-0.196,0.036-0.272c-0.012-0.077-0.03-0.146-0.054-0.212c-0.023-0.063-0.044-0.132-0.061-0.202
			C354.178,172.351,354.186,172.273,354.221,172.178z M360.104,164.128c-0.153,0.223-0.324,0.426-0.51,0.608
			c-0.188,0.183-0.374,0.37-0.555,0.563c-0.183,0.194-0.344,0.405-0.485,0.635c-0.141,0.229-0.241,0.501-0.299,0.819
			c0.494-0.059,1.01-0.197,1.55-0.414c0.541-0.218,1.051-0.425,1.533-0.625c-0.06-0.435-0.211-0.785-0.458-1.049
			C360.632,164.401,360.374,164.222,360.104,164.128z"/>
	</g>
</g>
<g>
	<path fill="#6196FF" d="M329.767,71.884c0-1.932-1.427-3.327-3.685-3.327c-1.872,0-3.238,0.95-3.238,1.99v0.92h-2.734v-1.782
		c0-2.734,3.655-3.862,6.091-3.862c3.833,0,6.596,2.437,6.596,6.031c0,7.221-10.637,7.339-10.637,12.182
		c0,0.416,0.237,0.564,0.743,0.564h7.458c0.416,0,0.653-0.237,0.653-0.653v-1.338h2.734v2.645c0,1.338-0.565,1.901-1.902,1.901
		h-10.756c-1.634,0-1.991-0.713-1.991-2.406C319.1,77.024,329.767,77.558,329.767,71.884z"/>
</g>
<rect x="282.354" y="93.848" fill="#6196FF" width="89.136" height="1.061"/>
<circle fill="#FFFFFF" cx="114.611" cy="138.039" r="81.406"/>
<g>
	<g>
		<path fill="#333333" d="M61.924,170.165c1.379,0,3.628,0.593,3.628,2.056v0.8h-0.911v-0.538c0-0.91-1.572-1.407-2.69-1.407
			c-2.152,0-3.807,1.683-3.807,4.028c0,2.317,1.641,4.18,3.849,4.18c2,0,3.173-1.365,3.173-1.365l0.553,0.703
			c0,0-1.338,1.573-3.739,1.573c-2.841,0-4.842-2.264-4.842-5.091C57.136,172.302,59.191,170.165,61.924,170.165z"/>
		<path fill="#333333" d="M67.385,174.207c0-0.193-0.11-0.304-0.304-0.304h-0.579v-0.813h0.966c0.579,0,0.841,0.234,0.841,0.786
			v0.469c0,0.29-0.027,0.524-0.027,0.524h0.027c0.331-1.049,1.104-1.849,2.193-1.849c0.193,0,0.373,0.041,0.373,0.041v0.925
			c0,0-0.166-0.027-0.345-0.027c-0.979,0-1.71,0.772-2.014,1.793c-0.138,0.441-0.193,0.911-0.193,1.353v2.924h-0.938V174.207z"/>
		<path fill="#333333" d="M74.877,172.924c1.917,0,2.91,1.477,2.91,3.201c0,0.165-0.027,0.469-0.027,0.469h-5.326
			c0.028,1.752,1.255,2.759,2.69,2.759c1.269,0,2.083-0.855,2.083-0.855l0.456,0.703c0,0-1.007,0.994-2.58,0.994
			c-2.055,0-3.628-1.49-3.628-3.628C71.455,174.29,73.015,172.924,74.877,172.924z M76.822,175.848
			c-0.055-1.435-0.938-2.139-1.959-2.139c-1.145,0-2.152,0.745-2.386,2.139H76.822z"/>
		<path fill="#333333" d="M83.264,175.752h0.386v-0.083c0-1.448-0.524-1.959-1.793-1.959c-0.345,0-1.353,0.097-1.353,0.607v0.441
			h-0.896v-0.662c0-0.966,1.656-1.173,2.262-1.173c2.193,0,2.719,1.173,2.719,2.662v3.325c0,0.206,0.11,0.303,0.304,0.303h0.579
			v0.814h-0.952c-0.593,0-0.828-0.262-0.828-0.828c0-0.304,0.014-0.51,0.014-0.51h-0.028c0.014,0-0.565,1.504-2.303,1.504
			c-1.159,0-2.359-0.677-2.359-2.056C79.014,175.835,82.064,175.752,83.264,175.752z M81.526,179.393
			c1.325,0,2.125-1.38,2.125-2.579v-0.317h-0.4c-1.09,0-3.27,0.028-3.27,1.586C79.981,178.732,80.491,179.393,81.526,179.393z"/>
		<path fill="#333333" d="M87.042,173.876h-0.91v-0.786h0.924v-1.917h0.924v1.917h1.738v0.786h-1.738v3.532
			c0,1.627,1.034,1.834,1.559,1.834c0.193,0,0.317-0.028,0.317-0.028v0.842c0,0-0.165,0.027-0.4,0.027
			c-0.8,0-2.414-0.262-2.414-2.579V173.876z"/>
		<path fill="#333333" d="M94.217,172.924c1.917,0,2.91,1.477,2.91,3.201c0,0.165-0.027,0.469-0.027,0.469h-5.326
			c0.027,1.752,1.255,2.759,2.69,2.759c1.269,0,2.083-0.855,2.083-0.855l0.456,0.703c0,0-1.007,0.994-2.58,0.994
			c-2.055,0-3.628-1.49-3.628-3.628C90.796,174.29,92.354,172.924,94.217,172.924z M96.162,175.848
			c-0.055-1.435-0.938-2.139-1.959-2.139c-1.145,0-2.152,0.745-2.386,2.139H96.162z"/>
		<path fill="#333333" d="M106.356,175.752h0.386v-0.083c0-1.448-0.524-1.959-1.793-1.959c-0.344,0-1.352,0.097-1.352,0.607v0.441
			h-0.897v-0.662c0-0.966,1.655-1.173,2.263-1.173c2.193,0,2.719,1.173,2.719,2.662v3.325c0,0.206,0.11,0.303,0.303,0.303h0.58
			v0.814h-0.952c-0.593,0-0.828-0.262-0.828-0.828c0-0.304,0.014-0.51,0.014-0.51h-0.027c0.014,0-0.566,1.504-2.304,1.504
			c-1.158,0-2.358-0.677-2.358-2.056C102.107,175.835,105.155,175.752,106.356,175.752z M104.617,179.393
			c1.324,0,2.125-1.38,2.125-2.579v-0.317h-0.4c-1.089,0-3.269,0.028-3.269,1.586C103.072,178.732,103.583,179.393,104.617,179.393z
			"/>
		<path fill="#333333" d="M110.052,174.207c0-0.193-0.11-0.304-0.304-0.304h-0.579v-0.813h0.966c0.579,0,0.841,0.248,0.841,0.771
			v0.318c0,0.275-0.027,0.496-0.027,0.496h0.027c0.249-0.635,1.131-1.752,2.759-1.752c1.724,0,2.331,0.979,2.331,2.69v3.297
			c0,0.206,0.11,0.303,0.304,0.303h0.579v0.814h-0.979c-0.593,0-0.842-0.248-0.842-0.841v-3.325c0-1.09-0.166-2.056-1.503-2.056
			c-1.187,0-2.208,0.814-2.525,1.959c-0.083,0.29-0.11,0.607-0.11,0.938v3.324h-0.938V174.207z"/>
		<path fill="#333333" d="M125.792,175.752h0.386v-0.083c0-1.448-0.524-1.959-1.793-1.959c-0.344,0-1.352,0.097-1.352,0.607v0.441
			h-0.896v-0.662c0-0.966,1.655-1.173,2.262-1.173c2.193,0,2.719,1.173,2.719,2.662v3.325c0,0.206,0.11,0.303,0.304,0.303H128v0.814
			h-0.952c-0.593,0-0.828-0.262-0.828-0.828c0-0.304,0.014-0.51,0.014-0.51h-0.028c0.014,0-0.565,1.504-2.304,1.504
			c-1.159,0-2.359-0.677-2.359-2.056C121.543,175.835,124.592,175.752,125.792,175.752z M124.054,179.393
			c1.325,0,2.125-1.38,2.125-2.579v-0.317h-0.4c-1.09,0-3.269,0.028-3.269,1.586C122.509,178.732,123.02,179.393,124.054,179.393z"
			/>
		<path fill="#333333" d="M132.497,172.924c0.786,0,2.469,0.332,2.469,1.477v0.621h-0.883v-0.4c0-0.58-1.007-0.855-1.586-0.855
			c-1.49,0-2.69,1.117-2.69,2.801c0,1.71,1.255,2.771,2.717,2.771c1.421,0,2.235-0.979,2.235-0.979l0.442,0.703
			c0,0-0.938,1.132-2.718,1.132c-2.069,0-3.642-1.477-3.642-3.628C128.841,174.441,130.427,172.924,132.497,172.924z"/>
		<path fill="#333333" d="M139.78,172.924c0.786,0,2.469,0.332,2.469,1.477v0.621h-0.883v-0.4c0-0.58-1.007-0.855-1.586-0.855
			c-1.49,0-2.69,1.117-2.69,2.801c0,1.71,1.255,2.771,2.717,2.771c1.421,0,2.235-0.979,2.235-0.979l0.441,0.703
			c0,0-0.938,1.132-2.718,1.132c-2.069,0-3.642-1.477-3.642-3.628C136.123,174.441,137.71,172.924,139.78,172.924z"/>
		<path fill="#333333" d="M147.062,172.924c2.028,0,3.669,1.545,3.669,3.602c0,2.096-1.642,3.669-3.655,3.669
			c-2.028,0-3.669-1.573-3.669-3.669C143.407,174.469,145.049,172.924,147.062,172.924z M147.077,179.352
			c1.476,0,2.689-1.214,2.689-2.827c0-1.573-1.213-2.745-2.689-2.745c-1.49,0-2.704,1.172-2.704,2.745
			C144.373,178.138,145.586,179.352,147.077,179.352z"/>
		<path fill="#333333" d="M152.457,174.207c0-0.193-0.11-0.304-0.304-0.304h-0.58v-0.813h0.979c0.593,0,0.842,0.248,0.842,0.813
			v3.353c0,1.09,0.179,2.056,1.517,2.056c1.573,0,2.552-1.394,2.552-2.897v-3.324h0.938v5.821c0,0.206,0.11,0.303,0.304,0.303h0.579
			v0.814h-0.952c-0.579,0-0.841-0.248-0.841-0.772v-0.317c0-0.275,0.027-0.496,0.027-0.496h-0.027
			c-0.276,0.675-1.187,1.752-2.704,1.752c-1.642,0-2.332-0.883-2.332-2.69V174.207L152.457,174.207z"/>
		<path fill="#333333" d="M160.802,174.207c0-0.193-0.11-0.304-0.303-0.304h-0.58v-0.813h0.965c0.58,0,0.841,0.248,0.841,0.771
			v0.318c0,0.275-0.027,0.496-0.027,0.496h0.027c0.249-0.635,1.132-1.752,2.759-1.752c1.724,0,2.332,0.979,2.332,2.69v3.297
			c0,0.206,0.11,0.303,0.303,0.303h0.58v0.814h-0.979c-0.593,0-0.842-0.248-0.842-0.841v-3.325c0-1.09-0.165-2.056-1.503-2.056
			c-1.186,0-2.208,0.814-2.524,1.959c-0.083,0.29-0.11,0.607-0.11,0.938v3.324h-0.938V174.207z"/>
		<path fill="#333333" d="M169.272,173.876h-0.911v-0.786h0.924v-1.917h0.924v1.917h1.739v0.786h-1.739v3.532
			c0,1.627,1.035,1.834,1.559,1.834c0.193,0,0.317-0.028,0.317-0.028v0.842c0,0-0.166,0.027-0.4,0.027
			c-0.8,0-2.414-0.262-2.414-2.579V173.876z"/>
		<path fill="#333333" d="M94.409,187.779c2.028,0,3.669,1.546,3.669,3.602c0,2.097-1.641,3.669-3.655,3.669
			c-2.028,0-3.669-1.572-3.669-3.669C90.753,189.325,92.394,187.779,94.409,187.779z M94.423,194.209c1.476,0,2.69-1.215,2.69-2.828
			c0-1.573-1.214-2.745-2.69-2.745c-1.49,0-2.704,1.172-2.704,2.745C91.719,192.994,92.933,194.209,94.423,194.209z"/>
		<path fill="#333333" d="M99.83,189.062c0-0.192-0.11-0.304-0.304-0.304h-0.579v-0.813h0.965c0.58,0,0.841,0.234,0.841,0.787v0.468
			c0,0.29-0.027,0.524-0.027,0.524h0.027c0.331-1.049,1.104-1.849,2.194-1.849c0.193,0,0.372,0.042,0.372,0.042v0.924
			c0,0-0.166-0.026-0.345-0.026c-0.979,0-1.711,0.771-2.014,1.792c-0.139,0.441-0.193,0.911-0.193,1.353v2.925H99.83V189.062z"/>
		<path fill="#333333" d="M108.562,186.303c0-0.193-0.11-0.304-0.303-0.304h-0.58v-0.812h0.979c0.593,0,0.841,0.247,0.841,0.841
			v7.739c0,0.206,0.11,0.303,0.304,0.303h0.579v0.814h-0.979c-0.593,0-0.842-0.249-0.842-0.842V186.303z"/>
		<path fill="#333333" d="M114.962,187.779c2.028,0,3.669,1.546,3.669,3.602c0,2.097-1.642,3.669-3.656,3.669
			c-2.028,0-3.669-1.572-3.669-3.669C111.307,189.325,112.948,187.779,114.962,187.779z M114.976,194.209
			c1.476,0,2.69-1.215,2.69-2.828c0-1.573-1.214-2.745-2.69-2.745c-1.49,0-2.704,1.172-2.704,2.745
			C112.272,192.994,113.486,194.209,114.976,194.209z"/>
		<path fill="#333333" d="M122.77,187.779c1.863,0,2.304,1.187,2.304,1.187h0.027c0,0,0-0.124,0-0.262
			c0-0.496,0.221-0.759,0.786-0.759h0.966v0.813h-0.566c-0.193,0-0.303,0.098-0.303,0.304v5.657c0,2.207-1.628,3.062-3.338,3.062
			c-0.787,0-1.586-0.207-2.263-0.552l0.359-0.786c0,0,0.855,0.482,1.875,0.482c1.353,0,2.428-0.634,2.428-2.179v-0.607
			c0-0.263,0.014-0.497,0.014-0.497h-0.027c-0.414,0.759-1.104,1.2-2.18,1.2c-1.862,0-3.09-1.476-3.09-3.56
			C119.763,189.201,120.908,187.779,122.77,187.779z M125.06,191.283c0-2.026-0.966-2.647-2.193-2.647
			c-1.352,0-2.138,0.979-2.138,2.634c0,1.656,0.897,2.732,2.262,2.732C124.094,194.002,125.06,193.326,125.06,191.283z"/>
		<path fill="#333333" d="M128.44,189.062c0-0.192-0.11-0.304-0.304-0.304h-0.579v-0.813h0.979c0.593,0,0.842,0.249,0.842,0.842
			v4.98c0,0.206,0.11,0.303,0.303,0.303h0.58v0.814h-0.979c-0.593,0-0.841-0.249-0.841-0.842V189.062z M128.412,185.187h0.911v1.185
			h-0.911V185.187z"/>
		<path fill="#333333" d="M131.832,189.062c0-0.192-0.11-0.304-0.304-0.304h-0.579v-0.813h0.966c0.579,0,0.841,0.249,0.841,0.772
			v0.318c0,0.275-0.027,0.496-0.027,0.496h0.027c0.248-0.636,1.131-1.753,2.759-1.753c1.724,0,2.331,0.979,2.331,2.69v3.298
			c0,0.206,0.11,0.303,0.304,0.303h0.579v0.814h-0.979c-0.593,0-0.841-0.249-0.841-0.842v-3.324c0-1.09-0.166-2.056-1.503-2.056
			c-1.187,0-2.208,0.814-2.524,1.958c-0.083,0.29-0.11,0.607-0.11,0.939v3.324h-0.938V189.062z"/>
	</g>
</g>
<g>
	<path fill="#6196FF" d="M109.025,84.601h4.605V71.052c0-0.654,0.029-1.307,0.029-1.307h-0.06c0,0-0.237,0.475-0.98,1.218
		l-1.961,1.931l-1.782-1.842l5.021-4.873h2.704v18.422h4.576v2.554h-12.152V84.601z"/>
</g>
<rect x="70.127" y="93.848" fill="#6196FF" width="89.136" height="1.061"/>
<g>
	<g>
		<path fill="#20FFA8" d="M147.333,154.582c0,0-1.063-3.32-6.647-5.581c-5.584-2.261-11.771-4.784-11.771-4.784
			s-0.16-4.252-2.199-4.252v-3.723c0,0,0.204-1.065,0.736-1.729c0.531-0.664,1.499-3.058,1.765-4.919c0,0,0.682-0.532,0.948-1.728
			c0.267-1.196,1.339-4.786-0.524-4.255c0,0,1.134-8.217-0.462-10.743c-1.595-2.525-5.645-5.758-8.569-5.758h-1.966
			c-2.925,0-6.98,3.233-8.575,5.758c-1.595,2.526-0.466,10.672-0.466,10.672c-1.861-0.531-0.798,3.093-0.531,4.289
			c0.266,1.196,0.93,1.748,0.93,1.748c0.266,1.861,1.221,4.263,1.753,4.927s0.69,1.739,0.69,1.739v3.723
			c-2.039,0-2.152,4.255-2.152,4.255s-6.187,2.525-11.77,4.785c-0.88,0.355-1.708,0.739-2.388,1.132v0.464h7.475v4.757
			c15.629,0,41.918,0,42.776,0C147.591,155.357,147.333,154.582,147.333,154.582z"/>
		<polygon fill="#20FFA8" points="94.776,144.484 89.339,144.484 89.339,151.96 81.864,151.96 81.864,157.396 89.339,157.396 
			89.339,164.871 94.776,164.871 94.776,157.396 102.251,157.396 102.251,151.96 94.776,151.96 		"/>
	</g>
</g>
</svg>
