<?xml version="1.0" encoding="utf-8"?>
<!-- Generator: Adobe Illustrator 16.0.0, SVG Export Plug-In . SVG Version: 6.00 Build 0)  -->
<!DOCTYPE svg PUBLIC "-//W3C//DTD SVG 1.1//EN" "http://www.w3.org/Graphics/SVG/1.1/DTD/svg11.dtd">
<svg version="1.1" id="Layer_1" xmlns="http://www.w3.org/2000/svg" xmlns:xlink="http://www.w3.org/1999/xlink" x="0px" y="0px"
	 width="866.858px" height="275.394px" viewBox="0 0 866.858 275.394" enable-background="new 0 0 866.858 275.394"
	 xml:space="preserve">
<line fill="none" stroke="#FFFFFF" stroke-width="4" stroke-miterlimit="10" stroke-dasharray="12" x1="363" y1="142.394" x2="194" y2="142.394"/>
<line fill="none" stroke="#FFFFFF" stroke-width="4" stroke-miterlimit="10" stroke-dasharray="12" x1="688" y1="142.394" x2="519" y2="142.394"/>
<circle fill="#FFFFFF" cx="112.816" cy="138.039" r="95.038"/>
<circle fill="#FFFFFF" cx="434.389" cy="138.039" r="95.038"/>
<circle fill="#FFFFFF" cx="755.961" cy="138.039" r="95.039"/>
<g>
	<rect x="39.697" y="75.394" fill="none" width="142.695" height="65.524"/>
	<text transform="matrix(1 0 0 1 66.7949 89.4531)"><tspan x="0" y="0" fill="#333333" font-family="'Museo-300'" font-size="20">Create an </tspan><tspan x="-13.14" y="24" fill="#333333" font-family="'Museo-300'" font-size="20">account and </tspan><tspan x="8.84" y="48" fill="#333333" font-family="'Museo-300'" font-size="20">click on</tspan></text>
</g>
<g>
	<rect x="686.423" y="108.226" fill="none" width="139.079" height="111.627"/>
	<text transform="matrix(1 0 0 1 694.0039 122.2852)"><tspan x="0" y="0" fill="#333333" font-family="'Museo-300'" font-size="20">Copy code to </tspan><tspan x="-7.36" y="24" fill="#333333" font-family="'Museo-300'" font-size="20">your site, share </tspan><tspan x="-7.501" y="48" fill="#333333" font-family="'Museo-300'" font-size="20">your flowchart,</tspan><tspan x="-3.58" y="72" fill="#333333" font-family="'Museo-300'" font-size="20">or  print it out.</tspan></text>
</g>
<g>
	<rect x="362.631" y="159.838" fill="none" width="142.694" height="28.402"/>
	<text transform="matrix(1 0 0 1 394.2188 173.8979)" fill="#333333" font-family="'Museo-300'" font-size="20">answers.</text>
</g>
<g>
	<rect x="362.631" y="92.841" fill="none" width="142.694" height="17.888"/>
	<text transform="matrix(1 0 0 1 406.7588 106.9009)" fill="#333333" font-family="'Museo-300'" font-size="20">Select </text>
</g>
<g>
	<rect x="365" y="118.394" fill="#FFFF00" width="63" height="32"/>
	<rect x="373.827" y="130.736" fill="none" width="48.405" height="20.803"/>
	<text transform="matrix(1 0 0 1 385.5688 139.5742)" fill="#4D4D4D" font-family="'PermanentMarker'" font-size="14.6921">YES</text>
</g>
<g>
	<rect x="439" y="118.394" fill="#FFFF00" width="63" height="33"/>
	<rect x="446.745" y="131.068" fill="none" width="48.404" height="20.803"/>
	<text transform="matrix(1 0 0 1 460.4521 139.9062)" fill="#4D4D4D" font-family="'PermanentMarker'" font-size="14.6921">NO</text>
</g>
<g>
	<rect x="58" y="146.394" fill="#FF7BAC" width="111" height="31"/>
	<rect x="14.804" y="158.593" fill="none" width="197.107" height="20.803"/>
	<text transform="matrix(1 0 0 1 63.8579 167.4312)" fill="#4D4D4D" font-family="'PermanentMarker'" font-size="14.6921">Build a Chart</text>
</g>
<path fill="#FF931E" d="M765.053,89.17c-1.318,0-2.516,0.505-3.421,1.328l-9.734-4.965c0.038-0.252,0.064-0.51,0.064-0.775
	c0-0.149-0.01-0.295-0.021-0.441l9.826-5.01c0.887,0.75,2.032,1.204,3.287,1.204c2.811,0,5.092-2.279,5.092-5.092
	c0-2.812-2.281-5.093-5.092-5.093c-2.814,0-5.094,2.281-5.094,5.093c0,0.155,0.011,0.308,0.024,0.459l-9.816,5.005
	c-0.888-0.758-2.038-1.218-3.297-1.218c-2.813,0-5.095,2.28-5.095,5.092s2.281,5.092,5.095,5.092c1.132,0,2.177-0.375,3.022-1.002
	l10.081,5.14c-0.004,0.092-0.015,0.181-0.015,0.272c0,2.812,2.279,5.093,5.092,5.093s5.092-2.28,5.092-5.093
	C770.146,91.45,767.865,89.17,765.053,89.17z"/>
</svg>
