<?xml version="1.0" encoding="utf-8"?>
<!-- Generator: Adobe Illustrator 16.0.0, SVG Export Plug-In . SVG Version: 6.00 Build 0)  -->
<!DOCTYPE svg PUBLIC "-//W3C//DTD SVG 1.1//EN" "http://www.w3.org/Graphics/SVG/1.1/DTD/svg11.dtd">
<svg version="1.1" id="Layer_1" xmlns="http://www.w3.org/2000/svg" xmlns:xlink="http://www.w3.org/1999/xlink" x="0px" y="0px"
	 width="866.859px" height="275.395px" viewBox="0 0 866.859 275.395" enable-background="new 0 0 866.859 275.395"
	 xml:space="preserve">
<g>
	<rect x="651" y="62.394" fill="#FFF93F" width="199" height="100"/>
	<rect x="16" y="120.394" fill="#FFF93F" width="199" height="100"/>
	<circle fill="#ED1E79" cx="434.429" cy="137.697" r="98.262"/>
	<g enable-background="new    ">
		<path fill="#FFFFFF" d="M426.788,89.377h-4.991v-20.15h4.991c1.612,0,2.837,0.383,3.674,1.147
			c0.837,0.764,1.255,1.829,1.255,3.191v11.472c0,1.385-0.414,2.454-1.24,3.208C429.65,89,428.42,89.377,426.788,89.377z
			 M429.547,85.037V73.567c0-0.659-0.243-1.238-0.729-1.734c-0.486-0.496-1.163-0.744-2.031-0.744h-2.821v16.43h2.821
			c0.868,0,1.545-0.242,2.031-0.729C429.304,86.303,429.547,85.719,429.547,85.037z"/>
		<path fill="#FFFFFF" d="M447.526,73.102v12.4c0,1.385-0.438,2.454-1.317,3.209c-0.879,0.754-2.191,1.131-3.938,1.131
			c-1.747,0-3.063-0.377-3.952-1.131c-0.891-0.755-1.333-1.824-1.333-3.209v-12.4c0-1.384,0.438-2.453,1.316-3.208
			c0.877-0.754,2.189-1.132,3.938-1.132c1.746,0,3.062,0.378,3.952,1.132C447.082,70.649,447.526,71.718,447.526,73.102z
			 M445.356,85.502v-12.4c0-1.65-1.034-2.479-3.103-2.479s-3.1,0.827-3.1,2.479v12.4c0,1.653,1.031,2.479,3.1,2.479
			S445.356,87.156,445.356,85.502z"/>
	</g>
	<g enable-background="new    ">
		<path fill="#FFFFFF" d="M385.729,127.377h-2.17v-7.225l-5.115-12.928h2.294l3.906,10.386l3.906-10.386h2.294l-5.115,12.958
			V127.377L385.729,127.377z"/>
		<path fill="#FFFFFF" d="M404.793,111.102v12.4c0,1.385-0.439,2.454-1.317,3.209c-0.878,0.754-2.189,1.131-3.937,1.131
			s-3.064-0.377-3.953-1.131c-0.889-0.755-1.333-1.824-1.333-3.209v-12.4c0-1.384,0.439-2.453,1.318-3.208
			c0.878-0.754,2.19-1.132,3.937-1.132c1.746,0,3.063,0.378,3.952,1.132C404.349,108.649,404.793,109.718,404.793,111.102z
			 M402.624,123.502v-12.4c0-1.65-1.034-2.479-3.1-2.479c-2.066,0-3.102,0.827-3.102,2.479v12.4c0,1.651,1.033,2.479,3.102,2.479
			C401.591,125.982,402.624,125.156,402.624,123.502z"/>
		<path fill="#FFFFFF" d="M418.589,123.502v-16.275h2.17v16.275c0,1.385-0.438,2.454-1.315,3.209
			c-0.879,0.754-2.191,1.131-3.938,1.131s-3.062-0.377-3.953-1.131c-0.889-0.755-1.333-1.824-1.333-3.209v-16.275h2.17v16.275
			c0,1.651,1.033,2.479,3.102,2.479C417.555,125.983,418.589,125.156,418.589,123.502z"/>
		<path fill="#FFFFFF" d="M435.948,127.377h-2.17v-20.15h2.17l6.728,15.5v-15.5h2.17v20.15h-2.17l-6.728-15.5V127.377z"/>
		<path fill="#FFFFFF" d="M460.189,127.377h-9.146v-20.15h8.835v1.86h-6.665v7.13h5.425v1.86h-5.425v7.438h6.977V127.377z"/>
		<path fill="#FFFFFF" d="M473.984,127.377h-9.146v-20.15h8.835v1.86h-6.665v7.13h5.425v1.86h-5.425v7.438h6.977V127.377z"/>
		<path fill="#FFFFFF" d="M483.625,127.377h-4.99v-20.15h4.99c1.613,0,2.838,0.383,3.674,1.147c0.838,0.765,1.256,1.829,1.256,3.191
			v11.472c0,1.385-0.414,2.454-1.238,3.208C486.488,127,485.258,127.377,483.625,127.377z M486.385,123.037v-11.472
			c0-0.659-0.243-1.238-0.729-1.734c-0.486-0.496-1.162-0.744-2.031-0.744h-2.82v16.43h2.82c0.869,0,1.545-0.242,2.031-0.729
			C486.142,124.303,486.385,123.719,486.385,123.037z"/>
	</g>
	<g enable-background="new    ">
		<path fill="#FFFFFF" d="M398.532,145.227h3.255l4.557,20.15h-2.17l-1.054-4.65h-5.921l-1.054,4.65h-2.17L398.532,145.227z
			 M400.144,147.645l-2.542,11.225h5.084L400.144,147.645z"/>
		<path fill="#FFFFFF" d="M419.983,165.377h-2.171v-20.15h8.524v1.86h-6.354v7.13h5.113v1.86h-5.113V165.377L419.983,165.377z"/>
		<path fill="#FFFFFF" d="M430.678,165.377v-20.15h2.17v18.29h5.675v1.86H430.678z"/>
		<path fill="#FFFFFF" d="M452.315,149.102v12.4c0,1.385-0.438,2.454-1.317,3.209c-0.879,0.754-2.191,1.131-3.938,1.131
			c-1.745,0-3.062-0.377-3.95-1.131c-0.891-0.755-1.333-1.824-1.333-3.209v-12.4c0-1.384,0.438-2.453,1.316-3.208
			c0.877-0.754,2.189-1.132,3.938-1.132c1.746,0,3.062,0.378,3.952,1.132C451.871,146.649,452.315,147.718,452.315,149.102z
			 M450.146,161.502v-12.4c0-1.65-1.034-2.479-3.103-2.479s-3.1,0.827-3.1,2.479v12.4c0,1.651,1.031,2.479,3.1,2.479
			S450.146,163.156,450.146,161.502z"/>
		<path fill="#FFFFFF" d="M462.391,165.377h-3.038l-3.007-20.15h2.17l2.542,17.021l3.317-17.021h2.324l3.315,17.021l2.542-17.021
			h2.17l-3.007,20.15h-3.038l-3.16-16.089L462.391,165.377z"/>
	</g>
	<g enable-background="new    ">
		<path fill="#FFFFFF" d="M401.431,199.502v-1.705h2.17v1.705c0,1.385-0.424,2.454-1.271,3.209
			c-0.848,0.754-2.119,1.131-3.813,1.131c-1.692,0-2.976-0.377-3.844-1.131c-0.868-0.755-1.302-1.824-1.302-3.209v-12.4
			c0-1.384,0.423-2.453,1.271-3.208c0.847-0.754,2.119-1.132,3.813-1.132s2.976,0.378,3.844,1.132
			c0.868,0.755,1.302,1.824,1.302,3.208v2.945h-2.17v-2.945c0-1.65-0.979-2.479-2.943-2.479s-2.945,0.827-2.945,2.479v12.4
			c0,1.651,0.98,2.479,2.945,2.479C400.449,201.983,401.431,201.156,401.431,199.502z"/>
		<path fill="#FFFFFF" d="M411.195,203.377h-2.17v-20.15h2.17v8.99h6.105v-8.99h2.17v20.15h-2.17v-9.3h-6.105V203.377z"/>
		<path fill="#FFFFFF" d="M428.369,183.227h3.255l4.558,20.15h-2.17l-1.055-4.65h-5.921l-1.054,4.65h-2.17L428.369,183.227z
			 M429.981,185.645l-2.542,11.225h5.084L429.981,185.645z"/>
		<path fill="#FFFFFF" d="M442.691,203.377h-2.17v-20.15h4.68c1.613,0,2.838,0.383,3.674,1.147c0.838,0.765,1.256,1.829,1.256,3.191
			v4.342c0,2.105-0.91,3.449-2.729,4.027l3.812,7.44h-2.387l-3.628-7.13h-2.51L442.691,203.377L442.691,203.377z M447.961,191.907
			v-4.342c0-0.783-0.238-1.396-0.713-1.829c-0.477-0.435-1.158-0.649-2.047-0.649h-2.51v9.3h2.51
			C447.041,194.387,447.961,193.561,447.961,191.907z"/>
		<path fill="#FFFFFF" d="M463.615,183.227v1.86h-4.029v18.29h-2.17v-18.29h-4.03v-1.86H463.615z"/>
		<path fill="#FFFFFF" d="M470.404,196.867v-1.86l1.271-1.829c0.082-0.103,0.236-0.32,0.465-0.65
			c0.229-0.329,0.395-0.566,0.496-0.714c0.104-0.144,0.248-0.359,0.436-0.648c0.186-0.289,0.325-0.521,0.418-0.697
			c0.094-0.176,0.189-0.377,0.295-0.604c0.207-0.412,0.311-0.815,0.311-1.21v-1.675c0-0.743-0.244-1.32-0.729-1.733
			c-0.486-0.413-1.215-0.62-2.188-0.62s-1.7,0.207-2.186,0.62c-0.486,0.413-0.729,0.99-0.729,1.733v2.762h-2.17v-2.638
			c0-2.893,1.663-4.34,4.99-4.34c1.736,0,3.033,0.378,3.891,1.132c0.857,0.755,1.287,1.824,1.287,3.208v1.551
			c0,0.702-0.223,1.482-0.667,2.342c-0.442,0.856-1.191,2.021-2.247,3.485l-1.705,2.39h-1.237L470.404,196.867L470.404,196.867z
			 M472.172,203.377h-2.17v-3.41h2.17V203.377z"/>
	</g>
	<g>
		<rect x="670.095" y="78.567" fill="none" width="161.668" height="66.929"/>
		<g enable-background="new    ">
			<path fill="#333333" d="M684.473,86.506l-3.761-6.182c-0.261-0.422-0.521-0.521-0.938-0.521h-0.32v-1.241h0.541
				c0.959,0,1.32,0.143,1.92,1.121l2.381,3.98c0.439,0.738,0.859,1.58,0.859,1.58h0.041c0,0,0.42-0.842,0.857-1.58l2.381-3.98
				c0.602-0.979,0.961-1.121,1.92-1.121h0.541v1.241h-0.318c-0.4,0-0.683,0.1-0.92,0.521l-3.781,6.182v6.121h-1.4L684.473,86.506
				L684.473,86.506z"/>
			<path fill="#333333" d="M695.793,82.325c2.94,0,5.32,2.238,5.32,5.221c0,3.041-2.38,5.321-5.301,5.321
				c-2.94,0-5.32-2.28-5.32-5.321C690.492,84.566,692.872,82.325,695.793,82.325z M695.812,91.647c2.141,0,3.898-1.76,3.898-4.101
				c0-2.28-1.76-3.98-3.898-3.98c-2.16,0-3.922,1.7-3.922,3.98C691.893,89.887,693.652,91.647,695.812,91.647z"/>
			<path fill="#333333" d="M703.611,84.186c0-0.278-0.159-0.438-0.439-0.438h-0.84v-1.183h1.42c0.86,0,1.221,0.36,1.221,1.183v4.859
				c0,1.58,0.262,2.98,2.2,2.98c2.28,0,3.7-2.021,3.7-4.201v-4.821h1.361v8.442c0,0.3,0.158,0.438,0.438,0.438h0.84v1.183h-1.38
				c-0.841,0-1.22-0.36-1.22-1.12v-0.46c0-0.4,0.039-0.721,0.039-0.721h-0.039c-0.4,0.979-1.721,2.541-3.922,2.541
				c-2.38,0-3.381-1.28-3.381-3.901L703.611,84.186L703.611,84.186z"/>
			<path fill="#333333" d="M721.092,80.185c0-0.28-0.16-0.438-0.438-0.438h-0.843v-1.183h1.423c0.858,0,1.22,0.36,1.22,1.183v4.261
				c0,0.46-0.039,0.82-0.039,0.82h0.039c0.381-0.96,1.721-2.5,3.979-2.5c2.501,0,3.382,1.42,3.382,3.898v4.781
				c0,0.3,0.158,0.438,0.439,0.438h0.84v1.183h-1.42c-0.861,0-1.221-0.36-1.221-1.221v-4.82c0-1.581-0.24-2.98-2.201-2.98
				c-1.699,0-3.18,1.182-3.641,2.86c-0.119,0.399-0.16,0.86-0.16,1.34v4.821h-1.359V80.185L721.092,80.185z"/>
			<path fill="#333333" d="M738.473,86.426h0.562v-0.12c0-2.101-0.761-2.841-2.604-2.841c-0.5,0-1.96,0.141-1.96,0.88v0.641h-1.3
				v-0.96c0-1.398,2.4-1.698,3.28-1.698c3.181,0,3.938,1.698,3.938,3.858v4.821c0,0.3,0.16,0.438,0.44,0.438h0.841v1.183h-1.381
				c-0.859,0-1.2-0.38-1.2-1.2c0-0.44,0.021-0.74,0.021-0.74h-0.041c0.021,0-0.82,2.183-3.34,2.183c-1.683,0-3.423-0.98-3.423-2.98
				C732.312,86.546,736.732,86.426,738.473,86.426z M735.952,91.707c1.921,0,3.081-2.001,3.081-3.741v-0.46h-0.58
				c-1.58,0-4.741,0.04-4.741,2.301C733.712,90.746,734.451,91.707,735.952,91.707z"/>
			<path fill="#333333" d="M743.012,84.205c-0.141-0.36-0.34-0.46-0.701-0.46h-0.18v-1.183h0.541c0.959,0,1.26,0.2,1.602,1.103
				l2.42,6.279c0.181,0.5,0.341,1.183,0.341,1.183h0.04c0,0,0.16-0.683,0.34-1.183l2.421-6.279c0.34-0.9,0.64-1.103,1.58-1.103
				h0.521v1.183h-0.182c-0.359,0-0.581,0.1-0.701,0.46l-3.278,8.422h-1.48L743.012,84.205z"/>
			<path fill="#333333" d="M757.771,82.325c2.779,0,4.221,2.14,4.221,4.641c0,0.24-0.039,0.68-0.039,0.68h-7.722
				c0.04,2.541,1.818,4.001,3.898,4.001c1.841,0,3.021-1.238,3.021-1.238l0.659,1.021c0,0-1.461,1.44-3.739,1.44
				c-2.98,0-5.264-2.16-5.264-5.264C752.811,84.305,755.071,82.325,757.771,82.325z M760.593,86.566
				c-0.08-2.08-1.358-3.101-2.841-3.101c-1.66,0-3.121,1.08-3.461,3.101H760.593z"/>
			<path fill="#333333" d="M774.512,82.325c1.143,0,3.581,0.479,3.581,2.14v0.9h-1.28v-0.58c0-0.842-1.461-1.24-2.301-1.24
				c-2.16,0-3.898,1.62-3.898,4.061c0,2.48,1.818,4.021,3.938,4.021c2.062,0,3.241-1.421,3.241-1.421l0.64,1.021
				c0,0-1.358,1.643-3.938,1.643c-3.001,0-5.281-2.143-5.281-5.264C769.211,84.526,771.512,82.325,774.512,82.325z"/>
			<path fill="#333333" d="M785.071,82.325c2.938,0,5.319,2.238,5.319,5.221c0,3.041-2.381,5.321-5.301,5.321
				c-2.939,0-5.321-2.28-5.321-5.321C779.771,84.566,782.15,82.325,785.071,82.325z M785.092,91.647c2.143,0,3.9-1.76,3.9-4.101
				c0-2.28-1.76-3.98-3.9-3.98c-2.16,0-3.921,1.7-3.921,3.98C781.171,89.887,782.932,91.647,785.092,91.647z"/>
			<path fill="#333333" d="M792.931,84.186c0-0.278-0.157-0.438-0.438-0.438h-0.84v-1.183h1.398c0.84,0,1.223,0.36,1.223,1.12v0.461
				c0,0.399-0.041,0.722-0.041,0.722h0.041c0.5-1.36,2.078-2.54,3.641-2.54c1.859,0,2.82,0.857,3.121,2.521h0.039
				c0.541-1.36,2-2.521,3.701-2.521c2.438,0,3.341,1.42,3.341,3.898v4.781c0,0.3,0.159,0.438,0.438,0.438h0.84v1.183h-1.42
				c-0.859,0-1.221-0.36-1.221-1.221v-4.843c0-1.64-0.34-3-2.181-3c-1.521,0-2.78,1.36-3.183,2.84
				c-0.141,0.44-0.18,0.923-0.18,1.463v4.761h-1.361v-6.062c0-1.521-0.219-3-2.117-3c-1.643,0-2.861,1.42-3.281,2.96
				c-0.12,0.42-0.16,0.883-0.16,1.343v4.761h-1.36V84.186L792.931,84.186z"/>
			<path fill="#333333" d="M815.571,82.325c2.778,0,4.221,2.14,4.221,4.641c0,0.24-0.04,0.68-0.04,0.68h-7.721
				c0.039,2.541,1.818,4.001,3.898,4.001c1.842,0,3.021-1.238,3.021-1.238l0.66,1.021c0,0-1.46,1.44-3.741,1.44
				c-2.98,0-5.261-2.16-5.261-5.264C810.61,84.305,812.871,82.325,815.571,82.325z M818.393,86.566
				c-0.08-2.08-1.359-3.101-2.842-3.101c-1.66,0-3.12,1.08-3.461,3.101H818.393z"/>
		</g>
		<g enable-background="new    ">
			<path fill="#333333" d="M701.691,107.705h-1.32v-1.143h1.341v-2.778h1.341v2.778h2.521v1.143h-2.521v5.121
				c0,2.358,1.5,2.658,2.26,2.658c0.28,0,0.463-0.04,0.463-0.04v1.223c0,0-0.24,0.04-0.58,0.04c-1.161,0-3.502-0.38-3.502-3.741
				L701.691,107.705L701.691,107.705z"/>
			<path fill="#333333" d="M712.433,106.325c2.94,0,5.321,2.238,5.321,5.221c0,3.041-2.381,5.321-5.301,5.321
				c-2.941,0-5.321-2.28-5.321-5.321C707.132,108.566,709.512,106.325,712.433,106.325z M712.453,115.647
				c2.141,0,3.9-1.76,3.9-4.101c0-2.28-1.762-3.98-3.9-3.98c-2.16,0-3.921,1.7-3.921,3.98
				C708.532,113.887,710.293,115.647,712.453,115.647z"/>
			<path fill="#333333" d="M725.852,107.705h-1.318v-1.143h1.34v-2.778h1.341v2.778h2.521v1.143h-2.521v5.121
				c0,2.358,1.501,2.658,2.261,2.658c0.279,0,0.461-0.04,0.461-0.04v1.223c0,0-0.239,0.04-0.58,0.04c-1.16,0-3.5-0.38-3.5-3.741
				v-5.261H725.852z"/>
			<path fill="#333333" d="M732.231,104.185c0-0.28-0.159-0.438-0.44-0.438h-0.84v-1.183h1.42c0.861,0,1.221,0.36,1.221,1.183v4.261
				c0,0.46-0.04,0.82-0.04,0.82h0.04c0.381-0.96,1.721-2.5,3.98-2.5c2.501,0,3.381,1.42,3.381,3.898v4.781
				c0,0.3,0.16,0.438,0.438,0.438h0.843v1.183h-1.423c-0.858,0-1.22-0.36-1.22-1.221v-4.82c0-1.581-0.24-2.98-2.201-2.98
				c-1.698,0-3.181,1.182-3.641,2.86c-0.12,0.399-0.16,0.86-0.16,1.34v4.821h-1.358V104.185z"/>
			<path fill="#333333" d="M748.412,106.325c2.781,0,4.221,2.14,4.221,4.641c0,0.24-0.04,0.68-0.04,0.68h-7.722
				c0.04,2.541,1.82,4.001,3.9,4.001c1.842,0,3.021-1.238,3.021-1.238l0.66,1.021c0,0-1.461,1.44-3.74,1.44
				c-2.979,0-5.262-2.16-5.262-5.264C743.451,108.305,745.711,106.325,748.412,106.325z M751.232,110.566
				c-0.08-2.08-1.359-3.101-2.842-3.101c-1.658,0-3.119,1.08-3.461,3.101H751.232z"/>
			<path fill="#333333" d="M760.791,108.186c0-0.278-0.16-0.438-0.439-0.438h-0.841v-1.183h1.4c0.841,0,1.22,0.343,1.22,1.143v0.68
				c0,0.421-0.039,0.761-0.039,0.761h0.039c0.48-1.521,1.604-2.681,3.182-2.681c0.279,0,0.539,0.06,0.539,0.06v1.343
				c0,0-0.237-0.04-0.5-0.04c-1.42,0-2.479,1.12-2.92,2.601c-0.198,0.64-0.278,1.32-0.278,1.96v4.241h-1.36L760.791,108.186
				L760.791,108.186z"/>
			<path fill="#333333" d="M768.131,108.186c0-0.278-0.16-0.438-0.438-0.438h-0.843v-1.183h1.422c0.858,0,1.221,0.36,1.221,1.223
				v7.222c0,0.3,0.16,0.438,0.438,0.438h0.841v1.182h-1.42c-0.859,0-1.222-0.36-1.222-1.221V108.186L768.131,108.186z
				 M768.091,102.564h1.32v1.723h-1.32V102.564z"/>
			<path fill="#333333" d="M776.512,106.325c2.701,0,3.342,1.72,3.342,1.72h0.039c0,0,0-0.18,0-0.38c0-0.722,0.32-1.103,1.143-1.103
				h1.398v1.183h-0.818c-0.281,0-0.44,0.14-0.44,0.438v8.201c0,3.201-2.358,4.441-4.841,4.441c-1.141,0-2.301-0.303-3.281-0.803
				l0.521-1.14c0,0,1.241,0.7,2.721,0.7c1.961,0,3.521-0.921,3.521-3.161v-0.88c0-0.38,0.02-0.722,0.02-0.722h-0.039
				c-0.601,1.102-1.602,1.74-3.161,1.74c-2.7,0-4.479-2.141-4.479-5.161C772.15,108.385,773.811,106.325,776.512,106.325z
				 M779.832,111.406c0-2.941-1.4-3.843-3.18-3.843c-1.961,0-3.104,1.42-3.104,3.82s1.301,3.961,3.281,3.961
				C778.432,115.347,779.832,114.366,779.832,111.406z"/>
			<path fill="#333333" d="M784.57,104.185c0-0.28-0.16-0.438-0.439-0.438h-0.841v-1.183h1.421c0.859,0,1.22,0.36,1.22,1.183v4.261
				c0,0.46-0.04,0.82-0.04,0.82h0.04c0.38-0.96,1.723-2.5,3.981-2.5c2.5,0,3.381,1.42,3.381,3.898v4.781
				c0,0.3,0.16,0.438,0.439,0.438h0.84v1.183h-1.42c-0.86,0-1.223-0.36-1.223-1.221v-4.82c0-1.581-0.238-2.98-2.198-2.98
				c-1.7,0-3.183,1.182-3.643,2.86c-0.12,0.399-0.16,0.86-0.16,1.34v4.821h-1.358V104.185L784.57,104.185z"/>
			<path fill="#333333" d="M796.851,107.705h-1.318v-1.143h1.341v-2.778h1.34v2.778h2.521v1.143h-2.521v5.121
				c0,2.358,1.5,2.658,2.26,2.658c0.281,0,0.461-0.04,0.461-0.04v1.223c0,0-0.238,0.04-0.578,0.04c-1.16,0-3.502-0.38-3.502-3.741
				L796.851,107.705L796.851,107.705z"/>
		</g>
		<g enable-background="new    ">
			<path fill="#333333" d="M725.33,132.186c0-0.278-0.16-0.438-0.44-0.438h-0.841v-1.183h1.381c0.86,0,1.2,0.36,1.2,1.062
				c0,0.398-0.021,0.68-0.021,0.68h0.041c0,0,0.8-1.979,3.461-1.979c2.698,0,4.381,2.158,4.381,5.278c0,3.183-1.9,5.264-4.502,5.264
				c-2.46,0-3.301-1.9-3.301-1.9h-0.039c0,0,0.039,0.36,0.039,0.88v4.781h-1.359V132.186L725.33,132.186z M729.851,139.667
				c1.78,0,3.241-1.501,3.241-4.062c0-2.46-1.301-4.04-3.182-4.04c-1.68,0-3.26,1.2-3.26,4.062
				C726.65,137.647,727.75,139.667,729.851,139.667z"/>
			<path fill="#333333" d="M736.869,128.185c0-0.28-0.159-0.438-0.439-0.438h-0.84v-1.183h1.42c0.86,0,1.221,0.36,1.221,1.223
				v11.223c0,0.3,0.16,0.438,0.439,0.438h0.84v1.182h-1.42c-0.857,0-1.221-0.36-1.221-1.221V128.185z"/>
			<path fill="#333333" d="M747.011,134.426h0.562v-0.12c0-2.101-0.762-2.841-2.602-2.841c-0.5,0-1.961,0.141-1.961,0.88v0.641
				h-1.301v-0.96c0-1.398,2.401-1.698,3.281-1.698c3.181,0,3.939,1.698,3.939,3.858v4.821c0,0.3,0.16,0.438,0.439,0.438h0.84v1.183
				h-1.38c-0.86,0-1.2-0.38-1.2-1.2c0-0.44,0.021-0.74,0.021-0.74h-0.039c0.02,0-0.82,2.183-3.343,2.183
				c-1.681,0-3.421-0.98-3.421-2.98C740.85,134.546,745.271,134.426,747.011,134.426z M744.49,139.707c1.92,0,3.08-2.001,3.08-3.741
				v-0.46h-0.58c-1.58,0-4.74,0.04-4.74,2.301C742.25,138.746,742.99,139.707,744.49,139.707z"/>
			<path fill="#333333" d="M756.73,130.325c1.141,0,3.579,0.479,3.579,2.14v0.9h-1.278v-0.58c0-0.842-1.461-1.24-2.303-1.24
				c-2.158,0-3.898,1.62-3.898,4.061c0,2.48,1.82,4.021,3.939,4.021c2.062,0,3.24-1.421,3.24-1.421l0.642,1.021
				c0,0-1.36,1.643-3.94,1.643c-3.001,0-5.281-2.143-5.281-5.264C751.43,132.526,753.73,130.325,756.73,130.325z"/>
			<path fill="#333333" d="M766.95,130.325c2.78,0,4.221,2.14,4.221,4.641c0,0.24-0.04,0.68-0.04,0.68h-7.721
				c0.039,2.541,1.82,4.001,3.9,4.001c1.84,0,3.021-1.238,3.021-1.238l0.66,1.021c0,0-1.46,1.44-3.741,1.44
				c-2.98,0-5.261-2.16-5.261-5.264C761.989,132.305,764.25,130.325,766.95,130.325z M769.771,134.566
				c-0.08-2.08-1.361-3.101-2.844-3.101c-1.659,0-3.12,1.08-3.461,3.101H769.771z"/>
			<path fill="#333333" d="M774.369,139.087h1.541v1.54h-1.541V139.087z M774.409,126.564h1.398l-0.06,10.383h-1.281
				L774.409,126.564z"/>
		</g>
	</g>
	
		<line fill="none" stroke="#20FFA8" stroke-width="6" stroke-linecap="round" stroke-miterlimit="10" x1="639" y1="109.394" x2="539" y2="109.394"/>
	<rect x="562" y="93.394" fill="#20FFA8" width="54" height="28"/>
	<rect x="572.566" y="101.942" fill="none" width="35.209" height="15.655"/>
	<g enable-background="new    ">
		<path fill="#333333" d="M575.957,114.763c-1.16-0.158-1.864-0.771-2.114-1.838l0.021-0.217c0.052-0.158,0.109-0.336,0.178-0.533
			c0.062-0.225,0.138-0.444,0.217-0.662s0.211-0.411,0.396-0.583c0.04-0.118,0.113-0.299,0.228-0.543
			c0.112-0.243,0.3-0.609,0.563-1.097c0.21-0.382,0.378-0.687,0.504-0.908c0.125-0.224,0.227-0.396,0.306-0.514
			c-0.132-0.237-0.313-0.47-0.554-0.691c-0.211-0.396-0.394-0.773-0.543-1.136c-0.151-0.363-0.269-0.688-0.348-0.979
			c-0.014-0.314-0.064-0.639-0.156-0.969c-0.039-0.171-0.078-0.342-0.118-0.514c-0.04-0.171-0.062-0.351-0.062-0.533
			c-0.053-0.092-0.099-0.21-0.138-0.355l0.039-0.235c0.065-0.104,0.083-0.246,0.05-0.424c-0.033-0.181-0.076-0.359-0.129-0.546
			c-0.039-0.171-0.076-0.352-0.107-0.543c-0.031-0.188-0.044-0.379-0.029-0.562c0.014-0.186,0.062-0.361,0.146-0.533
			c0.086-0.171,0.234-0.313,0.445-0.435l0.197-0.14l0.196,0.118c0.146,0.093,0.282,0.171,0.414,0.237
			c0.134,0.063,0.265,0.132,0.396,0.197c0.158,0.078,0.314,0.159,0.474,0.247c0.159,0.086,0.329,0.181,0.516,0.284l0.195,0.141
			l-0.02,0.217c0,0.027,0.007,0.06,0.02,0.099c0.015,0.04,0.032,0.073,0.062,0.102l0.217,0.059l0.02,0.277v0.234
			c0,0.119,0.009,0.201,0.021,0.247c0.013,0.047,0.04,0.098,0.079,0.148l0.099,0.257c0,0.237,0.021,0.447,0.062,0.632
			c0.039,0.187,0.085,0.369,0.138,0.555c0.065,0.185,0.118,0.371,0.158,0.562c0.04,0.191,0.046,0.398,0.02,0.622
			c0.079-0.039,0.158-0.099,0.237-0.178c0.026-0.026,0.056-0.055,0.089-0.079c0.032-0.026,0.069-0.053,0.108-0.079l1.383-1.876
			l-0.039-0.237l0.494-0.475c0.131-0.104,0.256-0.214,0.375-0.325c0.118-0.112,0.217-0.24,0.296-0.386l0.118-0.18
			c0.594-0.789,1.355-1.275,2.292-1.462l0.336-0.079l0.099,0.316c0.066,0.185,0.194,0.346,0.385,0.484
			c0.191,0.138,0.398,0.271,0.623,0.402l0.219,0.141c0.077,0.157,0.117,0.274,0.117,0.354s-0.008,0.146-0.02,0.197l0.098,0.257
			c-0.145,0.382-0.303,0.655-0.474,0.82c-0.171,0.164-0.349,0.317-0.533,0.464c-0.146,0.118-0.275,0.237-0.396,0.354
			c-0.118,0.118-0.211,0.25-0.276,0.396l-0.157,0.197c-0.33,0.171-0.541,0.422-0.633,0.751l-0.079,0.274h-0.296
			c-0.014,0-0.047,0.029-0.1,0.09c-0.055,0.061-0.131,0.2-0.236,0.426c-0.119,0.157-0.201,0.26-0.247,0.306
			c-0.046,0.047-0.083,0.083-0.107,0.109c-0.026,0.063-0.051,0.125-0.068,0.178c-0.021,0.053-0.043,0.118-0.069,0.197l-0.119,0.156
			c-0.115,0.105-0.202,0.207-0.256,0.308c-0.053,0.099-0.11,0.215-0.178,0.346c-0.053,0.119-0.112,0.24-0.178,0.365
			c-0.066,0.126-0.158,0.247-0.277,0.366l0.04,0.217l-0.158,0.139c-0.104,0.092-0.197,0.207-0.274,0.346
			c-0.079,0.14-0.158,0.279-0.237,0.427c-0.079,0.156-0.165,0.313-0.257,0.474c-0.093,0.16-0.211,0.304-0.355,0.436
			c-0.092,0.236-0.175,0.423-0.247,0.555c-0.07,0.132-0.192,0.289-0.363,0.474c-0.158,0.632-0.533,1.312-1.126,2.035
			c-0.016,0.146-0.059,0.286-0.131,0.424c-0.07,0.14-0.146,0.27-0.227,0.386c-0.027,0.055-0.057,0.108-0.089,0.168
			c-0.033,0.061-0.057,0.104-0.069,0.13l-0.059,0.218c-0.08,0.145-0.162,0.264-0.248,0.354s-0.168,0.18-0.246,0.257
			c-0.04,0.026-0.076,0.062-0.109,0.101c-0.031,0.039-0.062,0.072-0.088,0.099L575.957,114.763z"/>
		<path fill="#333333" d="M584.096,113.439c-0.104-0.104-0.182-0.229-0.229-0.375c-0.046-0.145-0.154-0.264-0.325-0.354
			c-0.026-0.197-0.063-0.425-0.108-0.684c-0.047-0.257-0.093-0.521-0.139-0.79c-0.047-0.27-0.079-0.538-0.099-0.811
			c-0.021-0.27-0.011-0.517,0.027-0.74c0.026-0.118,0.069-0.229,0.13-0.336c0.061-0.104,0.117-0.207,0.179-0.307
			c0.06-0.101,0.104-0.2,0.138-0.308c0.034-0.104,0.037-0.211,0.01-0.314c0.08-0.013,0.13-0.056,0.148-0.128
			s0.082-0.098,0.188-0.069c0.094-0.289,0.191-0.56,0.299-0.81c0.104-0.25,0.217-0.494,0.336-0.731
			c0.117-0.237,0.238-0.477,0.363-0.721c0.125-0.243,0.24-0.519,0.348-0.82c-0.227-0.21-0.387-0.438-0.484-0.681
			c-0.099-0.244-0.174-0.491-0.227-0.741c-0.055-0.25-0.095-0.504-0.119-0.761c-0.026-0.257-0.078-0.519-0.158-0.78
			c0.158-0.237,0.35-0.431,0.573-0.583c0.224-0.15,0.471-0.276,0.739-0.375c0.271-0.099,0.562-0.178,0.881-0.237
			c0.314-0.059,0.65-0.128,1.008-0.207c0.631-0.195,1.197-0.353,1.698-0.464c0.501-0.11,0.985-0.204,1.462-0.275
			c0.475-0.071,0.968-0.14,1.479-0.197c0.515-0.061,1.106-0.148,1.778-0.269c0.013,0.04,0.035,0.062,0.067,0.062s0.075,0,0.13,0
			c0.039,0.092,0.109,0.138,0.217,0.138c0-0.039-0.003-0.075-0.01-0.106c-0.008-0.032-0.012-0.062-0.012-0.089
			c0.026,0,0.062,0.007,0.109,0.02c0.045,0.014,0.085,0.027,0.117,0.04c0.033,0.013,0.062,0.01,0.09-0.01
			c0.025-0.021,0.033-0.062,0.02-0.129c0.158,0.274,0.361,0.504,0.612,0.682c0.25,0.178,0.526,0.333,0.829,0.464
			c0.014,0.119,0.018,0.205,0.011,0.257c-0.007,0.055-0.017,0.104-0.028,0.148c-0.015,0.047-0.021,0.099-0.021,0.158
			c0,0.059,0.014,0.142,0.039,0.247c-0.21,0.354-0.451,0.632-0.721,0.827c-0.271,0.198-0.559,0.352-0.859,0.455
			c-0.302,0.105-0.622,0.187-0.957,0.236c-0.336,0.053-0.68,0.109-1.027,0.168c-0.35,0.062-0.699,0.142-1.057,0.247
			s-0.705,0.264-1.048,0.475c-0.105-0.04-0.2-0.057-0.286-0.05s-0.175,0.023-0.267,0.05c-0.095,0.026-0.194,0.055-0.308,0.079
			c-0.111,0.026-0.248,0.026-0.406,0c-0.104,0.093-0.227,0.157-0.363,0.197c-0.14,0.039-0.279,0.079-0.424,0.118
			c0.063,0.146,0.095,0.29,0.088,0.435c-0.006,0.146,0.01,0.271,0.05,0.376c0.554,0.055,1.165,0.05,1.837-0.011
			c0.672-0.059,1.33-0.102,1.976-0.128c0.015,0.066,0.009,0.112-0.02,0.139c-0.027,0.027-0.04,0.072-0.04,0.14
			c0.119,0.079,0.229,0.178,0.336,0.297c0.104,0.118,0.215,0.231,0.326,0.346c0.109,0.111,0.227,0.204,0.346,0.276
			c0.119,0.07,0.257,0.102,0.415,0.089c0.065,0.132,0.111,0.27,0.138,0.415c0.027,0.145,0.009,0.296-0.059,0.454
			c-0.264,0.171-0.521,0.346-0.771,0.521c-0.251,0.179-0.511,0.339-0.778,0.483c-0.271,0.146-0.562,0.264-0.879,0.354
			c-0.316,0.094-0.659,0.131-1.027,0.118c-0.066,0-0.122,0-0.168,0c-0.047,0-0.104-0.024-0.168-0.079
			c-0.132,0.066-0.308,0.089-0.523,0.069c-0.216-0.021-0.396,0.003-0.543,0.069c-0.186-0.066-0.396-0.102-0.643-0.102
			s-0.457-0.032-0.644-0.099c-0.235,0.343-0.462,0.701-0.672,1.077c-0.211,0.375-0.396,0.771-0.554,1.193
			c0.541,0.078,0.988,0.111,1.344,0.101c0.355-0.016,0.691-0.04,1.008-0.079c0.316-0.04,0.644-0.079,0.979-0.119
			c0.336-0.039,0.747-0.052,1.234-0.039c0.327-0.158,0.706-0.267,1.136-0.326c0.428-0.059,0.825-0.146,1.193-0.267
			c0.134,0.04,0.244,0.115,0.336,0.228c0.094,0.111,0.184,0.226,0.269,0.336c0.086,0.111,0.175,0.207,0.267,0.286
			c0.094,0.079,0.211,0.105,0.355,0.079c0.064,0.065,0.107,0.146,0.129,0.237c0.02,0.092,0.039,0.178,0.059,0.257
			c0.021,0.078,0.052,0.142,0.092,0.188c0.038,0.048,0.109,0.062,0.217,0.051c-0.25,0.514-0.53,0.907-0.84,1.186
			c-0.311,0.276-0.658,0.49-1.049,0.644c-0.389,0.15-0.82,0.264-1.303,0.336c-0.479,0.071-1.018,0.16-1.609,0.267
			c-0.146,0.026-0.268,0.023-0.365-0.01c-0.1-0.032-0.201-0.049-0.308-0.049c-0.368,0.063-0.808,0.131-1.312,0.195
			c-0.508,0.065-1.019,0.094-1.531,0.079c-0.514-0.014-1.008-0.079-1.479-0.197C584.807,113.952,584.411,113.742,584.096,113.439z"
			/>
		<path fill="#333333" d="M595.928,105.201c0.039-0.197,0.066-0.358,0.079-0.483s-0.033-0.261-0.138-0.405
			c0.052-0.211,0.095-0.375,0.128-0.494c0.032-0.116,0.036-0.281,0.01-0.492c0.118-0.344,0.3-0.634,0.543-0.869
			c0.243-0.236,0.511-0.438,0.8-0.604c0.29-0.164,0.595-0.303,0.909-0.414c0.315-0.11,0.612-0.208,0.891-0.287
			c0-0.052-0.026-0.077-0.079-0.077c-0.055,0-0.066-0.032-0.039-0.101c0.711-0.131,1.426-0.322,2.143-0.572
			c0.719-0.25,1.453-0.475,2.203-0.672c0.75-0.195,1.521-0.317,2.311-0.363c0.791-0.048,1.621,0.056,2.49,0.306
			c0.053,0.158,0.125,0.31,0.217,0.455c0.094,0.145,0.188,0.286,0.286,0.424c0.101,0.139,0.188,0.273,0.269,0.405
			s0.125,0.271,0.139,0.415c0.158,0.145,0.286,0.3,0.385,0.464c0.102,0.165,0.115,0.386,0.051,0.662
			c-0.146,0.104-0.297,0.211-0.453,0.314c-0.158,0.105-0.323,0.204-0.494,0.296c-0.594-0.145-1.188-0.195-1.777-0.156
			c-0.594,0.04-1.127,0.086-1.601,0.139c-0.146-0.158-0.315-0.234-0.516-0.229c-0.197,0.008-0.403,0.04-0.622,0.101
			c-0.217,0.06-0.432,0.119-0.643,0.178c-0.211,0.062-0.408,0.076-0.592,0.05c-0.146,0.132-0.336,0.223-0.573,0.269
			s-0.487,0.082-0.751,0.106c-0.014,0.066,0,0.112,0.039,0.141c0.04,0.024,0.047,0.079,0.021,0.156
			c0.094,0.118,0.22,0.2,0.376,0.246c0.157,0.047,0.318,0.089,0.483,0.129c0.165,0.039,0.312,0.098,0.444,0.168
			c0.131,0.072,0.217,0.188,0.257,0.348c0.237,0.013,0.438,0.076,0.612,0.188c0.171,0.112,0.314,0.247,0.435,0.405
			s0.204,0.325,0.257,0.504c0.053,0.178,0.072,0.339,0.061,0.483c0.053,0.132,0.107,0.185,0.168,0.156
			c0.061-0.024,0.129,0.009,0.208,0.101c0.053,0.197,0.175,0.405,0.364,0.622c0.189,0.218,0.34,0.451,0.443,0.701
			c0.027,0.396,0.05,0.751,0.069,1.065c0.021,0.315-0.036,0.625-0.167,0.928c-0.227,0.58-0.547,1.103-0.971,1.562
			c-0.422,0.462-0.896,0.866-1.432,1.215c-0.533,0.351-1.097,0.652-1.688,0.909c-0.594,0.257-1.181,0.471-1.76,0.642
			c-0.053-0.013-0.113-0.013-0.188,0c-0.072,0.016-0.09-0.024-0.05-0.117c-0.118,0.104-0.255,0.172-0.405,0.196
			c-0.151,0.026-0.316,0.036-0.494,0.03c-0.178-0.007-0.354-0.017-0.533-0.03c-0.178-0.013-0.352-0.007-0.521,0.021
			c-0.105-0.106-0.201-0.211-0.286-0.316c-0.085-0.104-0.155-0.229-0.208-0.375c-0.065-0.014-0.096-0.057-0.088-0.129
			c0.006-0.072-0.023-0.108-0.092-0.108c0-0.053,0.01-0.092,0.021-0.117c0.013-0.025,0.026-0.054,0.04-0.078
			c0.052-0.04,0.075-0.069,0.068-0.09c-0.009-0.021-0.026-0.039-0.061-0.061c-0.033-0.02-0.064-0.043-0.1-0.068
			c-0.034-0.025-0.043-0.061-0.029-0.1c0.066-0.119,0.089-0.26,0.069-0.425c-0.021-0.165-0.036-0.332-0.052-0.504
			c-0.014-0.171,0-0.332,0.039-0.483c0.04-0.149,0.152-0.279,0.336-0.386c0.541,0.053,1.053,0.026,1.531-0.079
			c0.48-0.104,0.938-0.25,1.363-0.435c0.427-0.187,0.836-0.387,1.225-0.604c0.391-0.217,0.77-0.418,1.138-0.603
			c0.039-0.131,0.103-0.243,0.188-0.336c0.085-0.094,0.174-0.183,0.266-0.269c0.094-0.085,0.18-0.178,0.26-0.274
			c0.076-0.101,0.138-0.223,0.178-0.365c0.013-0.053,0.013-0.092,0-0.118c-0.016-0.026-0.033-0.05-0.062-0.069
			c-0.024-0.021-0.053-0.043-0.078-0.067c-0.026-0.026-0.038-0.065-0.038-0.118c-0.04-0.014-0.076-0.026-0.109-0.04
			c-0.033-0.013-0.062-0.021-0.089-0.021c-0.343-0.171-0.704-0.314-1.087-0.435c-0.381-0.119-0.704-0.25-0.967-0.396
			c-0.158,0.104-0.316,0.133-0.477,0.078c-0.159-0.053-0.35-0.104-0.572-0.156c-0.554-0.025-1.075-0.079-1.569-0.157
			c-0.493-0.079-0.974-0.218-1.435-0.415c-0.023-0.079-0.059-0.148-0.098-0.208c-0.04-0.061-0.133-0.075-0.277-0.049
			c-0.092-0.132-0.188-0.254-0.285-0.365C596.096,105.475,596.007,105.347,595.928,105.201z"/>
	</g>
	
		<line fill="none" stroke="#6196FF" stroke-width="6" stroke-linecap="round" stroke-miterlimit="10" x1="329" y1="169.394" x2="229" y2="169.394"/>
	<rect x="252" y="153.394" fill="#6196FF" width="54" height="28"/>
	<rect x="262.566" y="161.942" fill="none" width="35.209" height="15.655"/>
	<g enable-background="new    ">
		<path fill="#333333" d="M269.296,172.254c-0.132,0.104-0.211,0.24-0.237,0.404c-0.026,0.165-0.059,0.324-0.099,0.482
			s-0.109,0.293-0.208,0.404c-0.099,0.112-0.273,0.162-0.523,0.146c-0.053,0.066-0.062,0.105-0.03,0.119
			c0.033,0.015,0.062,0.072,0.089,0.18c-0.185-0.026-0.316-0.016-0.395,0.037c-0.079,0.055-0.178,0.094-0.296,0.118
			c-0.303-0.092-0.556-0.26-0.76-0.503c-0.205-0.244-0.382-0.511-0.534-0.801c-0.151-0.289-0.283-0.585-0.395-0.889
			c-0.112-0.305-0.227-0.566-0.346-0.79c0-0.055,0.023-0.075,0.069-0.069c0.046,0.007,0.089,0.01,0.128,0.01
			c-0.066-0.131-0.115-0.277-0.148-0.442c-0.033-0.164-0.095-0.301-0.188-0.404c0.382-0.816,0.79-1.67,1.225-2.559
			c0.435-0.891,0.873-1.791,1.314-2.706s0.882-1.839,1.323-2.768c0.441-0.929,0.866-1.841,1.274-2.734
			c0.369,0.132,0.728,0.285,1.077,0.465c0.349,0.178,0.668,0.385,0.958,0.622c0.29,0.234,0.536,0.511,0.741,0.817
			c0.204,0.312,0.339,0.662,0.405,1.059c-0.026,0.079-0.059,0.104-0.099,0.079c-0.04-0.026-0.073-0.015-0.099,0.038
			c0.065,0.079,0.102,0.137,0.108,0.17c0.006,0.031,0.003,0.063-0.01,0.099c-0.013,0.033-0.02,0.076-0.02,0.128
			c0,0.053,0.033,0.126,0.099,0.218c-0.066-0.013-0.112-0.003-0.138,0.029c-0.027,0.033-0.073,0.036-0.139,0.01
			c0.066,0.187,0.085,0.33,0.06,0.437c-0.027,0.104-0.066,0.199-0.119,0.285c-0.053,0.088-0.096,0.18-0.128,0.276
			c-0.033,0.099-0.023,0.233,0.03,0.405c-0.053,0-0.089,0.01-0.109,0.029c-0.02,0.019-0.036,0.043-0.049,0.067
			c-0.013,0.026-0.03,0.049-0.049,0.068c-0.02,0.021-0.056,0.021-0.109,0.011c0.04,0.342,0.053,0.688,0.04,1.037
			c-0.013,0.349-0.026,0.704-0.04,1.066c-0.014,0.36-0.013,0.732,0,1.114c0.013,0.382,0.066,0.777,0.158,1.187
			c0.566-0.328,1.024-0.757,1.373-1.283c0.349-0.527,0.625-1.113,0.83-1.759c0.204-0.646,0.362-1.336,0.474-2.074
			c0.112-0.737,0.227-1.487,0.346-2.252c0.145-0.146,0.26-0.322,0.346-0.533c0.085-0.21,0.158-0.428,0.217-0.651
			c0.059-0.223,0.119-0.449,0.178-0.682c0.059-0.229,0.141-0.438,0.247-0.622c0.237,0.026,0.438,0.096,0.603,0.207
			c0.165,0.112,0.319,0.237,0.464,0.375c0.145,0.139,0.296,0.269,0.455,0.386c0.158,0.118,0.355,0.197,0.592,0.237
			c0.185,0.263,0.356,0.519,0.514,0.76c0.158,0.244,0.264,0.52,0.316,0.82c-0.079,0.132-0.139,0.276-0.178,0.435
			c-0.04,0.158-0.083,0.315-0.128,0.476c-0.046,0.158-0.109,0.304-0.188,0.435c-0.079,0.132-0.191,0.244-0.336,0.336
			c-0.039,0.396-0.099,0.766-0.178,1.106c-0.079,0.343-0.151,0.679-0.217,1.008s-0.125,0.671-0.178,1.026
			c-0.053,0.354-0.072,0.744-0.059,1.166c-0.119,0.382-0.25,0.771-0.395,1.175s-0.25,0.772-0.316,1.116
			c-0.25,0.196-0.448,0.439-0.592,0.729c-0.145,0.29-0.296,0.579-0.455,0.869c-0.066,0.053-0.105,0.062-0.118,0.029
			c-0.014-0.032-0.073-0.058-0.178-0.069c0.013,0.119-0.01,0.194-0.069,0.229c-0.06,0.031-0.056,0.128,0.01,0.284
			c-0.224,0.105-0.421,0.244-0.593,0.415c-0.171,0.174-0.359,0.329-0.563,0.477c-0.204,0.145-0.441,0.24-0.711,0.286
			s-0.622-0.012-1.057-0.168c-0.646-0.477-1.225-1.021-1.739-1.642c-0.513-0.619-0.922-1.35-1.225-2.19
			c-0.132,0.039-0.23,0.125-0.296,0.257s-0.125,0.27-0.178,0.414c-0.053,0.146-0.105,0.275-0.158,0.396
			c-0.053,0.118-0.132,0.18-0.237,0.18c-0.026,0.116-0.076,0.228-0.148,0.324c-0.073,0.101-0.142,0.197-0.208,0.297
			s-0.116,0.207-0.148,0.325C269.214,171.976,269.229,172.109,269.296,172.254z"/>
		<path fill="#333333" d="M284.329,174.19c-0.58,0.079-1.106,0.055-1.581-0.079c-0.475-0.132-0.898-0.336-1.274-0.61
			c-0.376-0.276-0.698-0.605-0.968-0.987s-0.491-0.791-0.662-1.226c-0.118-0.896-0.085-1.708,0.099-2.439
			c0.184-0.729,0.454-1.405,0.81-2.022c0.356-0.619,0.761-1.198,1.215-1.738c0.455-0.54,0.892-1.062,1.314-1.562
			c0.092,0.039,0.168,0.039,0.227,0c0.059-0.04,0.112-0.092,0.158-0.156c0.046-0.065,0.099-0.134,0.158-0.197
			c0.06-0.066,0.128-0.112,0.208-0.14c0.053-0.117,0.122-0.218,0.208-0.297c0.085-0.078,0.178-0.153,0.276-0.228
			c0.099-0.072,0.191-0.148,0.277-0.229c0.085-0.077,0.161-0.178,0.227-0.296c0.131-0.024,0.247-0.07,0.346-0.139
			c0.099-0.065,0.191-0.138,0.276-0.217s0.174-0.151,0.267-0.218c0.092-0.065,0.204-0.118,0.336-0.157v-0.257
			c0.29-0.134,0.5-0.277,0.632-0.437c0.131-0.158,0.29-0.362,0.474-0.613c0.145-0.013,0.26-0.02,0.346-0.02
			c0.085,0,0.22-0.013,0.405-0.039c0.119-0.224,0.23-0.389,0.336-0.494c0.105-0.104,0.257-0.224,0.454-0.354
			c0.198,0.104,0.408,0.168,0.632,0.188c0.224,0.021,0.428,0.122,0.612,0.309c0.013,0.155,0.059,0.277,0.138,0.363
			s0.165,0.165,0.257,0.237c0.092,0.072,0.185,0.147,0.277,0.227c0.092,0.079,0.151,0.191,0.178,0.338
			c0.065,0,0.108-0.015,0.128-0.039c0.02-0.026,0.062-0.033,0.128-0.021c0.026,0.106,0.052,0.191,0.079,0.257
			c0.026,0.066,0.056,0.126,0.089,0.18c0.033,0.054,0.066,0.11,0.099,0.179c0.033,0.063,0.062,0.145,0.089,0.235
			c-0.066,0.157-0.125,0.325-0.178,0.505c-0.053,0.178-0.158,0.3-0.316,0.363c0,0.105,0.04,0.162,0.119,0.168
			c0.079,0.009,0.125,0.059,0.138,0.148c0.013,0.118-0.007,0.217-0.059,0.296c0.369,0.619,0.704,1.268,1.007,1.946
			c0.303,0.679,0.645,1.327,1.027,1.943c-0.026,0.187-0.017,0.366,0.03,0.544c0.046,0.18,0.105,0.354,0.178,0.523
			c0.072,0.171,0.141,0.342,0.208,0.514c0.065,0.171,0.111,0.344,0.138,0.515c0.026,0.225,0.026,0.465,0,0.722
			c-0.027,0.257-0.079,0.504-0.158,0.74c-0.079,0.235-0.185,0.458-0.316,0.662c-0.132,0.204-0.283,0.357-0.455,0.464
			c-0.21,0.264-0.474,0.478-0.79,0.643s-0.606,0.358-0.869,0.582c-0.185,0.106-0.382,0.184-0.593,0.229
			c-0.21,0.047-0.428,0.096-0.652,0.146c-0.171,0.105-0.375,0.207-0.612,0.308c-0.237,0.099-0.481,0.188-0.731,0.267
			s-0.5,0.143-0.75,0.188c-0.25,0.047-0.474,0.057-0.672,0.028c-0.474,0.171-0.935,0.289-1.383,0.355
			C285.461,174.354,284.934,174.323,284.329,174.19z M284.585,166.999c-0.132,0.303-0.287,0.576-0.464,0.817
			c-0.178,0.244-0.353,0.491-0.523,0.741c-0.171,0.25-0.319,0.519-0.444,0.8c-0.125,0.283-0.194,0.616-0.208,0.998
			c0.263,0.226,0.576,0.358,0.938,0.404c0.362,0.047,0.734,0.053,1.116,0.021c0.382-0.033,0.764-0.083,1.146-0.148
			s0.724-0.099,1.027-0.099c0-0.119,0.052-0.18,0.158-0.18c0.553-0.053,1.067-0.208,1.541-0.465c0.474-0.257,0.968-0.517,1.481-0.78
			c0.066-0.156,0.151-0.296,0.257-0.412c0.105-0.119,0.165-0.29,0.178-0.516c-0.066-0.119-0.108-0.218-0.128-0.297
			c-0.02-0.079-0.03-0.197-0.03-0.354c-0.342-0.476-0.639-0.991-0.889-1.553c-0.25-0.56-0.54-1.09-0.869-1.59
			c-0.026,0.065-0.079,0.132-0.158,0.197c-0.079,0.064-0.165,0.053-0.257-0.039c-0.04,0.132-0.099,0.221-0.178,0.267
			c-0.079,0.046-0.168,0.068-0.267,0.068c-0.099,0-0.198-0.021-0.296-0.059c-0.099-0.04-0.188-0.094-0.267-0.158
			c-0.461,0.369-0.918,0.725-1.373,1.064c-0.454,0.345-0.866,0.744-1.234,1.205c-0.066,0.04-0.105,0.055-0.119,0.04
			C284.71,166.966,284.665,166.973,284.585,166.999z"/>
	</g>
	<g>
		<rect x="35.095" y="134.966" fill="none" width="161.668" height="70.13"/>
		<g enable-background="new    ">
			<path fill="#333333" d="M65.67,147.785h0.74c0.28,0,0.42-0.142,0.44-0.44l0.98-12.383h1.42l3.721,8.183
				c0.34,0.722,0.7,1.66,0.7,1.66h0.04c0,0,0.36-0.938,0.68-1.66l3.721-8.183h1.42l0.98,12.383c0.02,0.301,0.16,0.44,0.44,0.44h0.76
				v1.238h-1.36c-0.86,0-1.16-0.358-1.22-1.221l-0.66-8.541c-0.06-0.761-0.06-1.961-0.06-1.961h-0.04c0,0-0.38,1.24-0.72,1.961
				l-3.341,7.142h-1.26l-3.321-7.142c-0.32-0.7-0.74-2.001-0.74-2.001h-0.04c0,0,0,1.24-0.06,2.001l-0.66,8.541
				c-0.06,0.86-0.36,1.221-1.22,1.221h-1.34V147.785z"/>
			<path fill="#333333" d="M89.092,142.824h0.56v-0.12c0-2.103-0.76-2.843-2.601-2.843c-0.5,0-1.96,0.143-1.96,0.882v0.641h-1.3
				v-0.96c0-1.4,2.401-1.7,3.281-1.7c3.181,0,3.941,1.7,3.941,3.86v4.819c0,0.302,0.16,0.439,0.44,0.439h0.84v1.181h-1.38
				c-0.86,0-1.2-0.38-1.2-1.198c0-0.44,0.02-0.74,0.02-0.74h-0.04c0.02,0-0.82,2.181-3.341,2.181c-1.68,0-3.42-0.979-3.42-2.979
				C82.931,142.945,87.352,142.824,89.092,142.824z M86.571,148.106c1.92,0,3.081-2.001,3.081-3.739v-0.462h-0.58
				c-1.58,0-4.741,0.04-4.741,2.303C84.331,147.145,85.071,148.106,86.571,148.106z"/>
			<path fill="#333333" d="M94.771,152.006c0.88,0,1.48-0.72,1.86-1.641l0.601-1.382l-3.541-8.382c-0.16-0.358-0.34-0.46-0.7-0.46
				h-0.2v-1.181h0.621c0.9,0,1.18,0.2,1.54,1.101l2.581,6.281c0.2,0.5,0.36,1.08,0.36,1.08h0.04c0,0,0.14-0.58,0.34-1.08l2.48-6.281
				c0.34-0.898,0.64-1.101,1.561-1.101h0.62v1.181h-0.2c-0.36,0-0.56,0.102-0.7,0.46l-4.341,10.522
				c-0.52,1.278-1.541,2.101-2.881,2.101c-1.4,0-2.18-0.979-2.18-0.979l0.64-1C93.271,151.266,93.911,152.006,94.771,152.006z"/>
			<path fill="#333333" d="M104.93,136.583c0-0.28-0.16-0.44-0.44-0.44h-0.84v-1.181h1.42c0.86,0,1.22,0.358,1.22,1.221v3.643
				c0,0.46-0.04,0.818-0.04,0.818h0.04c0,0,0.84-1.92,3.421-1.92c2.701,0,4.381,2.16,4.381,5.28c0,3.181-1.9,5.262-4.541,5.262
				c-2.4,0-3.301-1.938-3.301-1.938h-0.04c0,0,0.04,0.34,0.04,0.818v0.88h-1.32V136.583z M109.451,148.066
				c1.781,0,3.241-1.501,3.241-4.062c0-2.46-1.32-4.04-3.181-4.04c-1.68,0-3.261,1.2-3.261,4.061
				C106.25,146.045,107.291,148.066,109.451,148.066z"/>
			<path fill="#333333" d="M120.691,138.724c2.781,0,4.221,2.142,4.221,4.643c0,0.238-0.04,0.68-0.04,0.68h-7.721
				c0.04,2.541,1.82,4.001,3.9,4.001c1.841,0,3.021-1.24,3.021-1.24l0.66,1.021c0,0-1.46,1.438-3.741,1.438
				c-2.981,0-5.261-2.16-5.261-5.262C115.73,140.703,117.99,138.724,120.691,138.724z M123.512,142.964
				c-0.08-2.08-1.36-3.103-2.841-3.103c-1.66,0-3.121,1.08-3.461,3.103H123.512z"/>
			<path fill="#333333" d="M133.63,152.006c0.88,0,1.48-0.72,1.86-1.641l0.601-1.382l-3.541-8.382c-0.16-0.358-0.34-0.46-0.7-0.46
				h-0.2v-1.181h0.621c0.9,0,1.18,0.2,1.54,1.101l2.581,6.281c0.2,0.5,0.36,1.08,0.36,1.08h0.04c0,0,0.14-0.58,0.34-1.08l2.48-6.281
				c0.34-0.898,0.64-1.101,1.561-1.101h0.62v1.181h-0.2c-0.36,0-0.56,0.102-0.7,0.46l-4.341,10.522
				c-0.52,1.278-1.541,2.101-2.881,2.101c-1.4,0-2.18-0.979-2.18-0.979l0.64-1C132.13,151.266,132.77,152.006,133.63,152.006z"/>
			<path fill="#333333" d="M148.01,138.724c2.941,0,5.321,2.24,5.321,5.221c0,3.041-2.38,5.321-5.301,5.321
				c-2.94,0-5.321-2.28-5.321-5.321C142.709,140.964,145.09,138.724,148.01,138.724z M148.03,148.045
				c2.141,0,3.901-1.76,3.901-4.103c0-2.278-1.76-3.979-3.901-3.979c-2.16,0-3.92,1.7-3.92,3.979
				C144.11,146.285,145.87,148.045,148.03,148.045z"/>
			<path fill="#333333" d="M155.829,140.584c0-0.28-0.16-0.44-0.44-0.44h-0.84v-1.181h1.42c0.86,0,1.22,0.36,1.22,1.181v4.861
				c0,1.58,0.26,2.979,2.201,2.979c2.28,0,3.701-2.021,3.701-4.199v-4.821h1.36v8.44c0,0.302,0.16,0.439,0.44,0.439h0.84v1.181
				h-1.38c-0.84,0-1.22-0.358-1.22-1.12v-0.46c0-0.398,0.04-0.721,0.04-0.721h-0.04c-0.4,0.98-1.72,2.541-3.921,2.541
				c-2.38,0-3.381-1.28-3.381-3.899V140.584z"/>
		</g>
		<g enable-background="new    ">
			<path fill="#333333" d="M86.37,170.565c0,0,1.12,1.521,3.101,1.521c1.12,0,2.121-0.54,2.121-1.603c0-2.198-5.641-1.8-5.641-5.041
				c0-1.818,1.56-2.72,3.581-2.72c1.02,0,3.061,0.399,3.061,1.82v0.857h-1.28v-0.479c0-0.74-1.08-1.021-1.74-1.021
				c-1.4,0-2.241,0.48-2.241,1.46c0,2.263,5.642,1.741,5.642,5.082c0,1.682-1.521,2.82-3.521,2.82c-2.621,0-3.861-1.761-3.861-1.761
				L86.37,170.565z"/>
			<path fill="#333333" d="M95.489,160.583c0-0.28-0.16-0.44-0.44-0.44h-0.84v-1.181h1.42c0.86,0,1.22,0.358,1.22,1.181v4.261
				c0,0.462-0.04,0.82-0.04,0.82h0.04c0.38-0.96,1.721-2.5,3.981-2.5c2.5,0,3.381,1.42,3.381,3.9v4.779
				c0,0.302,0.16,0.439,0.44,0.439h0.84v1.181h-1.42c-0.86,0-1.22-0.358-1.22-1.221v-4.82c0-1.581-0.24-2.979-2.201-2.979
				c-1.7,0-3.181,1.18-3.641,2.859c-0.12,0.398-0.16,0.859-0.16,1.341v4.819h-1.36V160.583z"/>
			<path fill="#333333" d="M112.01,162.724c2.941,0,5.321,2.24,5.321,5.221c0,3.041-2.38,5.321-5.301,5.321
				c-2.94,0-5.321-2.28-5.321-5.321C106.709,164.964,109.089,162.724,112.01,162.724z M112.03,172.045
				c2.141,0,3.901-1.76,3.901-4.103c0-2.278-1.76-3.979-3.901-3.979c-2.16,0-3.92,1.7-3.92,3.979
				C108.109,170.285,109.87,172.045,112.03,172.045z"/>
			<path fill="#333333" d="M119.829,164.584c0-0.28-0.16-0.44-0.44-0.44h-0.84v-1.181h1.42c0.86,0,1.22,0.36,1.22,1.181v4.861
				c0,1.58,0.26,2.979,2.201,2.979c2.28,0,3.701-2.021,3.701-4.199v-4.821h1.36v8.44c0,0.302,0.16,0.439,0.44,0.439h0.84v1.181
				h-1.38c-0.84,0-1.22-0.358-1.22-1.12v-0.46c0-0.398,0.04-0.721,0.04-0.721h-0.04c-0.4,0.98-1.72,2.541-3.921,2.541
				c-2.38,0-3.381-1.28-3.381-3.899V164.584L119.829,164.584z"/>
			<path fill="#333333" d="M131.909,160.583c0-0.28-0.16-0.44-0.44-0.44h-0.84v-1.181h1.42c0.86,0,1.22,0.358,1.22,1.221v11.223
				c0,0.302,0.16,0.439,0.44,0.439h0.84v1.181h-1.42c-0.86,0-1.22-0.358-1.22-1.221V160.583z"/>
			<path fill="#333333" d="M140.45,162.724c2.44,0,3.28,1.88,3.28,1.88h0.04c0,0-0.04-0.34-0.04-0.76v-3.261
				c0-0.28-0.16-0.44-0.44-0.44h-0.84v-1.181h1.42c0.86,0,1.22,0.36,1.22,1.221v11.225c0,0.3,0.16,0.438,0.44,0.438h0.84v1.181h-1.4
				c-0.84,0-1.201-0.38-1.201-1.118c0-0.382,0.04-0.643,0.04-0.643h-0.04c0,0-0.82,2.001-3.46,2.001
				c-2.701,0-4.381-2.16-4.381-5.281C135.929,164.804,137.809,162.724,140.45,162.724z M143.77,167.985
				c0-2.04-1.04-4.041-3.201-4.041c-1.78,0-3.241,1.5-3.241,4.041c0,2.48,1.3,4.062,3.181,4.062
				C142.19,172.045,143.77,170.845,143.77,167.985z"/>
		</g>
		<g enable-background="new    ">
			<path fill="#333333" d="M62.76,188.584c0-0.28-0.16-0.44-0.44-0.44h-0.84v-1.181h1.4c0.84,0,1.22,0.341,1.22,1.141v0.682
				c0,0.421-0.04,0.761-0.04,0.761h0.04c0.48-1.521,1.601-2.681,3.181-2.681c0.28,0,0.54,0.06,0.54,0.06v1.341
				c0,0-0.24-0.04-0.5-0.04c-1.42,0-2.48,1.12-2.92,2.603c-0.2,0.64-0.28,1.318-0.28,1.96v4.239h-1.36v-8.441H62.76V188.584z"/>
			<path fill="#333333" d="M73.621,186.724c2.781,0,4.221,2.142,4.221,4.643c0,0.238-0.04,0.68-0.04,0.68h-7.721
				c0.04,2.541,1.82,4.001,3.9,4.001c1.841,0,3.021-1.24,3.021-1.24l0.66,1.021c0,0-1.46,1.438-3.741,1.438
				c-2.981,0-5.261-2.16-5.261-5.262C68.66,188.703,70.92,186.724,73.621,186.724z M76.442,190.964
				c-0.08-2.08-1.36-3.103-2.841-3.103c-1.66,0-3.121,1.08-3.461,3.103H76.442z"/>
			<path fill="#333333" d="M84.92,186.724c1.141,0,3.581,0.479,3.581,2.142v0.898h-1.28v-0.58c0-0.84-1.46-1.24-2.301-1.24
				c-2.16,0-3.9,1.62-3.9,4.062c0,2.479,1.82,4.021,3.94,4.021c2.061,0,3.241-1.421,3.241-1.421l0.64,1.021
				c0,0-1.36,1.641-3.941,1.641c-3,0-5.281-2.141-5.281-5.262C79.62,188.924,81.92,186.724,84.92,186.724z"/>
			<path fill="#333333" d="M95.48,186.724c2.941,0,5.321,2.24,5.321,5.221c0,3.041-2.38,5.321-5.301,5.321
				c-2.94,0-5.321-2.28-5.321-5.321C90.18,188.964,92.56,186.724,95.48,186.724z M95.5,196.045c2.141,0,3.901-1.76,3.901-4.103
				c0-2.278-1.76-3.979-3.901-3.979c-2.16,0-3.92,1.7-3.92,3.979C91.58,194.285,93.34,196.045,95.5,196.045z"/>
			<path fill="#333333" d="M103.34,188.584c0-0.28-0.16-0.44-0.44-0.44h-0.84v-1.181h1.4c0.84,0,1.22,0.36,1.22,1.12v0.461
				c0,0.397-0.04,0.72-0.04,0.72h0.04c0.36-0.92,1.641-2.54,4.001-2.54c2.5,0,3.381,1.42,3.381,3.9v4.779
				c0,0.302,0.16,0.439,0.44,0.439h0.84v1.181h-1.42c-0.86,0-1.22-0.358-1.22-1.221v-4.82c0-1.581-0.24-2.979-2.181-2.979
				c-1.72,0-3.201,1.18-3.661,2.84c-0.12,0.42-0.16,0.881-0.16,1.36v4.819h-1.36V188.584z"/>
			<path fill="#333333" d="M115.12,194.565c0,0,1.12,1.521,3.101,1.521c1.12,0,2.121-0.54,2.121-1.603
				c0-2.198-5.641-1.8-5.641-5.041c0-1.818,1.56-2.72,3.581-2.72c1.02,0,3.061,0.399,3.061,1.82v0.857h-1.28v-0.479
				c0-0.74-1.08-1.021-1.74-1.021c-1.4,0-2.241,0.48-2.241,1.46c0,2.263,5.642,1.741,5.642,5.082c0,1.682-1.521,2.82-3.521,2.82
				c-2.621,0-3.861-1.761-3.861-1.761L115.12,194.565z"/>
			<path fill="#333333" d="M124.399,188.584c0-0.28-0.16-0.44-0.44-0.44h-0.84v-1.181h1.42c0.86,0,1.22,0.36,1.22,1.221v7.224
				c0,0.3,0.16,0.438,0.44,0.438h0.84v1.181h-1.42c-0.86,0-1.22-0.358-1.22-1.221V188.584z M124.359,182.962h1.32v1.721h-1.32
				V182.962z"/>
			<path fill="#333333" d="M132.94,186.724c2.44,0,3.281,1.88,3.281,1.88h0.04c0,0-0.04-0.34-0.04-0.76v-3.261
				c0-0.28-0.16-0.44-0.44-0.44h-0.84v-1.181h1.42c0.86,0,1.22,0.36,1.22,1.221v11.225c0,0.3,0.16,0.438,0.44,0.438h0.84v1.181h-1.4
				c-0.84,0-1.201-0.38-1.201-1.118c0-0.382,0.04-0.643,0.04-0.643h-0.04c0,0-0.82,2.001-3.46,2.001
				c-2.701,0-4.381-2.16-4.381-5.281C128.419,188.804,130.299,186.724,132.94,186.724z M136.26,191.985
				c0-2.04-1.04-4.041-3.201-4.041c-1.78,0-3.24,1.5-3.24,4.041c0,2.48,1.3,4.062,3.181,4.062
				C134.68,196.045,136.26,194.845,136.26,191.985z"/>
			<path fill="#333333" d="M145.1,186.724c2.781,0,4.221,2.142,4.221,4.643c0,0.238-0.04,0.68-0.04,0.68h-7.721
				c0.04,2.541,1.82,4.001,3.9,4.001c1.841,0,3.021-1.24,3.021-1.24l0.66,1.021c0,0-1.46,1.438-3.741,1.438
				c-2.981,0-5.261-2.16-5.261-5.262C140.139,188.703,142.399,186.724,145.1,186.724z M147.921,190.964
				c-0.08-2.08-1.36-3.103-2.841-3.103c-1.66,0-3.121,1.08-3.461,3.103H147.921z"/>
			<path fill="#333333" d="M152.039,188.584c0-0.28-0.16-0.44-0.44-0.44h-0.84v-1.181h1.4c0.84,0,1.22,0.341,1.22,1.141v0.682
				c0,0.421-0.04,0.761-0.04,0.761h0.04c0.48-1.521,1.601-2.681,3.181-2.681c0.28,0,0.54,0.06,0.54,0.06v1.341
				c0,0-0.24-0.04-0.5-0.04c-1.42,0-2.48,1.12-2.92,2.603c-0.2,0.64-0.28,1.318-0.28,1.96v4.239h-1.36L152.039,188.584
				L152.039,188.584z"/>
			<path fill="#333333" d="M157.819,195.425h1.54v1.601h-1.54V195.425z"/>
			<path fill="#333333" d="M162.119,195.425h1.54v1.601h-1.54V195.425z"/>
			<path fill="#333333" d="M166.419,195.425h1.54v1.601h-1.54V195.425z"/>
		</g>
	</g>
</g>
</svg>
